<?xml version="1.0" encoding="UTF-8"?>
<svg width="198px" height="225px" viewBox="0 0 198 225" version="1.1" xmlns="http://www.w3.org/2000/svg" xmlns:xlink="http://www.w3.org/1999/xlink">
    <title>Artboard Copy 10</title>
    <g id="Artboard-Copy-10" stroke="none" stroke-width="1" fill="none" fill-rule="evenodd" stroke-linecap="round">
        <path d="M63.75,153.75 L99.5946903,62.5089701 C100.200523,60.9668505 101.941782,60.20784 103.483902,60.8136727 C104.226264,61.1053149 104.821931,61.6805707 105.13927,62.4123168 L144.75,153.75 L144.75,153.75" id="Path" stroke="#CE3333" stroke-width="20"></path>
        <path d="M65.5,154.75 C116.166667,104.416667 151.083333,89.8333333 170.25,111 C196.903711,140.434968 186.25,170.75 167.5,190 C148.75,209.25 123,217.25 97.5,215 C72,212.75 49.75,204.75 32.25,183.5 C14.75,162.25 7,123.25 12.75,96.25 C18.5,69.25 29.5,41.5 63.75,21.25 C64.2994187,20.9251612 64.8635303,20.6428335 65.4200915,20.3497249 C113.341465,-4.88769306 160.117677,21.3906387 170.25,33.5" id="Path-2" stroke="#CE3333" stroke-width="16"></path>
    </g>
</svg>