<?xml version="1.0" encoding="UTF-8"?>
<svg width="404px" height="404px" viewBox="0 0 404 404" version="1.1" xmlns="http://www.w3.org/2000/svg" xmlns:xlink="http://www.w3.org/1999/xlink">
    <title>Artboard</title>
    <defs>
        <path d="M93.4253314,0 L304,0 C359.228475,-1.01453063e-14 404,44.771525 404,100 L404,304 C404,359.228475 359.228475,404 304,404 L100,404 C44.771525,404 6.76353751e-15,359.228475 0,304 L0,186.850663 L0,93.4253314 C-6.31885734e-15,41.8279456 41.8279456,9.478286e-15 93.4253314,0 Z" id="path-1"></path>
    </defs>
    <g id="Artboard" stroke="none" stroke-width="1" fill="none" fill-rule="evenodd">
        <mask id="mask-2" fill="white">
            <use xlink:href="#path-1"></use>
        </mask>
        <use id="Rectangle" fill="#F5A622" xlink:href="#path-1"></use>
        <path d="M275,66 L275,302 C275,304.761424 272.761424,307 270,307 L233.980196,307 L233.980196,255.301889 C233.980003,249.647989 232.64812,244.073623 230.091988,239.030531 C223.751909,226.519194 214.154202,216.835944 201.298867,209.98078 L164.998333,309.682376 L110.344189,310.647924 C109.133618,310.66931 107.944898,310.323953 106.934242,309.657235 C104.168193,307.832505 103.405103,304.110944 105.229832,301.344895 L171.970577,200.17345 C165.372903,198.953118 158.290678,198.153444 150.723903,197.774429 C83.9088972,194.42771 78.212581,99.1909602 172.057652,97.1183832 C234.621032,95.7366652 268.935148,85.3638708 275,66 Z M237.97533,118.645193 C236.766178,118.798763 235.570077,118.949086 234.387027,119.096162 L209.985354,186.120764 C219.823917,190.48894 228.584417,195.346596 236.266856,200.693732 L237.97533,118.645193 Z M174.096107,124.091751 C151.206111,124.091751 141.423003,132.13421 137.143223,139.217754 C126.025788,157.61843 135.788313,168.916579 159.894352,172.529148 C174.118658,174.660824 179.746795,175.366016 185.16183,176.805917 L185.72159,176.957582 C186.158001,177.078023 186.594906,177.203729 187.036705,177.335835 L224.68675,120.263295 C202.694553,122.815599 185.831005,124.091751 174.096107,124.091751 Z" id="Combined-Shape" fill="#1B3C6E" fill-rule="nonzero" mask="url(#mask-2)"></path>
    </g>
</svg>