<?xml version="1.0" encoding="UTF-8"?>
<svg width="409px" height="130px" viewBox="0 0 409 130" version="1.1" xmlns="http://www.w3.org/2000/svg" xmlns:xlink="http://www.w3.org/1999/xlink">
    <title>Artboard Copy</title>
    <defs>
        <linearGradient x1="100%" y1="50%" x2="4.87186121%" y2="50%" id="linearGradient-1">
            <stop stop-color="#F0A500" offset="0%"></stop>
            <stop stop-color="#6C5CE7" offset="100%"></stop>
        </linearGradient>
    </defs>
    <g id="Artboard-Copy" stroke="none" stroke-width="1" fill="none" fill-rule="evenodd">
        <g id="CL" transform="translate(5.200000, 31.000000)" fill="#000000" fill-rule="nonzero">
            <path d="M35.4,72 C28.2666667,72 22.0333333,70.5333333 16.7,67.6 C11.3666667,64.6666667 7.25,60.5 4.35,55.1 C1.45,49.7 0,43.3666667 0,36.1 C0,28.8333333 1.45,22.4833333 4.35,17.05 C7.25,11.6166667 11.35,7.41666667 16.65,4.45 C21.95,1.48333333 28.1333333,0 35.2,0 C41.1333333,0 46.5833333,1 51.55,3 C56.5166667,5 60.3333333,7.73333333 63,11.2 C63.6,12 63.9,12.8666667 63.9,13.8 C63.9,15 63.3,16.0666667 62.1,17 C61.4333333,17.4666667 60.6666667,17.7 59.8,17.7 C59.0666667,17.7 58.3333333,17.5333333 57.6,17.2 C56.8666667,16.8666667 56.2666667,16.4333333 55.8,15.9 C51.4,10.5 44.5333333,7.8 35.2,7.8 C27.2666667,7.8 21,10.3166667 16.4,15.35 C11.8,20.3833333 9.5,27.3 9.5,36.1 C9.5,44.8333333 11.8,51.7 16.4,56.7 C21,61.7 27.3333333,64.2 35.4,64.2 C40.2,64.2 44.4333333,63.5 48.1,62.1 C51.7666667,60.7 54.7666667,58.7 57.1,56.1 C58.4333333,54.7 59.7666667,54 61.1,54 C61.9666667,54 62.7666667,54.3 63.5,54.9 C64.6333333,55.9 65.2,57 65.2,58.2 C65.2,59.0666667 64.8666667,59.9333333 64.2,60.8 C61.4666667,64.2666667 57.5333333,67 52.4,69 C47.2666667,71 41.6,72 35.4,72 Z" id="Path"></path>
            <path d="M92.95,71 C88.4833333,71 85.0333333,69.8333333 82.6,67.5 C80.1666667,65.1666667 78.95,61.9333333 78.95,57.8 L78.95,4.7 C78.95,3.23333333 79.3666667,2.08333333 80.2,1.25 C81.0333333,0.416666667 82.1833333,0 83.65,0 C85.1166667,0 86.2833333,0.416666667 87.15,1.25 C88.0166667,2.08333333 88.45,3.23333333 88.45,4.7 L88.45,57.9 C88.45,59.5666667 88.8833333,60.9 89.75,61.9 C90.6166667,62.9 91.8166667,63.4 93.35,63.4 L126.25,63.4 C129.383333,63.4 130.95,64.6666667 130.95,67.2 C130.95,68.4 130.533333,69.3333333 129.7,70 C128.866667,70.6666667 127.716667,71 126.25,71 L92.95,71 Z" id="Path"></path>
        </g>
        <g id="NE" transform="translate(266.600000, 31.000000)" fill="#000000" fill-rule="nonzero">
            <path d="M4.7,72 C3.23333333,72 2.08333333,71.5833333 1.25,70.75 C0.416666667,69.9166667 0,68.7666667 0,67.3 L0,27.6 C0,21.9333333 1.2,17.0333333 3.6,12.9 C6,8.76666667 9.45,5.58333333 13.95,3.35 C18.45,1.11666667 23.7666667,0 29.9,0 C36.0333333,0 41.35,1.11666667 45.85,3.35 C50.35,5.58333333 53.8,8.76666667 56.2,12.9 C58.6,17.0333333 59.8,21.9333333 59.8,27.6 L59.8,67.3 C59.8,68.7666667 59.3833333,69.9166667 58.55,70.75 C57.7166667,71.5833333 56.5666667,72 55.1,72 C53.6333333,72 52.4666667,71.5833333 51.6,70.75 C50.7333333,69.9166667 50.3,68.7666667 50.3,67.3 L50.3,27.3 C50.3,21.1 48.5166667,16.3 44.95,12.9 C41.3833333,9.5 36.3666667,7.8 29.9,7.8 C23.5,7.8 18.5,9.51666667 14.9,12.95 C11.3,16.3833333 9.5,21.1666667 9.5,27.3 L9.5,67.3 C9.5,68.7666667 9.06666667,69.9166667 8.2,70.75 C7.33333333,71.5833333 6.16666667,72 4.7,72 Z" id="Path"></path>
        </g>
        <path d="M214,25 C225.045695,25 235.045695,29.4771525 242.284271,36.7157288 C249.522847,43.954305 254,53.954305 254,65 C254,76.045695 249.522847,86.045695 242.284271,93.2842712 C235.045695,100.522847 225.045695,105 214,105 C209.489065,105 205.15237,104.253756 201.108615,102.876813 C206.394861,99.2263988 210.87928,94.4980946 214.244095,89.0093599 C218.528767,82.0201442 221,73.7987583 221,65 C221,56.2014176 218.528863,47.9801845 214.244592,40.991129 C210.879411,35.5014133 206.394366,30.7724432 201.109173,27.1222926 C205.153476,25.7460463 209.489643,25 214,25 Z M175,25 C179.355418,25 183.548406,25.6956477 187.473562,26.9825099 L187.893,27.123 L187.6902,27.2635841 C182.664827,30.7731339 178.373407,35.260835 175.092143,40.4507109 L174.756317,40.9900881 C170.471395,47.9793235 168,56.2009563 168,65 C168,73.7072462 170.420128,81.8490607 174.622573,88.7908169 C177.977562,94.3327134 182.46975,99.1092425 187.773793,102.796992 C183.861514,104.254586 179.516893,105 175,105 C163.954305,105 153.954305,100.522847 146.715729,93.2842712 C139.477153,86.045695 135,76.045695 135,65 C135,53.954305 139.477153,43.954305 146.715729,36.7157288 C153.954305,29.4771525 163.954305,25 175,25 Z" id="Combined-Shape" stroke="url(#linearGradient-1)" stroke-width="6"></path>
        <rect id="Rectangle" fill="#000000" x="342" y="95" width="49" height="8" rx="3.5"></rect>
        <rect id="Rectangle-Copy-2" fill="#000000" x="342" y="32" width="49" height="8" rx="3.5"></rect>
        <rect id="Rectangle-Copy" fill="#000000" x="342" y="64" width="34" height="8" rx="3.5"></rect>
    </g>
</svg>