<?xml version="1.0" encoding="UTF-8"?>
<svg width="2125px" height="1956px" viewBox="0 0 2125 1956" version="1.1" xmlns="http://www.w3.org/2000/svg" xmlns:xlink="http://www.w3.org/1999/xlink">
    <title>Artboard Copy 19</title>
    <defs>
        <rect id="path-1" x="0" y="0" width="586" height="581"></rect>
    </defs>
    <g id="Artboard-Copy-19" stroke="none" stroke-width="1" fill="none" fill-rule="evenodd">
        <rect fill="#000000" x="0" y="0" width="2125" height="1956"></rect>
        <path d="M1499.89966,107.29952 L1593.14783,107.429501 L1894.82182,107.597477 C1938.45262,107.567482 1982.22748,106.787593 2025.84028,107.727459 L2025.83427,316.947463 L2025.86629,353.840173 C2025.83027,368.264105 2026.33449,382.902007 2025.59017,397.293943 L2025.499,397.152 L2025.48893,409.073229 C2025.37373,476.12866 2024.40635,543.152437 2024.80666,610 L1877.11207,460.979684 C1857.67478,463.128218 1841.5283,468.082838 1824,476.702956 C1851.32282,454.863858 1883.96124,443.993275 1919.03182,448.028522 C1924.56508,448.666087 1930.09234,449.407581 1935.51377,450.710692 C1948.14781,438.133274 1961.74632,426.337323 1974.10479,413.552047 L1951.27635,388.308199 C1950.91113,387.930009 1950.54633,387.557164 1950.18168,387.191392 L1844.8823,282.916342 C1824.49752,262.817223 1803.04228,243.092051 1783.85601,221.861095 L1761.71647,244.049914 L1552.87248,452.805985 C1607.48001,508.328024 1661.35522,565.47983 1718.20372,618.676204 C1724.79589,625.104615 1731.20065,631.713668 1737.418,638.503361 L1743.9288,644.198545 C1757.43462,633.432088 1769.81596,618.954164 1781.25489,606.042015 C1781.22085,604.881504 1781.1305,603.732763 1781.00414,602.589981 C1780.64814,601.213536 1780.23907,599.627149 1779.83393,598.03074 L1779.61774,597.176275 C1778.72124,593.621422 1777.89525,590.193024 1777.77712,589.095083 C1773.79594,553.920601 1785.34792,521.381705 1807.00093,494 C1798.25148,511.775212 1793.80209,527.05309 1791.25,546.75 L1814.5,569.75 L1814.393,569.717 L1818.53287,573.85762 C1856.54473,611.924595 1894.21946,650.440071 1932.8262,687.882282 L1678.84276,687.876282 L1667.66594,687.804293 C1644.49996,688.180239 1621.28396,687.89228 1598.11397,687.928275 L1445,687.880282 L1445.03201,108.193392 C1463.00376,106.229673 1481.80386,107.275523 1499.89966,107.29952 Z M1756.63452,368.449755 C1768.2213,373.351244 1777.30175,382.679303 1781.46562,394.606394 C1785.50738,406.188817 1784.71264,419.626833 1779.09742,430.555992 C1772.23904,443.903833 1761.2388,449.68703 1747.51604,453.77294 C1737.87907,454.388131 1729.04486,453.977335 1720.19863,449.695045 C1719.49931,449.362401 1718.81,449.011054 1718.1307,448.641004 C1717.45007,448.270955 1716.77945,447.883538 1716.11883,447.478754 C1715.45955,447.075307 1714.81095,446.653824 1714.17302,446.214306 C1713.53509,445.774789 1712.90918,445.31924 1712.29527,444.847661 C1711.68137,444.376081 1711.08014,443.88847 1710.4916,443.384829 C1709.90305,442.881187 1709.32851,442.36285 1708.76799,441.829818 C1708.20614,441.29545 1707.65896,440.747055 1707.12647,440.184633 C1706.59531,439.622211 1706.07816,439.045761 1705.57502,438.455285 C1705.07322,437.866144 1704.58744,437.263645 1704.11767,436.647786 C1703.64656,436.033263 1703.19281,435.406048 1702.7564,434.766143 C1702.31866,434.127573 1701.89827,433.477648 1701.49523,432.816368 C1701.09219,432.153752 1700.70649,431.481784 1700.33815,430.800465 C1699.96981,430.119146 1699.62015,429.428476 1699.28918,428.728454 C1698.95687,428.028432 1698.64391,427.319727 1698.3503,426.602338 C1698.05536,425.886285 1697.77977,425.162884 1697.52353,424.432136 C1697.26729,423.701388 1697.03041,422.963961 1696.81287,422.219853 C1696.60868,421.533191 1696.42117,420.841852 1696.25035,420.145838 C1696.07952,419.448488 1695.92605,418.748466 1695.78992,418.045772 C1695.65513,417.341743 1695.53702,416.635041 1695.43559,415.925668 C1695.33416,415.216295 1695.25075,414.504249 1695.18536,413.789532 C1695.11863,413.076151 1695.06992,412.361434 1695.03922,411.645381 C1695.00853,410.929328 1694.99585,410.212607 1695.00119,409.495219 C1695.00519,408.779166 1695.02721,408.063113 1695.06725,407.34706 C1695.10728,406.631007 1695.16467,405.916958 1695.23941,405.204913 C1695.31548,404.491532 1695.40823,403.780822 1695.51767,403.072785 C1695.62844,402.364747 1695.75656,401.659382 1695.90202,400.956688 C1696.04616,400.25533 1696.20831,399.55798 1696.38848,398.864638 C1696.56731,398.16996 1696.76349,397.480625 1696.97702,396.796634 C1697.19056,396.112643 1697.42077,395.433996 1697.66767,394.760693 C1697.91456,394.087389 1698.17814,393.421433 1698.4584,392.762825 C1698.73733,392.102881 1699.03294,391.450284 1699.34523,390.805035 C1699.65752,390.159785 1699.98516,389.522552 1700.32814,388.893334 C1707.28261,376.094555 1718.54509,369.23728 1732.1077,365.151369 C1740.79579,364.726547 1748.50496,365.011098 1756.63452,368.449755 Z M1764.25,203 L1533,434 L1545,446 L1776,215.5 L1764.25,203 Z M1746.13818,184 L1515,414.906697 L1527.10814,427 L1758,196.533278 L1746.13818,184 Z M1722.20329,169.000253 L1721.75896,169.007276 C1681.84747,170.070088 1594.92112,250.362373 1566.45372,283.067829 C1549.71807,302.294346 1496.35692,368.766073 1498.03888,391.776362 C1498.49433,397.995413 1504,403.5 1508.25,408.5 C1517.90227,400.702712 1524.45877,392.357713 1533.2381,383.555548 L1580.82825,335.886811 L1739,177.387912 C1734.22332,172.71232 1729.46869,169.117479 1722.64188,169.002822 L1722.20329,169.000253 Z" id="Combined-Shape" fill="#FF6301" fill-rule="nonzero"></path>
        <path d="M169.350757,107.445846 C198.320112,107.517824 227.409481,107.115947 256.362834,107.763749 L555.679497,107.663779 C568.829354,107.664362 581.999629,107.580582 595.177916,107.489432 L606.475263,107.411294 C634.722089,107.220415 662.989425,107.096703 691.155187,107.797738 C691.155187,207.209285 693.095411,307.008712 691.09518,406.372273 L691.295203,429.077318 L691.175189,573.87696 C668.799264,551.393181 646.289991,529.037363 623.647369,506.809506 C617.339971,500.710041 611.205928,494.443294 605.245237,488.009265 L568.520985,451.582424 C577.141983,427.115919 580.122328,402.781373 579.8823,376.967281 C577.362008,323.375698 554.619375,277.003904 515.094797,240.950948 C513.934663,239.900603 512.761194,238.864254 511.57439,237.841901 C510.387586,236.819547 509.194114,235.811856 507.993975,234.818827 C506.780501,233.825798 505.553692,232.848097 504.313549,231.885725 C503.08674,230.92202 501.846596,229.973644 500.593118,229.040597 C499.339639,228.107549 498.072826,227.190497 496.792678,226.28944 C495.51253,225.387049 494.219046,224.500654 492.912228,223.630254 C491.618745,222.759854 490.311927,221.905449 488.991774,221.067039 C487.671622,220.22863 486.338134,219.406215 484.991311,218.599795 C483.644488,217.793376 482.290998,217.003618 480.930841,216.230521 C479.570683,215.456092 478.203858,214.69899 476.830366,213.959217 C475.456874,213.219443 474.070046,212.496998 472.669884,211.791881 C471.269722,211.08543 469.862892,210.396308 468.449395,209.724514 C467.035898,209.05272 465.615734,208.398254 464.188902,207.761116 C462.76207,207.123977 461.321903,206.504167 459.868402,205.901685 C458.428235,205.299203 456.981401,204.714049 455.527899,204.146223 C454.061063,203.57973 452.594226,203.031231 451.127389,202.500727 C449.660553,201.96889 448.180381,201.455714 446.686875,200.961199 C445.206704,200.46535 443.719865,199.988163 442.226359,199.529637 C440.732852,199.069778 439.232679,198.629246 437.725837,198.208042 C436.218996,197.785505 434.705488,197.381628 433.185312,196.996413 C431.665136,196.611198 430.144959,196.243977 428.624783,195.894751 C427.091273,195.546857 425.557762,195.216958 424.024251,194.905054 C422.49074,194.594482 420.957229,194.302572 419.423718,194.029322 C417.876872,193.75474 416.330026,193.499484 414.78318,193.263557 C413.236335,193.027629 411.689489,192.810362 410.142643,192.611756 C408.582462,192.413151 407.022282,192.233872 405.462101,192.073921 C403.915255,191.91397 402.361742,191.77268 400.801561,191.650051 C399.241381,191.527422 397.674533,191.423454 396.101017,191.338146 C394.540836,191.254172 392.980656,191.188859 391.420475,191.142207 C389.860294,191.096887 388.293446,191.069562 386.719931,191.060232 C385.15975,191.052234 383.599569,191.063564 382.039388,191.094221 C380.465873,191.123546 378.899025,191.172197 377.338844,191.240177 C375.738659,191.309489 374.145141,191.398795 372.558291,191.508094 C370.958105,191.616061 369.364587,191.744022 367.777737,191.891977 C366.190886,192.039932 364.604036,192.207214 363.017186,192.393823 C361.430335,192.580433 359.843485,192.78637 358.256634,193.011634 C356.669784,193.238231 355.089601,193.483489 353.516085,193.747408 C351.94257,194.012661 350.369054,194.296574 348.795539,194.599148 C347.235358,194.901722 345.675177,195.224289 344.114997,195.566851 C342.554816,195.90808 340.994635,196.268636 339.434455,196.64852 C337.887609,197.028403 336.340763,197.426948 334.793917,197.844153 C333.260406,198.262692 331.726895,198.699891 330.193384,199.155752 C328.659873,199.611612 327.13303,200.086133 325.612854,200.579316 C324.092678,201.072498 322.579169,201.584341 321.072328,202.114845 C319.565487,202.644016 318.065313,203.192515 316.571807,203.760341 C315.078301,204.326834 313.591462,204.911988 312.11129,205.515803 C310.631119,206.119618 309.157615,206.741428 307.690778,207.381232 C306.223942,208.021036 304.77044,208.678834 303.330273,209.354627 C301.876772,210.03042 300.436605,210.724208 299.009773,211.43599 C297.582941,212.146439 296.162777,212.874882 294.74928,213.62132 C293.335783,214.367758 291.928953,215.130858 290.528791,215.910619 C289.141964,216.691713 287.761804,217.489469 286.388311,218.303886 C285.001484,219.118303 283.634659,219.949382 282.287836,220.797122 C280.927679,221.644862 279.580856,222.509264 278.247369,223.390328 C276.927216,224.271391 275.607063,225.16845 274.28691,226.081503 C272.980092,226.99589 271.679941,227.925605 270.386458,228.870649 C269.10631,229.815693 267.832829,230.776732 266.566016,231.753766 C265.301869,232.7308 264.049724,233.723162 262.809581,234.730854 C261.569437,235.738545 260.342628,236.761565 259.129155,237.799913 C257.914347,238.836929 256.712208,239.889273 255.522737,240.956946 C254.334599,242.023286 253.15913,243.104955 251.996328,244.201952 C250.834861,245.297617 249.686728,246.407943 248.55193,247.532932 C247.417132,248.656588 246.296335,249.794239 245.18954,250.945886 C244.082745,252.098867 242.989952,253.264509 241.911161,254.442815 C240.835036,255.630451 239.774246,256.831417 238.728792,258.045711 C237.682004,259.258673 236.650551,260.484964 235.634434,261.724584 C234.618316,262.962872 233.617533,264.213822 232.632086,265.477435 C231.646638,266.741048 230.677193,268.01599 229.723749,269.302263 C228.768972,270.589869 227.830863,271.888804 226.909423,273.199069 C225.98665,274.509335 225.079878,275.83093 224.189108,277.163855 C223.299672,278.495447 222.426237,279.838369 221.568805,281.192621 C220.712706,282.54554 219.872608,283.909122 219.048513,285.283367 C218.224417,286.657613 217.417657,288.041856 216.628233,289.436095 C215.838808,290.830335 215.066052,292.233905 214.309964,293.646805 C213.55521,295.059706 212.817791,296.481937 212.097708,297.913498 C211.376291,299.34506 210.672876,300.784619 209.987464,302.232175 C209.303384,303.681065 208.63664,305.137285 207.987232,306.600837 C207.337823,308.065722 206.70575,309.538604 206.091012,311.019484 C205.478941,312.49903 204.884206,313.985908 204.306806,315.480117 C203.729405,316.975659 203.170674,318.477199 202.630612,319.984737 C202.090549,321.493608 201.569155,323.008478 201.06643,324.529345 C200.563706,326.050212 200.078983,327.577078 199.612262,329.109942 C199.146875,330.642805 198.700156,332.181667 198.272107,333.726527 C197.844057,335.270055 197.435343,336.818914 197.045965,338.373104 C196.656586,339.925962 196.285877,341.484151 195.933836,343.047672 C195.581795,344.611193 195.24909,346.178046 194.93572,347.748232 C194.622351,349.319751 194.328317,350.894602 194.053618,352.472785 C193.77892,354.050968 193.523557,355.632484 193.28753,357.217331 C193.051502,358.802179 192.83481,360.389693 192.637454,361.979872 C192.440098,363.568719 192.262744,365.160898 192.105393,366.756409 C191.946708,368.350587 191.808025,369.946099 191.689344,371.542943 C191.570664,373.14112 191.471319,374.739964 191.39131,376.339474 C191.311301,377.940316 191.251294,379.541159 191.211289,381.142002 C191.169951,382.744178 191.148615,384.346354 191.147282,385.94853 C191.145948,387.549373 191.164617,389.150882 191.203288,390.753058 C191.240626,392.353901 191.297966,393.954744 191.375308,395.555587 C193.219522,432.23835 204.866871,464.928335 224.837183,495.542957 L233.512388,507.179681 C235.266547,509.197993 238.38669,512.721779 239.237416,513.692838 C240.304115,514.910419 241.385462,516.114634 242.481459,517.305484 C243.578787,518.496334 244.690764,519.67315 245.81739,520.835933 C246.942685,521.998716 248.082628,523.146797 249.237219,524.280176 C250.391811,525.414892 251.560386,526.534906 252.742944,527.640218 C253.925501,528.744193 255.121376,529.833467 256.330568,530.908038 C257.53976,531.983947 258.762269,533.043816 259.998095,534.087648 C261.235253,535.131479 262.484396,536.159941 263.745524,537.173032 C265.002658,538.186123 266.277103,539.183176 267.568861,540.164191 C268.847302,541.145205 270.145718,542.110181 271.46411,543.059119 C272.769185,544.00672 274.087577,544.938283 275.419286,545.853807 C276.764313,546.769332 278.109339,547.66815 279.454365,548.550261 C280.812708,549.431035 282.184369,550.295103 283.569346,551.142465 C284.941006,551.989826 286.325984,552.819812 287.724278,553.632424 C289.122573,554.445035 290.534185,555.240272 291.959113,556.018133 C293.370725,556.794658 294.795654,557.553809 296.2339,558.295584 C297.672146,559.037359 299.11705,559.760423 300.568613,560.464775 C302.020176,561.170464 303.485056,561.857442 304.963253,562.525708 C306.428133,563.193974 307.90633,563.844196 309.397844,564.476376 C310.889358,565.107219 312.387531,565.720019 313.892362,566.314776 C315.397194,566.908196 316.902025,567.482905 318.406856,568.038902 C319.925005,568.594899 321.449812,569.131517 322.981277,569.648755 C324.512743,570.167329 326.050867,570.666524 327.595649,571.146339 C329.140432,571.624817 330.691873,572.084584 332.249973,572.52564 C333.808072,572.965359 335.366172,573.386367 336.924272,573.788663 C338.495688,574.189622 340.067105,574.571202 341.638522,574.933402 C343.209939,575.294266 344.788014,575.636418 346.372748,575.959859 C347.957482,576.281963 349.548874,576.584019 351.146925,576.866028 C352.731659,577.149372 354.323051,577.412001 355.921102,577.653913 C357.519153,577.897162 359.117204,578.119695 360.715255,578.321511 C362.326623,578.524664 363.931332,578.707101 365.529383,578.868821 C367.140751,579.031878 368.752119,579.174218 370.363487,579.295843 C398.449232,581.679548 424.936927,577.297059 451.764207,569.209704 C463.171584,580.660722 474.71534,592.053105 486.285492,603.449254 L494.001631,611.047929 C519.72708,636.383273 545.462186,661.805697 570,688 L446.830224,687.923818 L415.388572,687.80353 L281.117013,687.884276 L281.1077,688 L111,687.924023 L111.038004,108.303583 C130.020203,106.042276 150.188538,107.39986 169.350757,107.445846 Z M416.263879,272 L433.454871,289.200073 L453.324459,309.098669 L500,355.840349 C489.265625,393.86188 479.350821,432.163673 469.056215,470.315325 C430.969507,480.335356 392.942767,490.563581 354.975995,501 L271,417.02953 C278.161702,392.932102 284.619144,368.550937 291.021394,344.172868 L293.763729,333.72615 C296.506469,323.281294 299.256102,312.844533 302.063722,302.438445 C340.070473,292.079431 378.137192,281.933283 416.263879,272 Z" id="Combined-Shape" fill="#FF6301" fill-rule="nonzero"></path>
        <path d="M316.504176,807 L1368.09682,808.023145 L1330.63923,931.502088 L1113.941,931.289 L1113.94076,1264.91142 C1114.47479,1264.65642 1115.0631,1264.52102 1115.66425,1264.52099 L1818.12062,1264.49182 C1848.37537,1264.49182 1868.13855,1253.77317 1877.41016,1232.33585 C1880.33804,1226.0021 1881.80198,1219.42474 1881.80198,1212.60377 C1881.80198,1191.65367 1872.04239,1176.3065 1852.5232,1166.56226 C1842.27562,1161.69015 1830.8081,1159.25409 1818.12062,1159.25409 L1617.56094,1159.25409 C1581.1047,1159.25409 1549.01046,1153.83672 1521.27822,1143.00199 L1705.89922,1143 C1707.00379,1143 1707.89922,1142.10457 1707.89922,1141 L1707.89922,1131.72165 C1707.89922,1130.61708 1707.00379,1129.72165 1705.89922,1129.72165 L1493.91008,1129.72207 C1487.11935,1125.70605 1480.65844,1121.28044 1474.52732,1116.44522 L1676.10853,1116.4433 C1677.2131,1116.4433 1678.10853,1115.54787 1678.10853,1114.4433 L1678.10853,1105.16495 C1678.10853,1104.06038 1677.2131,1103.16495 1676.10853,1103.16495 L1459.54571,1103.16591 C1455.32945,1098.97495 1451.30229,1094.54912 1447.46425,1089.88843 L1633.07752,1089.8866 C1634.18209,1089.8866 1635.07752,1088.99117 1635.07752,1087.8866 L1635.07752,1078.60825 C1635.07752,1077.50368 1634.18209,1076.60825 1633.07752,1076.60825 L1437.45004,1076.60861 C1433.95708,1071.51854 1430.78518,1066.31934 1427.93435,1061.01101 L1599.97674,1061.01031 C1601.08131,1061.01031 1601.97674,1060.11488 1601.97674,1059.01031 L1601.97674,1049.73196 C1601.97674,1048.62739 1601.08131,1047.73196 1599.97674,1047.73196 L1421.56889,1047.73217 C1419.40667,1042.62745 1417.52231,1037.42828 1415.91581,1032.13467 L1591.70569,1032.13499 C1600.00679,1035.02948 1609.11319,1036.47673 1619.02488,1036.47673 L1819.58456,1036.47673 C1894.24547,1036.47673 1950.85112,1060.3501 1989.40152,1108.09686 C2013.80051,1138.79119 2026,1173.62683 2026,1212.60377 C2026,1263.27379 2006.96879,1305.174 1968.90637,1338.3044 C1930.84395,1371.4348 1881.07001,1388 1819.58456,1388 L979.679849,1388 L979.658,1387.999 L974.938417,1388 L974.938,931.153 L317.967364,930.508176 C313.572646,930.508176 309.39609,930.747367 305.437694,931.22575 L115.826858,931.226604 C117.486502,926.016107 119.410084,920.923165 121.597605,915.947778 L351.627907,915.948454 C352.732476,915.948454 353.627907,915.053023 353.627907,913.948454 L353.627907,904.670103 C353.627907,903.565534 352.732476,902.670103 351.627907,902.670103 L128.217947,902.670034 C130.953477,897.786779 133.966599,893.027159 137.257313,888.391175 L378.108527,888.391753 C379.213097,888.391753 380.108527,887.496322 380.108527,886.391753 L380.108527,877.113402 C380.108527,876.008833 379.213097,875.113402 378.108527,875.113402 L147.735609,875.113252 C152.024978,870.199098 156.661619,865.439615 161.64553,860.834801 L407.899225,860.835052 C409.003794,860.835052 409.899225,859.939621 409.899225,858.835052 L409.899225,849.556701 C409.899225,848.452132 409.003794,847.556701 407.899225,847.556701 L177.669676,847.55522 C184.247886,842.691823 191.140228,838.265842 198.3467,834.277276 L441,834.278351 C442.104569,834.278351 443,833.38292 443,832.278351 L443,823 C443,821.895431 442.104569,821 441,821 L227.876458,820.999392 C254.067795,811.666464 283.610368,807 316.504176,807 Z M317.967364,1036.47673 L518.42401,1036.47673 C593.046558,1036.47673 649.623129,1060.3501 688.153726,1108.09686 C712.540179,1138.79119 724.733406,1173.62683 724.733406,1212.60377 C724.733406,1263.27379 705.711972,1305.174 667.669105,1338.3044 C629.626238,1371.4348 579.877873,1388 518.42401,1388 L108,1388 L145.311274,1264.49182 L516.960823,1264.49182 C547.200025,1264.49182 566.953053,1253.77317 576.219905,1232.33585 C579.146279,1226.0021 580.609466,1219.42474 580.609466,1212.60377 C580.609466,1191.65367 570.854885,1176.3065 551.345722,1166.56226 C541.103412,1161.69015 529.641779,1159.25409 516.960823,1159.25409 L316.504176,1159.25409 C280.066794,1159.25409 247.989141,1153.83676 220.271219,1143.00211 L407.899225,1143 C409.003794,1143 409.899225,1142.10457 409.899225,1141 L409.899225,1131.72165 C409.899225,1130.61708 409.003794,1129.72165 407.899225,1129.72165 L192.916891,1129.7221 C186.129716,1125.70612 179.67217,1121.28056 173.544254,1116.4454 L378.108527,1116.4433 C379.213097,1116.4433 380.108527,1115.54787 380.108527,1114.4433 L380.108527,1105.16495 C380.108527,1104.06038 379.213097,1103.16495 378.108527,1103.16495 L158.570379,1103.16616 C154.356186,1098.97513 150.331014,1094.54921 146.494863,1089.88843 L335.077519,1089.8866 C336.182089,1089.8866 337.077519,1088.99117 337.077519,1087.8866 L337.077519,1078.60825 C337.077519,1077.50368 336.182089,1076.60825 335.077519,1076.60825 L136.485801,1076.60861 C132.994632,1071.51854 129.824366,1066.31934 126.975004,1061.01101 L301.976744,1061.01031 C303.081314,1061.01031 303.976744,1060.11488 303.976744,1059.01031 L303.976744,1049.73196 C303.976744,1048.62739 303.081314,1047.73196 301.976744,1047.73196 L120.612808,1047.73217 C118.451702,1042.62745 116.568312,1037.42828 114.962639,1032.13467 L290.662204,1032.13499 C298.959045,1035.02948 308.060765,1036.47673 317.967364,1036.47673 Z M1569.59267,1018.85589 L1412.5103,1018.85543 C1411.36404,1013.41703 1410.49454,1007.88458 1409.90178,1002.25805 L1558.49499,1002.25777 C1560.86146,1008.51917 1564.56069,1014.05188 1569.59267,1018.85589 Z M268.560622,1018.85597 L111.558876,1018.85543 C110.413206,1013.41703 109.544145,1007.88458 108.951695,1002.25805 L257.468569,1002.25777 C259.833836,1008.51921 263.531187,1014.05194 268.560622,1018.85597 Z M1555.34352,983.857862 C1555.34352,985.604053 1555.41472,987.311319 1555.5571,988.979661 L1409.02154,988.980238 C1408.97358,987.280931 1408.9496,985.573472 1408.9496,983.857862 C1408.9496,979.982391 1409.06164,976.156798 1409.28573,972.381083 L1556.72484,972.381827 C1555.80396,976.207172 1555.34352,980.032517 1555.34352,983.857862 Z M254.31872,983.857862 C254.31872,985.604053 254.389876,987.311319 254.532187,988.979661 L108.07191,988.980238 C108.02397,987.280931 108,985.573472 108,983.857862 C108,979.982391 108.111986,976.156798 108.335959,972.381083 L255.69933,972.381827 C254.778923,976.207172 254.31872,980.032517 254.31872,983.857862 Z M1561.84934,959.103347 L1410.56317,959.102828 C1411.22876,954.145387 1412.10025,949.279608 1413.17765,944.505491 L1573.53972,944.504784 C1568.85814,948.510968 1564.96134,953.377156 1561.84934,959.103347 Z M260.821199,959.103347 L109.612747,959.102828 C110.277987,954.145387 111.14903,949.279608 112.225876,944.505491 L272.505571,944.504784 C267.82639,948.510968 263.931599,953.377156 260.821199,959.103347 Z M2012.82455,807 L1975.4941,930.508176 L1619.02488,930.508176 C1614.62819,930.508176 1610.44974,930.747336 1606.48954,931.225657 L1416.78048,931.226604 C1418.44097,926.016107 1420.36555,920.923165 1422.55419,915.947778 L1649.62791,915.948454 C1650.73248,915.948454 1651.62791,915.053023 1651.62791,913.948454 L1651.62791,904.670103 C1651.62791,903.565534 1650.73248,902.670103 1649.62791,902.670103 L1429.17794,902.670034 C1431.91487,897.786779 1434.92954,893.027159 1438.22195,888.391175 L1676.10853,888.391753 C1677.2131,888.391753 1678.10853,887.496322 1678.10853,886.391753 L1678.10853,877.113402 C1678.10853,876.008833 1677.2131,875.113402 1676.10853,875.113402 L1448.70563,875.113252 C1452.9973,870.198983 1457.63645,865.439391 1462.62305,860.834477 L1705.89922,860.835052 C1707.00379,860.835052 1707.89922,859.939621 1707.89922,858.835052 L1707.89922,849.556701 C1707.89922,848.452132 1707.00379,847.556701 1705.89922,847.556701 L1478.65476,847.555456 C1485.23645,842.691967 1492.13244,838.265906 1499.34273,834.277276 L1739,834.278351 C1740.10457,834.278351 1741,833.38292 1741,832.278351 L1741,823 C1741,821.895431 1740.10457,821 1739,821 L1528.88736,820.999503 C1555.09224,811.666501 1584.6501,807 1617.56094,807 L2012.82455,807 Z" id="Combined-Shape" fill="#FFFFFF" fill-rule="nonzero"></path>
        <g id="МИР-ЗАПЧАСТЕЙ" transform="translate(115.843750, 1475.906250)" fill="#FF6301" fill-rule="nonzero">
            <path d="M152.226562,41.3671875 L152.226562,231.09375 L109.101562,231.09375 L109.101562,103.007812 L91.875,231.09375 L61.2890625,231.09375 L43.125,105.9375 L43.125,231.09375 L0,231.09375 L0,41.3671875 L63.8671875,41.3671875 C65.7421875,52.7734375 67.734375,66.2109375 69.84375,81.6796875 L76.640625,129.960938 L87.890625,41.3671875 L152.226562,41.3671875 Z" id="Path"></path>
            <polygon id="Path" points="311.1875 231.09375 269.9375 231.09375 269.9375 144.726562 244.273438 231.09375 201.03125 231.09375 201.03125 41.25 242.28125 41.25 242.28125 126.914062 269.9375 41.25 311.1875 41.25"></polygon>
            <path d="M359.875,41.3671875 L409.5625,41.3671875 C423,41.3671875 433.332031,42.421875 440.558594,44.53125 C447.785156,46.640625 453.214844,49.6875 456.847656,53.671875 C460.480469,57.65625 462.941406,62.4804688 464.230469,68.1445312 C465.519531,73.8085938 466.164062,82.578125 466.164062,94.453125 L466.164062,110.976562 C466.164062,123.085938 464.914062,131.914062 462.414062,137.460938 C459.914062,143.007812 455.324219,147.265625 448.644531,150.234375 C441.964844,153.203125 433.234375,154.6875 422.453125,154.6875 L409.210938,154.6875 L409.210938,231.09375 L359.875,231.09375 L359.875,41.3671875 Z M409.210938,73.828125 L409.210938,122.109375 C410.617188,122.1875 411.828125,122.226562 412.84375,122.226562 C417.375,122.226562 420.519531,121.113281 422.277344,118.886719 C424.035156,116.660156 424.914062,112.03125 424.914062,105 L424.914062,89.4140625 C424.914062,82.9296875 423.898438,78.7109375 421.867188,76.7578125 C419.835938,74.8046875 415.617188,73.828125 409.210938,73.828125 Z" id="Shape"></path>
            <path d="M668.1875,123.632812 C675.375,126.054688 680.726562,130.019531 684.242188,135.527344 C687.757812,141.035156 689.515625,153.945312 689.515625,174.257812 C689.515625,189.335938 687.796875,201.035156 684.359375,209.355469 C680.921875,217.675781 674.984375,224.003906 666.546875,228.339844 C658.109375,232.675781 647.289062,234.84375 634.085938,234.84375 C619.085938,234.84375 607.308594,232.324219 598.753906,227.285156 C590.199219,222.246094 584.574219,216.074219 581.878906,208.769531 C579.183594,201.464844 577.835938,188.789062 577.835938,170.742188 L577.835938,155.742188 L625.179688,155.742188 L625.179688,186.5625 C625.179688,194.765625 625.667969,199.980469 626.644531,202.207031 C627.621094,204.433594 629.789062,205.546875 633.148438,205.546875 C636.820312,205.546875 639.242188,204.140625 640.414062,201.328125 C641.585938,198.515625 642.171875,191.171875 642.171875,179.296875 L642.171875,166.171875 C642.171875,158.90625 641.351562,153.59375 639.710938,150.234375 C638.070312,146.875 635.648438,144.667969 632.445312,143.613281 C629.242188,142.558594 623.03125,141.953125 613.8125,141.796875 L613.8125,114.257812 C625.0625,114.257812 632.015625,113.828125 634.671875,112.96875 C637.328125,112.109375 639.242188,110.234375 640.414062,107.34375 C641.585938,104.453125 642.171875,99.921875 642.171875,93.75 L642.171875,83.203125 C642.171875,76.5625 641.488281,72.1875 640.121094,70.078125 C638.753906,67.96875 636.625,66.9140625 633.734375,66.9140625 C630.453125,66.9140625 628.207031,68.0273438 626.996094,70.2539062 C625.785156,72.4804688 625.179688,77.2265625 625.179688,84.4921875 L625.179688,100.078125 L577.835938,100.078125 L577.835938,83.90625 C577.835938,65.78125 581.976562,53.5351562 590.257812,47.1679688 C598.539062,40.8007812 611.703125,37.6171875 629.75,37.6171875 C652.328125,37.6171875 667.640625,42.03125 675.6875,50.859375 C683.734375,59.6875 687.757812,71.953125 687.757812,87.65625 C687.757812,98.28125 686.3125,105.957031 683.421875,110.683594 C680.53125,115.410156 675.453125,119.726562 668.1875,123.632812 Z" id="Path"></path>
            <path d="M822.109375,41.3671875 L850.351562,231.09375 L799.84375,231.09375 L797.382812,196.992188 L779.6875,196.992188 L776.757812,231.09375 L725.664062,231.09375 L750.742188,41.3671875 L822.109375,41.3671875 Z M795.976562,163.359375 C793.476562,141.875 790.976562,115.351562 788.476562,83.7890625 C783.476562,120.039062 780.351562,146.5625 779.101562,163.359375 L795.976562,163.359375 Z" id="Shape"></path>
            <polygon id="Path" points="1001.34375 231.09375 951.890625 231.09375 951.890625 79.21875 937.242188 79.21875 937.242188 231.09375 887.789062 231.09375 887.789062 41.25 1001.34375 41.25"></polygon>
            <path d="M1117.41406,158.320312 C1113.42969,162.539062 1108.23438,165.917969 1101.82812,168.457031 C1095.42188,170.996094 1088.9375,172.265625 1082.375,172.265625 C1070.57812,172.265625 1062.00391,168.984375 1056.65234,162.421875 C1051.30078,155.859375 1048.625,145.703125 1048.625,131.953125 L1048.625,41.25 L1098.07812,41.25 L1098.07812,126.679688 C1098.07812,134.101562 1098.72266,139.199219 1100.01172,141.972656 C1101.30078,144.746094 1103.42969,146.132812 1106.39844,146.132812 C1113.74219,146.132812 1117.41406,139.804688 1117.41406,127.148438 L1117.41406,41.25 L1166.86719,41.25 L1166.86719,231.09375 L1117.41406,231.09375 L1117.41406,158.320312 Z" id="Path"></path>
            <path d="M1300.75,41.3671875 L1328.99219,231.09375 L1278.48438,231.09375 L1276.02344,196.992188 L1258.32812,196.992188 L1255.39844,231.09375 L1204.30469,231.09375 L1229.38281,41.3671875 L1300.75,41.3671875 Z M1274.61719,163.359375 C1272.11719,141.875 1269.61719,115.351562 1267.11719,83.7890625 C1262.11719,120.039062 1258.99219,146.5625 1257.74219,163.359375 L1274.61719,163.359375 Z" id="Shape"></path>
            <path d="M1481.625,124.101562 L1432.28906,124.101562 L1432.28906,91.0546875 C1432.28906,81.4453125 1431.76172,75.4492188 1430.70703,73.0664062 C1429.65234,70.6835938 1427.32812,69.4921875 1423.73438,69.4921875 C1419.67188,69.4921875 1417.09375,70.9375 1416,73.828125 C1414.90625,76.71875 1414.35938,82.96875 1414.35938,92.578125 L1414.35938,180.703125 C1414.35938,189.921875 1414.90625,195.9375 1416,198.75 C1417.09375,201.5625 1419.55469,202.96875 1423.38281,202.96875 C1427.05469,202.96875 1429.45703,201.5625 1430.58984,198.75 C1431.72266,195.9375 1432.28906,189.335938 1432.28906,178.945312 L1432.28906,155.15625 L1481.625,155.15625 L1481.625,162.539062 C1481.625,182.148438 1480.23828,196.054688 1477.46484,204.257812 C1474.69141,212.460938 1468.55859,219.648438 1459.06641,225.820312 C1449.57422,231.992188 1437.875,235.078125 1423.96875,235.078125 C1409.51562,235.078125 1397.60156,232.460938 1388.22656,227.226562 C1378.85156,221.992188 1372.64062,214.746094 1369.59375,205.488281 C1366.54688,196.230469 1365.02344,182.304688 1365.02344,163.710938 L1365.02344,108.28125 C1365.02344,94.609375 1365.49219,84.3554688 1366.42969,77.5195312 C1367.36719,70.6835938 1370.16016,64.1015625 1374.80859,57.7734375 C1379.45703,51.4453125 1385.90234,46.4648438 1394.14453,42.8320312 C1402.38672,39.1992188 1411.85938,37.3828125 1422.5625,37.3828125 C1437.09375,37.3828125 1449.08594,40.1953125 1458.53906,45.8203125 C1467.99219,51.4453125 1474.20312,58.4570312 1477.17188,66.8554688 C1480.14062,75.2539062 1481.625,88.3203125 1481.625,106.054688 L1481.625,124.101562 Z" id="Path"></path>
            <polygon id="Path" points="1627.69531 41.3671875 1627.69531 79.3359375 1598.39844 79.3359375 1598.39844 231.09375 1549.0625 231.09375 1549.0625 79.3359375 1519.88281 79.3359375 1519.88281 41.3671875"></polygon>
            <polygon id="Path" points="1667.94531 41.3671875 1750.21094 41.3671875 1750.21094 79.3359375 1717.28125 79.3359375 1717.28125 115.3125 1748.10156 115.3125 1748.10156 151.40625 1717.28125 151.40625 1717.28125 193.125 1753.49219 193.125 1753.49219 231.09375 1667.94531 231.09375"></polygon>
            <path d="M1906.82812,231.09375 L1865.57812,231.09375 L1865.57812,144.726562 L1839.91406,231.09375 L1796.67188,231.09375 L1796.67188,41.25 L1837.92188,41.25 L1837.92188,126.914062 L1865.57812,41.25 L1906.82812,41.25 L1906.82812,231.09375 Z M1864.75781,0 L1884.67969,0 C1884.21094,10.625 1881.10547,19.1796875 1875.36328,25.6640625 C1869.62109,32.1484375 1861.63281,35.390625 1851.39844,35.390625 C1841.08594,35.390625 1833.09766,32.1289062 1827.43359,25.6054688 C1821.76953,19.0820312 1818.70312,10.546875 1818.23438,0 L1838.15625,0 C1839.09375,10.703125 1843.50781,16.0546875 1851.39844,16.0546875 C1859.36719,16.0546875 1863.82031,10.703125 1864.75781,0 Z" id="Shape"></path>
        </g>
        <rect id="Rectangle" stroke="#FFFFFF" stroke-width="15" x="7.25733333" y="7.5" width="2110" height="1941"></rect>
        <g id="Group-Copy" transform="translate(770.000000, 107.000000)">
            <mask id="mask-2" fill="white">
                <use xlink:href="#path-1"></use>
            </mask>
            <use id="Mask" fill="#FFFFFF" xlink:href="#path-1"></use>
            <g id="Group" mask="url(#mask-2)" fill-rule="nonzero">
                <g transform="translate(30.009226, 67.293562)">
                    <path d="M370.616,39.2744382 C394.831,30.4484382 418.712,20.3484382 442.701,10.8994382 C449.988,8.02843823 465.153,0.783438233 472.286,0.108438233 C479.732,-0.596561767 487.815,2.29243823 494.916,4.25343823 C494.15,6.27243823 493.505,7.69043823 492.032,9.31943823 C485.816,7.28943823 479.413,5.77543823 472.842,6.75043823 C458.899,8.81843823 431.78,21.6624382 418.12,27.2964382 C401.072,34.3284382 383.129,40.7814382 366.722,49.1564382 C361.17,51.9914382 356.361,55.7434382 352.171,60.3484382 C347.039,111.559438 343.703,163.034438 339.742,214.353438 L336.398,257.649438 C335.804,265.314438 335.548,273.214438 334.438,280.818438 C348.17,279.820438 370.584,278.392438 381.588,287.902438 C381.706,288.005438 381.812,288.121438 381.924,288.231438 C386.869,291.998438 390.709,297.253438 393.457,302.801438 C395.168,306.188438 396.504,309.553438 397.568,313.198438 C399.399,319.472438 401.52,336.982438 408.401,339.195438 C409.425,339.525438 409.492,339.369438 410.455,339.099438 C412.626,335.941438 410.109,317.134438 409.27,312.598438 C407.356,302.247438 403.268,293.214438 396.671,285.019438 C407.744,292.814438 414.095,306.460438 416.425,319.481438 C417.607,326.087438 417.879,332.736438 417.744,339.431438 L501.793,339.519438 C491.560333,329.734105 481.429667,319.844772 471.401,309.851438 L520.123,317.779438 C527.91,319.031438 536.664,319.686438 544.18,322.008438 C546.338,322.675438 548.115,323.412438 549.486,325.301438 C553.428,330.735438 554.541,339.483438 556.082,345.895438 C593.803,346.660438 631.736,347.004438 669.411,348.871438 L675.501,348.933438 C677.139,349.840438 677.33,349.909438 678.114,351.590438 C678.178,351.842438 678.24,352.095438 678.308,352.347438 C679.031,355.015438 680.708,355.882438 679.238,358.723438 C675.679,359.075438 671.789,358.757438 668.194,358.758438 L478.265,354.975438 C460.759,354.611438 443.229,353.641438 425.729,352.979438 C416.976,352.647438 408.049,351.984438 399.301,352.393438 C422.001,356.751438 445.135,358.833438 467.858,363.007438 C468.31,370.185438 468.872,377.390438 470.18,384.471438 C471.207,388.937438 472.265,393.259438 474.602,397.244438 C480.746,400.187438 488.017,400.846438 494.754,401.322438 C504.714,402.024438 514.763,401.775438 524.743,401.759438 L570.437,401.542438 L698.221,400.765438 C700.18,397.870438 700.368,388.896438 699.877,385.217438 C699.768,384.401438 699.439,383.783438 699.089,383.051438 C694.447,382.612438 689.824,382.592438 685.165,382.556438 C684.913,379.444438 679.885,371.318438 677.674,369.169438 C677.441,368.942438 677.086,368.702438 676.836,368.520438 L708.412,368.526438 C710.028,371.509438 710.021,400.092438 708.734,404.139438 C708.247,405.670438 707.168,407.856438 705.619,408.554438 C699.732,411.203438 643.609,409.945438 633.039,409.957438 C629.932,419.701438 625.985,425.413438 618.241,432.088438 C632.779,432.369438 716.689,433.689438 724.472,438.274438 C712.321,443.266438 626.345,444.174438 607.158,444.556438 C488.598667,446.996438 370.029667,447.601438 251.451,446.371438 C249.142,446.427438 246.844,446.322438 244.538,446.233438 L230.602,446.224438 C183.679333,445.924438 136.765,445.132105 89.859,443.847438 C72.1523333,443.446772 54.4543333,442.801772 36.765,441.912438 C24.493,441.266438 11.995,441.008438 0,438.147438 C14.575,435.036438 30.094,434.696438 44.957,434.282438 C38.181,428.732438 34.02,421.939438 32.317,413.300438 C29.873,400.912438 32.772,389.912438 39.627,379.532438 C39.093,376.383438 38.993,373.165438 38.808,369.980438 C33.819,371.211438 26.934,373.711438 21.884,373.166438 C21.573,371.729438 21.689,371.529438 22.211,370.135438 C23.471,368.877438 24.727,368.174438 26.413,367.628438 C35.961,364.537438 46.328,362.346438 56.047,359.508438 C95.503,347.990438 135.221,337.321438 174.609,325.587438 L177.09,324.974438 C187.326,321.645438 197.885,319.015438 208.247,316.065438 C234.411667,308.758105 260.534667,301.304772 286.616,293.705438 C287.982,283.603438 288.522,273.274438 289.412,263.107438 C290.687,248.544438 292.18,233.962438 293.13,219.375438 C293.418667,216.245438 293.679667,213.113438 293.913,209.979438 C294.291,207.152438 294.339,204.242438 294.668,201.395438 L306.692,63.7964382 C277.191,82.1494382 247.98,101.227438 218.07,118.890438 C209.782,124.203438 201.294,130.376438 192.472,134.709438 C188.979,138.509438 168.237,149.998438 162.434,153.658438 L31.665,235.036438 L31.865,234.643438 L30.632,235.503438 L30.547,235.336438 C37.212,229.888438 44.478,225.096438 51.413,219.989438 L103.245,182.342438 L243.803,80.3324382 C267.713,62.9824382 292.264,46.1694382 315.613,28.0944382 C333.978,31.0574382 352.368,35.5494382 370.616,39.2744382 Z M259.061,429.901438 C268.958,428.696438 280.168,429.658438 290.205,429.647438 C313.527667,429.728105 336.85,429.654772 360.172,429.427438 C347.473,418.804438 342.1,407.959438 339.215,391.853438 C315.87,393.829438 292.429,395.104438 269.046,396.550438 C268.516,401.738438 267.593,406.701438 265.884,411.637438 C263.719,416.978438 261.263,421.632438 257.315,425.891438 C256.559,426.706438 254.212,428.550438 254.258304,429.570438 C255.858,429.684438 257.46,429.830438 259.061,429.901438 Z M356.503,336.593438 L353.699,342.876438 L353.523,343.409438 C347.349,362.471438 347.019,388.927438 356.495,406.887438 C358.985,411.607438 363.086,416.739438 368.454,418.222438 C371.155,418.969438 373.772,418.535438 376.175,417.108438 C383.677,412.655438 387.645,401.523438 389.605,393.569438 C394.01,375.693438 393.4,350.186438 383.549,334.309438 C380.363,329.175438 376.507,325.963438 370.582,324.604438 C364.015,326.387438 360.413,329.586438 357.095,335.494438 C356.892333,335.857772 356.695,336.224105 356.503,336.593438 Z M179.428,430.678438 C174.198,422.441438 171.841,415.421438 170.345,405.914438 C170.045,404.003438 169.887,399.400438 168.434,398.403438 C167.362,398.427438 166.252,398.382438 165.195,398.560438 C147.803,400.357438 130.082,401.678438 112.785,404.160438 C113.146,415.858438 111.222,423.214438 103.471,432.182438 L117.379,431.636438 C138.068333,431.732438 158.751333,431.413105 179.428,430.678438 Z M432.873,429.689438 L574.465,430.985438 C567.546,424.841438 563.767,418.720438 560.948,409.954438 C553.921333,409.987772 546.894667,409.963438 539.868,409.881438 C506.529,410.466438 473.041,408.965438 439.733,410.410438 L425.508,410.348438 C421.294,418.121438 416.453,423.703438 409.972,429.603438 L420.123,429.569438 L432.873,429.689438 Z M48.143,420.587438 C50.398,414.491438 51.495,400.305438 48.741,394.306438 C48.418,393.602438 47.977,393.169438 47.318,392.788438 C45.072,399.532438 44.013,412.187438 46.859,418.872438 C47.149,419.554438 47.611,420.083438 48.143,420.587438 Z" id="Shape" fill="#000000" transform="translate(362.236000, 223.494895) scale(-1, 1) translate(-362.236000, -223.494895) "></path>
                    <path d="M347.630676,335.826438 C348.314676,335.777438 348.999676,335.731438 349.685676,335.751438 C352.030676,335.817438 354.086676,337.566438 355.523676,339.291438 C362.972676,348.232438 363.374676,370.517438 362.158676,381.906438 C361.193676,390.939438 359.312676,401.562438 351.873676,407.549438 C351.029676,407.644438 350.137676,407.752438 349.289676,407.666438 C347.383676,407.474438 345.272676,405.534438 344.098676,404.153438 C336.738676,395.498438 336.269676,374.064438 337.266676,362.752438 C338.080676,353.521438 340.206676,342.098438 347.630676,335.826438 Z" id="Path" fill="#000000" transform="translate(349.780338, 371.722232) scale(-1, 1) translate(-349.780338, -371.722232) "></path>
                    <path d="M639.638281,379.571438 C640.172281,379.563438 640.705281,379.586438 641.238281,379.633438 C643.578281,379.842438 645.282281,381.338438 646.659281,383.157438 C652.098281,390.340438 652.217281,403.485438 650.961281,411.974438 C650.016281,418.363438 648.234281,424.417438 642.873281,428.403438 C642.668281,428.408438 642.463281,428.419438 642.258281,428.418502 C639.964281,428.406438 638.370281,427.445438 636.844281,425.781438 C631.521281,419.981438 631.050281,407.901438 631.509281,400.491438 C631.980281,392.894438 633.695281,384.755438 639.638281,379.571438 Z" id="Path" fill="#FEFEFE" transform="translate(641.495141, 403.994188) scale(-1, 1) translate(-641.495141, -403.994188) "></path>
                    <path d="M637.448136,386.887438 C639.454136,388.312438 640.067136,390.241438 640.599136,392.546438 C642.481136,400.698438 642.602136,414.033438 638.070136,421.351438 C636.077136,419.569438 635.485136,417.507438 634.945136,414.981438 C633.262136,407.112438 632.935136,393.895438 637.448136,386.887438 Z" id="Path" fill="#000000" transform="translate(637.813068, 404.119438) scale(-1, 1) translate(-637.813068, -404.119438) "></path>
                    <path d="M660.590244,383.078438 C662.033244,383.020438 663.326244,382.938438 664.505244,383.920438 C668.930244,387.604438 669.582244,395.118438 669.968244,400.454438 C670.616244,409.410438 670.010244,420.539438 663.856244,427.598438 C662.602244,427.732438 661.699244,427.638438 660.650244,426.907438 C656.843244,424.251438 655.978244,419.021438 655.363244,414.749438 C653.894244,404.538438 654.154244,391.653438 660.590244,383.078438 Z" id="Path" fill="#FEFEFE" transform="translate(662.400122, 405.348647) scale(-1, 1) translate(-662.400122, -405.348647) "></path>
                    <path d="M659.134199,389.838438 C659.852199,390.328438 660.587199,390.947438 660.869199,391.777438 C663.305199,398.947438 663.423199,414.105438 660.015199,420.920438 C659.207199,420.263438 658.647199,419.772438 658.261199,418.777438 C655.553199,411.785438 656.051199,396.708438 659.134199,389.838438 Z" id="Path" fill="#000000" transform="translate(659.569099, 405.379438) scale(-1, 1) translate(-659.569099, -405.379438) "></path>
                    <path d="M676.134199,389.838438 C676.852199,390.328438 677.587199,390.947438 677.869199,391.777438 C680.305199,398.947438 680.423199,414.105438 677.015199,420.920438 C676.207199,420.263438 675.647199,419.772438 675.261199,418.777438 C672.553199,411.785438 673.051199,396.708438 676.134199,389.838438 Z" id="Path-Copy" fill="#000000" transform="translate(676.569099, 405.379438) scale(-1, 1) translate(-676.569099, -405.379438) "></path>
                    <path d="M678.659905,385.878438 C679.279905,386.262438 679.892905,386.653438 680.445905,387.133438 C684.391905,390.566438 685.072905,399.416438 685.223905,404.281438 C685.461905,411.959438 684.787905,421.507438 679.279905,427.341438 C678.419905,426.820438 677.592905,426.246438 676.933905,425.473438 C672.270905,420.010438 672.407905,409.102438 672.788905,402.443438 C673.124905,396.547438 674.061905,390.000438 678.659905,385.878438 Z M681.554905,420.587438 C683.809905,414.491438 684.906905,400.305438 682.152905,394.306438 C681.829905,393.602438 681.388905,393.169438 680.729905,392.788438 C678.483905,399.532438 677.424905,412.187438 680.270905,418.872438 C680.560905,419.554438 681.022905,420.083438 681.554905,420.587438 Z" id="Shape" fill="#FEFEFE" transform="translate(678.941952, 406.609938) scale(-1, 1) translate(-678.941952, -406.609938) "></path>
                    <path d="M44.0862437,145.141438 L41.6292437,69.0664382 C41.3402437,57.8824382 39.6932437,40.3784382 41.9292437,29.8004382 C42.2362437,28.3454382 42.4422437,27.6004382 43.8262437,26.8304382 C46.8112437,25.1674382 52.8162437,26.5874382 55.9492437,27.3984382 C62.1062437,28.9924382 68.1742437,31.5224382 74.1672437,33.6724382 L103.211244,44.0674382 C126.758577,52.3521049 150.246244,60.8024382 173.674244,69.4184382 C179.439244,71.3484382 185.201244,73.2534382 190.864244,75.4694382 C199.830244,78.5934382 223.018244,85.3594382 229.733244,89.9254382 C232.317244,91.6814382 234.235244,94.6194382 235.560244,97.3994382 C236.665244,99.7194382 237.367244,102.036438 237.845244,104.562438 C239.082244,111.097438 249.557244,195.730438 248.993244,198.155438 C246.665244,200.355438 235.658244,203.290438 232.056244,204.559438 C184.073244,193.331438 135.693244,183.423438 87.5522437,172.853438 C83.8462437,171.907438 80.2372437,168.887438 77.1022437,166.735438 C65.9652437,159.761438 55.0332437,152.411438 44.0862437,145.141438 Z" id="Path" fill="#000000" transform="translate(144.894622, 115.308836) scale(-1, 1) translate(-144.894622, -115.308836) "></path>
                    <path d="M262.677,71.6064382 L301.196,50.0384382 C308.087,46.1924382 315.017,41.8694382 322.161,38.5324382 L322.725,170.566438 C314.723667,170.270438 306.736667,169.750438 298.764,169.006438 C294.827,164.480438 291.2,157.226438 284.443,156.868438 C279.665,156.615438 267.2,159.477438 261.622,160.182438 C262.035,150.705438 261.573,141.089438 262.177,131.653438 C261.872,124.404438 262.175,117.048438 262.223,109.788438 C262.178,102.610438 261.791,95.1854382 262.564,88.0524382 L262.677,71.6064382 Z" id="Path" fill="#000000" transform="translate(292.173500, 104.549438) scale(-1, 1) translate(-292.173500, -104.549438) "></path>
                    <path d="M445.731,239.410438 L633.168,132.563438 L622.079,223.787438 C620.544,236.228438 619.72,249.263438 617.416,261.552438 C616.761,251.323438 617.163,240.909438 617.023,230.654438 C616.599,207.275105 616.429667,183.893772 616.515,160.510438 L508.447,213.386438 C487.782,223.535438 467.212,234.109438 446.29,243.710438 C445.209,243.121438 445.056,243.011438 444.435,241.955438 L445.731,239.410438 Z" id="Path" fill="#000000" transform="translate(538.801500, 197.057938) scale(-1, 1) translate(-538.801500, -197.057938) "></path>
                    <path d="M66.344,366.940438 L148.079,367.368438 L155.42,367.401438 L157.815,374.983438 L159.646,380.796438 C160.746,384.086438 162.273,387.622438 162.678,391.064438 L162.125,391.653438 L161.446,391.579438 C151.082,392.493438 139.965,391.726438 129.536,391.719438 L63.891,391.678438 L55.444,391.804438 C58.907,383.459438 62.714,375.217438 66.344,366.940438 Z" id="Path" fill="#000000" transform="translate(109.061000, 379.483846) scale(-1, 1) translate(-109.061000, -379.483846) "></path>
                    <path d="M342.416125,95.3854382 C350.104792,91.0354382 357.832792,86.7567716 365.600125,82.5494382 C366.429125,83.8194382 366.213125,84.5794382 366.203125,86.0724382 L366.296125,138.729438 C366.300125,146.261438 367.299125,155.342438 365.960125,162.710438 C357.334792,163.861105 348.718792,165.078438 340.112125,166.362438 C340.408125,142.723438 341.721125,119.023438 342.416125,95.3854382 Z" id="Path" fill="#000000" transform="translate(353.385063, 124.455938) scale(-1, 1) translate(-353.385063, -124.455938) "></path>
                    <path d="M38.095,218.259072 C42.916,218.231438 48.597,219.816438 53.396,220.630438 L84.385,225.801438 L161.877,238.886438 C173.802,240.885438 189.548,242.434438 200.829,245.644438 C197.425,246.107772 194.015667,246.526105 190.601,246.899438 C187.234,247.756438 184.392,253.160438 182.42,255.966438 C146.217,250.976438 110.299,243.670438 74.115,238.441438 C72.677,234.854438 70.943,231.383438 69.281,227.895438 C59.043,225.025438 47.983,222.115438 38.095,218.259072 Z" id="Path" fill="#000000" transform="translate(119.462000, 237.112755) scale(-1, 1) translate(-119.462000, -237.112755) "></path>
                    <path d="M40.426,242.987438 C48.252,243.845438 56.142,245.463438 63.923,246.724438 L108.475,253.917438 C115.347,254.962438 122.506,255.655438 129.284,257.133438 L176.171,264.519438 C182.755,265.574438 190.917,265.949438 197.123,268.258438 L185.193,269.657438 C183.594,272.793438 181.186,275.641438 179.098,278.471438 C169.844,276.930438 118.577,270.675438 115.443,269.093438 C108.399,268.671438 101.151,267.201438 94.146,266.217438 C88.236,265.119438 82.187,264.473438 76.228,263.660438 C74.686,260.173772 73.1116667,256.702105 71.505,253.245438 C61.139,249.973438 50.581,246.858438 40.426,242.987438 Z" id="Path" fill="#000000" transform="translate(118.774500, 260.729438) scale(-1, 1) translate(-118.774500, -260.729438) "></path>
                    <path d="M44.745,299.572438 L128.677,308.533438 C134.751,309.184438 153.539,310.277438 158.184,312.023438 C154.749,312.616438 151.258,313.109438 147.852,313.845438 L142.399,322.746438 C111.125,320.345438 79.742,318.523438 48.518,315.567438 C47.079,311.950438 45.653,306.455438 42.172,304.436438 C42.534,302.723438 43.834,301.071438 44.745,299.572438 Z" id="Path" fill="#000000" transform="translate(100.178000, 311.159438) scale(-1, 1) translate(-100.178000, -311.159438) "></path>
                    <path d="M154.61,274.126438 C167.477,272.332438 180.417,270.739438 193.228,268.582438 C185.654,272.557438 171.179,275.918438 162.477,278.611438 L159.962,284.276438 L157.692,289.075438 C153.379,289.547438 148.853,290.327438 144.536,290.476438 C135.145,292.260438 125.199,292.896438 115.692,294.043438 L59.436,300.844438 L53.281,291.760438 L42.173,290.485438 C47.191,288.279438 67.447,286.534438 73.841,285.656438 C94.6383333,282.805105 115.418667,279.832438 136.182,276.738438 L147.241,275.156438 L154.61,274.126438 C154.241556,274.483327 153.87537,274.842475 153.511444,275.203883 Z" id="Combined-Shape" fill="#000000"></path>
                    <path d="M22.929774,7.26543823 C62.448774,20.1404382 100.683774,36.8704382 138.524774,53.9554382 C154.288774,61.0734382 173.360774,68.2644382 187.441774,78.1364382 C191.280774,80.8274382 194.404774,84.0454382 196.509774,88.2654382 C198.657774,92.5704382 199.778774,97.5204382 200.728774,102.212438 C204.500774,120.842438 206.394774,140.073438 208.955774,158.906438 C209.400215,162.174849 213.806514,210.421576 223.11,303.456438 C223.276667,305.123105 223.526667,306.706438 223.86,308.206438 C222.985673,305.517049 222.485673,303.600382 222.36,302.456438 C212.61,213.706438 199.797774,104.898438 193.028774,89.4664382 C192.078774,87.2994382 190.635774,85.3964382 188.938774,83.7574382 C176.595774,71.8354382 43.755774,20.2114382 18.740774,12.3504382 C20.030774,10.3124382 20.773774,8.55743823 22.929774,7.26543823 Z" id="Path" fill="#000000" transform="translate(121.300387, 157.735938) scale(-1, 1) translate(-121.300387, -157.735938) "></path>
                    <path d="M43.8658707,325.802438 C43.9348707,325.673438 44.5870967,324.388912 44.5870967,324.206438 C44.5870967,321.837984 28.8370967,150.852147 28.8370967,141.956438 C29.001987,142.657222 46.3027073,301.765677 46.5870967,304.456438 C49.8370967,335.206438 49.1381885,361.347266 48.1268707,364.562438 C47.9428707,362.876438 47.0698707,360.992438 45.6768707,359.947438 C45.5828707,359.877438 45.4748707,359.827438 45.3738707,359.767438 C36.8688707,359.103438 28.3468707,359.260438 19.8438707,358.723438 C21.3138707,355.882438 19.6368707,355.015438 18.9138707,352.347438 C18.8458707,352.095438 18.7838707,351.842438 18.7198707,351.590438 C17.9358707,349.909438 17.7448707,349.840438 16.1068707,348.933438 C18.1608707,348.902438 20.3918707,349.053438 22.4188707,348.790438 C24.3388707,345.935438 24.2327917,338.434912 25.4508707,335.899438 C27.1188707,332.427438 28.3478707,329.748438 32.2388707,328.364438 C35.9528707,327.044438 40.0828707,326.944438 43.8658707,325.802438 Z" id="Path" fill="#000000" transform="translate(32.538935, 253.259438) scale(-1, 1) translate(-32.538935, -253.259438) "></path>
                    <path d="M178.786,365.886438 L217.386,365.920438 L213.717,374.782438 L212.92,376.570438 C209.591,378.689438 184.565,377.588438 178.725,377.587438 L178.786,365.886438 Z" id="Path" fill="#000000" transform="translate(198.055500, 371.880342) scale(-1, 1) translate(-198.055500, -371.880342) "></path>
                    <path d="M155.611,295.826438 C165.899,297.667438 176.428,298.479438 186.818,299.572438 C185.907,301.071438 184.607,302.723438 184.245,304.436438 C180.89,304.983438 159.662,297.672438 155.611,295.826438 Z" id="Path" fill="#191819" transform="translate(171.214500, 300.146011) scale(-1, 1) translate(-171.214500, -300.146011) "></path>
                    <path d="M222.555,4.25343823 L232.44,7.26543823 C230.284,8.55743823 229.541,10.3124382 228.251,12.3504382 C225.609,11.0794382 222.458,10.2814382 219.671,9.31943823 C221.144,7.69043823 221.789,6.27243823 222.555,4.25343823 Z" id="Path" fill="#191819" transform="translate(226.055500, 8.301938) scale(-1, 1) translate(-226.055500, -8.301938) "></path>
                </g>
            </g>
        </g>
        <g id="ВСЁ-ДЛЯ-ВАШИХ-ФУР" transform="translate(119.203125, 1758.205078)" fill="#FFFFFF" fill-rule="nonzero">
            <path d="M42.96875,18.8476562 C45.1822917,19.4010417 47.1028646,20.1497396 48.7304688,21.09375 C50.3580729,22.0377604 51.7252604,23.1282552 52.8320312,24.3652344 C53.9388021,25.6022135 54.8177083,26.8961589 55.46875,28.2470703 C56.1197917,29.5979818 56.5836589,30.9733073 56.8603516,32.3730469 C57.1370443,33.7727865 57.2753906,35.1074219 57.2753906,36.3769531 C57.2753906,38.1998698 57.1126302,39.835612 56.7871094,41.2841797 C56.4615885,42.7327474 55.9488932,44.0511068 55.2490234,45.2392578 C54.5491536,46.4274089 53.6376953,47.5016276 52.5146484,48.4619141 C51.3916016,49.4222005 50.0488281,50.2929688 48.4863281,51.0742188 C50.8951823,51.9856771 52.8320312,53.108724 54.296875,54.4433594 C55.7617188,55.7779948 56.8847656,57.2184245 57.6660156,58.7646484 C58.4472656,60.3108724 58.968099,61.9059245 59.2285156,63.5498047 C59.4889323,65.1936849 59.6191406,66.780599 59.6191406,68.3105469 C59.6191406,71.7936198 58.984375,74.8697917 57.7148438,77.5390625 C56.4453125,80.2083333 54.6549479,82.4462891 52.34375,84.2529297 C50.0325521,86.0595703 47.2249349,87.4348958 43.9208984,88.3789062 C40.616862,89.3229167 36.9466146,89.7949219 32.9101562,89.7949219 L0,89.7949219 L0,18.0175781 L35.2050781,18.0175781 C38.1347656,18.0175781 40.7226562,18.2942708 42.96875,18.8476562 Z M37.0605469,58.3984375 C35.6282552,58.203125 34.1796875,58.1054688 32.7148438,58.1054688 L14.4042969,58.1054688 L14.4042969,77.3925781 L33.1054688,77.3925781 C34.765625,77.3925781 36.2955729,77.1972656 37.6953125,76.8066406 C39.0950521,76.4160156 40.3076172,75.8219401 41.3330078,75.0244141 C42.3583984,74.226888 43.1559245,73.2177734 43.7255859,71.9970703 C44.2952474,70.7763672 44.5800781,69.3359375 44.5800781,67.6757812 C44.5800781,65.5924479 44.2382812,63.9241536 43.5546875,62.6708984 C42.8710938,61.4176432 41.9677734,60.4492188 40.8447266,59.765625 C39.7216797,59.0820312 38.4602865,58.6263021 37.0605469,58.3984375 Z M39.8925781,44.3847656 C40.8040365,43.733724 41.5364583,42.8873698 42.0898438,41.8457031 C42.6432292,40.8040365 42.9199219,39.5507812 42.9199219,38.0859375 C42.9199219,36.5559896 42.6676432,35.2945964 42.1630859,34.3017578 C41.6585286,33.3089193 40.9667969,32.5195312 40.0878906,31.9335938 C39.2089844,31.3476562 38.1835938,30.9407552 37.0117188,30.7128906 C35.8398438,30.485026 34.6028646,30.3710938 33.3007812,30.3710938 L14.4042969,30.3710938 L14.4042969,46.2890625 L32.9101562,46.2890625 C34.2122396,46.2890625 35.4654948,46.1425781 36.6699219,45.8496094 C37.874349,45.5566406 38.9485677,45.0683594 39.8925781,44.3847656 Z" id="Shape"></path>
            <path d="M143.701172,76.9042969 C145.849609,78.0436198 148.291016,78.6132812 151.025391,78.6132812 C154.182943,78.6132812 156.754557,78.125 158.740234,77.1484375 C160.725911,76.171875 162.312826,74.983724 163.500977,73.5839844 C164.689128,72.1842448 165.576172,70.719401 166.162109,69.1894531 C166.748047,67.6595052 167.203776,66.3248698 167.529297,65.1855469 L182.421875,65.1855469 C181.608073,69.6777344 180.257161,73.5758464 178.369141,76.8798828 C176.48112,80.1839193 174.186198,82.9264323 171.484375,85.1074219 C168.782552,87.2884115 165.74707,88.9160156 162.37793,89.9902344 C159.008789,91.0644531 155.419922,91.6015625 151.611328,91.6015625 C146.272786,91.6015625 141.544596,90.7145182 137.426758,88.9404297 C133.308919,87.1663411 129.842122,84.6354167 127.026367,81.3476562 C124.210612,78.0598958 122.070312,74.0966797 120.605469,69.4580078 C119.140625,64.8193359 118.408203,59.6354167 118.408203,53.90625 C118.408203,49.4791667 118.83138,45.4752604 119.677734,41.8945312 C120.524089,38.3138021 121.704102,35.1318359 123.217773,32.3486328 C124.731445,29.5654297 126.513672,27.1565755 128.564453,25.1220703 C130.615234,23.0875651 132.85319,21.4111328 135.27832,20.0927734 C137.703451,18.7744141 140.250651,17.7978516 142.919922,17.1630859 C145.589193,16.5283203 148.291016,16.2109375 151.025391,16.2109375 C154.931641,16.2109375 158.398438,16.6178385 161.425781,17.4316406 C164.453125,18.2454427 167.10612,19.3359375 169.384766,20.703125 C171.663411,22.0703125 173.608398,23.6328125 175.219727,25.390625 C176.831055,27.1484375 178.149414,28.9632161 179.174805,30.8349609 C180.200195,32.7067057 180.965169,34.5784505 181.469727,36.4501953 C181.974284,38.3219401 182.291667,40.0390625 182.421875,41.6015625 L167.431641,41.6015625 C167.236328,40.9179688 166.992188,40.1285807 166.699219,39.2333984 C166.40625,38.3382161 166.007487,37.4348958 165.50293,36.5234375 C164.998372,35.6119792 164.363607,34.7167969 163.598633,33.8378906 C162.833659,32.9589844 161.88151,32.1777344 160.742188,31.4941406 C159.602865,30.8105469 158.235677,30.2571615 156.640625,29.8339844 C155.045573,29.4108073 153.173828,29.1992188 151.025391,29.1992188 C150.113932,29.1992188 149.039714,29.313151 147.802734,29.5410156 C146.565755,29.7688802 145.296224,30.2001953 143.994141,30.8349609 C142.692057,31.4697266 141.40625,32.3567708 140.136719,33.4960938 C138.867188,34.6354167 137.736003,36.1246745 136.743164,37.9638672 C135.750326,39.8030599 134.944661,42.0247396 134.326172,44.6289062 C133.707682,47.2330729 133.398438,50.3255208 133.398438,53.90625 C133.398438,57.7799479 133.805339,61.2467448 134.619141,64.3066406 C135.432943,67.3665365 136.604818,69.9544271 138.134766,72.0703125 C139.664714,74.1861979 141.520182,75.797526 143.701172,76.9042969 Z" id="Path"></path>
            <path d="M294.042969,58.6914062 L258.837891,58.6914062 L258.837891,76.8066406 L298.828125,76.8066406 L298.828125,89.7949219 L244.433594,89.7949219 L244.433594,18.0175781 L297.119141,18.0175781 L297.119141,30.3710938 L258.837891,30.3710938 L258.837891,46.2890625 L294.042969,46.2890625 L294.042969,58.6914062 Z M266.308594,0 L266.308594,11.8164062 L253.320312,11.8164062 L253.320312,0 L266.308594,0 Z M285.9375,11.8164062 L272.949219,11.8164062 L272.949219,0 L285.9375,0 L285.9375,11.8164062 Z" id="Shape"></path>
            <path d="M490.185547,89.7949219 L444.921875,89.7949219 L444.921875,105.175781 L431.933594,105.175781 L431.933594,77.3925781 L438.232422,77.3925781 C438.98112,75.374349 439.72168,73.3072917 440.454102,71.1914062 C441.186523,69.0755208 441.878255,66.780599 442.529297,64.3066406 C443.180339,61.8326823 443.774414,59.1145833 444.311523,56.1523438 C444.848633,53.1901042 445.328776,49.8453776 445.751953,46.1181641 C446.17513,42.3909505 446.516927,38.2242839 446.777344,33.6181641 C447.03776,29.0120443 447.216797,23.811849 447.314453,18.0175781 L496.191406,18.0175781 L496.191406,77.3925781 L503.173828,77.3925781 L503.173828,105.175781 L490.185547,105.175781 L490.185547,89.7949219 Z M456.152344,68.2617188 C455.338542,71.3867188 454.361979,74.4303385 453.222656,77.3925781 L481.201172,77.3925781 L481.201172,30.3710938 L460.498047,30.3710938 C460.465495,31.6731771 460.424805,33.3333333 460.375977,35.3515625 C460.327148,37.3697917 460.221354,39.6240234 460.058594,42.1142578 C459.895833,44.6044922 459.659831,47.2900391 459.350586,50.1708984 C459.041341,53.0517578 458.626302,56.0139974 458.105469,59.0576172 C457.584635,62.101237 456.933594,65.1692708 456.152344,68.2617188 Z" id="Shape"></path>
            <path d="M570.556641,18.0175781 L620.654297,18.0175781 L620.654297,89.7949219 L605.664062,89.7949219 L605.664062,30.3710938 L584.619141,30.3710938 L584.667969,41.2109375 C584.700521,47.7539062 584.562174,53.523763 584.25293,58.5205078 C583.943685,63.5172526 583.455404,67.8629557 582.788086,71.5576172 C582.120768,75.2522786 581.274414,78.3528646 580.249023,80.859375 C579.223633,83.3658854 578.011068,85.3759766 576.611328,86.8896484 C575.211589,88.4033203 573.616536,89.4856771 571.826172,90.1367188 C570.035807,90.7877604 568.066406,91.1132812 565.917969,91.1132812 C564.160156,91.1132812 562.605794,91.007487 561.254883,90.7958984 C559.903971,90.5843099 558.561198,90.2018229 557.226562,89.6484375 L557.177734,75.9277344 C557.633464,76.155599 558.113607,76.3427734 558.618164,76.4892578 C559.122721,76.6357422 559.619141,76.7496745 560.107422,76.8310547 C560.595703,76.9124349 561.043294,76.969401 561.450195,77.0019531 C561.857096,77.0345052 562.174479,77.0507812 562.402344,77.0507812 C563.28125,77.0507812 564.10319,76.9287109 564.868164,76.6845703 C565.633138,76.4404297 566.316732,75.9114583 566.918945,75.0976562 C567.521159,74.2838542 568.05013,73.1119792 568.505859,71.5820312 C568.961589,70.0520833 569.344076,68.0175781 569.65332,65.4785156 C569.962565,62.9394531 570.19043,59.7981771 570.336914,56.0546875 C570.483398,52.3111979 570.556641,47.8352865 570.556641,42.6269531 L570.556641,18.0175781 Z" id="Path"></path>
            <path d="M699.462891,66.5039062 C698.583984,68.1315104 698.014323,70.4264323 697.753906,73.3886719 L697.265625,80.1757812 C697.135417,81.7382812 696.99707,83.0485026 696.850586,84.1064453 C696.704102,85.164388 696.549479,86.0432943 696.386719,86.7431641 C696.223958,87.4430339 696.061198,88.0289714 695.898438,88.5009766 C695.735677,88.9729818 695.589193,89.4042969 695.458984,89.7949219 L679.882812,89.7949219 C680.371094,88.8834635 680.753581,88.1022135 681.030273,87.4511719 C681.306966,86.8001302 681.534831,86.1165365 681.713867,85.4003906 C681.892904,84.6842448 682.039388,83.8541667 682.15332,82.9101562 C682.267253,81.9661458 682.405599,80.7291667 682.568359,79.1992188 L683.251953,72.4121094 C683.479818,70.328776 683.764648,68.4326172 684.106445,66.7236328 C684.448242,65.0146484 684.985352,63.4928385 685.717773,62.1582031 C686.450195,60.8235677 687.467448,59.6679688 688.769531,58.6914062 C690.071615,57.7148438 691.796875,56.8847656 693.945312,56.2011719 C693.001302,55.875651 691.984049,55.452474 690.893555,54.9316406 C689.80306,54.4108073 688.655599,53.531901 687.451172,52.2949219 C685.888672,50.7324219 684.651693,48.819987 683.740234,46.5576172 C682.828776,44.2952474 682.373047,41.813151 682.373047,39.1113281 C682.373047,37.4186198 682.552083,35.7991536 682.910156,34.2529297 C683.268229,32.7067057 683.772786,31.25 684.423828,29.8828125 C685.07487,28.515625 685.847982,27.2623698 686.743164,26.1230469 C687.638346,24.983724 688.606771,23.9746094 689.648438,23.0957031 C691.145833,21.8261719 692.781576,20.8496094 694.555664,20.1660156 C696.329753,19.4824219 698.168945,18.9778646 700.073242,18.6523438 C701.977539,18.3268229 703.930664,18.1396484 705.932617,18.0908203 C707.93457,18.0419922 709.912109,18.0175781 711.865234,18.0175781 L741.845703,18.0175781 L741.845703,89.7949219 L727.34375,89.7949219 L727.34375,61.4746094 L713.964844,61.4746094 C711.686198,61.4746094 709.611003,61.5397135 707.739258,61.6699219 C705.867513,61.8001302 704.231771,62.2314453 702.832031,62.9638672 C701.432292,63.6962891 700.309245,64.8763021 699.462891,66.5039062 Z M697.900391,36.7675781 C697.542318,37.7766927 697.363281,38.9811198 697.363281,40.3808594 C697.363281,41.9433594 697.583008,43.2535807 698.022461,44.3115234 C698.461914,45.3694661 699.047852,46.2483724 699.780273,46.9482422 C700.512695,47.648112 701.342773,48.1852214 702.270508,48.5595703 C703.198242,48.9339193 704.142253,49.202474 705.102539,49.3652344 C706.062826,49.5279948 707.006836,49.625651 707.93457,49.6582031 C708.862305,49.6907552 709.700521,49.7070312 710.449219,49.7070312 L727.34375,49.7070312 L727.34375,30.6152344 L710.449219,30.6152344 C710.253906,30.6152344 709.863281,30.6233724 709.277344,30.6396484 C708.691406,30.6559245 708.032227,30.6884766 707.299805,30.7373047 C706.567383,30.7861328 705.826823,30.859375 705.078125,30.9570312 C704.329427,31.0546875 703.694661,31.2011719 703.173828,31.3964844 C702.522786,31.656901 701.855469,32.0068359 701.171875,32.4462891 C700.488281,32.8857422 699.861654,33.4635417 699.291992,34.1796875 C698.722331,34.8958333 698.258464,35.7584635 697.900391,36.7675781 Z" id="Shape"></path>
            <path d="M927.832031,18.8476562 C930.045573,19.4010417 931.966146,20.1497396 933.59375,21.09375 C935.221354,22.0377604 936.588542,23.1282552 937.695312,24.3652344 C938.802083,25.6022135 939.68099,26.8961589 940.332031,28.2470703 C940.983073,29.5979818 941.44694,30.9733073 941.723633,32.3730469 C942.000326,33.7727865 942.138672,35.1074219 942.138672,36.3769531 C942.138672,38.1998698 941.975911,39.835612 941.650391,41.2841797 C941.32487,42.7327474 940.812174,44.0511068 940.112305,45.2392578 C939.412435,46.4274089 938.500977,47.5016276 937.37793,48.4619141 C936.254883,49.4222005 934.912109,50.2929688 933.349609,51.0742188 C935.758464,51.9856771 937.695312,53.108724 939.160156,54.4433594 C940.625,55.7779948 941.748047,57.2184245 942.529297,58.7646484 C943.310547,60.3108724 943.83138,61.9059245 944.091797,63.5498047 C944.352214,65.1936849 944.482422,66.780599 944.482422,68.3105469 C944.482422,71.7936198 943.847656,74.8697917 942.578125,77.5390625 C941.308594,80.2083333 939.518229,82.4462891 937.207031,84.2529297 C934.895833,86.0595703 932.088216,87.4348958 928.78418,88.3789062 C925.480143,89.3229167 921.809896,89.7949219 917.773438,89.7949219 L884.863281,89.7949219 L884.863281,18.0175781 L920.068359,18.0175781 C922.998047,18.0175781 925.585938,18.2942708 927.832031,18.8476562 Z M921.923828,58.3984375 C920.491536,58.203125 919.042969,58.1054688 917.578125,58.1054688 L899.267578,58.1054688 L899.267578,77.3925781 L917.96875,77.3925781 C919.628906,77.3925781 921.158854,77.1972656 922.558594,76.8066406 C923.958333,76.4160156 925.170898,75.8219401 926.196289,75.0244141 C927.22168,74.226888 928.019206,73.2177734 928.588867,71.9970703 C929.158529,70.7763672 929.443359,69.3359375 929.443359,67.6757812 C929.443359,65.5924479 929.101562,63.9241536 928.417969,62.6708984 C927.734375,61.4176432 926.831055,60.4492188 925.708008,59.765625 C924.584961,59.0820312 923.323568,58.6263021 921.923828,58.3984375 Z M924.755859,44.3847656 C925.667318,43.733724 926.39974,42.8873698 926.953125,41.8457031 C927.50651,40.8040365 927.783203,39.5507812 927.783203,38.0859375 C927.783203,36.5559896 927.530924,35.2945964 927.026367,34.3017578 C926.52181,33.3089193 925.830078,32.5195312 924.951172,31.9335938 C924.072266,31.3476562 923.046875,30.9407552 921.875,30.7128906 C920.703125,30.485026 919.466146,30.3710938 918.164062,30.3710938 L899.267578,30.3710938 L899.267578,46.2890625 L917.773438,46.2890625 C919.075521,46.2890625 920.328776,46.1425781 921.533203,45.8496094 C922.73763,45.5566406 923.811849,45.0683594 924.755859,44.3847656 Z" id="Shape"></path>
            <path d="M1069.0918,89.7949219 L1052.7832,89.7949219 L1048.19336,75 L1021.67969,75 L1016.69922,89.7949219 L1000.87891,89.7949219 L1026.5625,18.0175781 L1043.70117,18.0175781 L1069.0918,89.7949219 Z M1043.99414,62.5976562 L1035.05859,34.1796875 L1034.86328,34.1796875 L1025.68359,62.5976562 L1043.99414,62.5976562 Z" id="Shape"></path>
            <polygon id="Path" points="1208.49609 18.0175781 1208.49609 89.7949219 1128.07617 89.7949219 1128.07617 18.0175781 1141.89453 18.0175781 1141.89453 77.3925781 1161.37695 77.3925781 1161.37695 18.0175781 1175.19531 18.0175781 1175.19531 77.3925781 1194.67773 77.3925781 1194.67773 18.0175781"></polygon>
            <polygon id="Path" points="1316.25977 89.7949219 1316.25977 41.2109375 1316.06445 41.2109375 1287.69531 89.7949219 1272.46094 89.7949219 1272.46094 18.0175781 1286.86523 18.0175781 1286.86523 66.8945312 1287.06055 66.8945312 1315.47852 18.0175781 1330.66406 18.0175781 1330.66406 89.7949219"></polygon>
            <polygon id="Path" points="1453.07617 89.7949219 1434.7168 89.7949219 1421.09375 65.2832031 1406.5918 89.7949219 1389.01367 89.7949219 1412.30469 53.0761719 1390.2832 18.0175781 1408.20312 18.0175781 1421.09375 41.2109375 1434.27734 18.0175781 1451.61133 18.0175781 1429.58984 52.4902344"></polygon>
            <path d="M1616.69922,25.78125 L1616.69922,18.0175781 L1631.05469,18.0175781 L1631.05469,25.78125 C1635.25391,25.9114583 1638.94857,26.4404297 1642.13867,27.3681641 C1645.32878,28.2958984 1648.08757,29.5003255 1650.41504,30.9814453 C1652.74251,32.4625651 1654.6875,34.1389974 1656.25,36.0107422 C1657.8125,37.882487 1659.06576,39.84375 1660.00977,41.8945312 C1660.95378,43.9453125 1661.62109,46.0042318 1662.01172,48.0712891 C1662.40234,50.1383464 1662.59766,52.0833333 1662.59766,53.90625 C1662.59766,57.8125 1661.8571,61.4339193 1660.37598,64.7705078 C1658.89486,68.1070964 1656.78711,71.0123698 1654.05273,73.4863281 C1651.31836,75.9602865 1648.00618,77.9378255 1644.11621,79.4189453 C1640.22624,80.9000651 1635.8724,81.7545573 1631.05469,81.9824219 L1631.05469,89.7949219 L1616.69922,89.7949219 L1616.69922,81.9824219 C1611.88151,81.7545573 1607.52767,80.9000651 1603.6377,79.4189453 C1599.74772,77.9378255 1596.43555,75.9602865 1593.70117,73.4863281 C1590.9668,71.0123698 1588.85905,68.1070964 1587.37793,64.7705078 C1585.89681,61.4339193 1585.15625,57.8125 1585.15625,53.90625 C1585.15625,52.0833333 1585.35156,50.1383464 1585.74219,48.0712891 C1586.13281,46.0042318 1586.80013,43.9453125 1587.74414,41.8945312 C1588.68815,39.84375 1589.94141,37.882487 1591.50391,36.0107422 C1593.06641,34.1389974 1595.01953,32.4625651 1597.36328,30.9814453 C1599.70703,29.5003255 1602.46582,28.2958984 1605.63965,27.3681641 C1608.81348,26.4404297 1612.5,25.9114583 1616.69922,25.78125 Z M1610.74219,70.5566406 C1612.76042,71.2402344 1614.74609,71.5820312 1616.69922,71.5820312 L1616.69922,36.1816406 C1613.28125,36.2792969 1610.45736,36.8815104 1608.22754,37.9882812 C1605.99772,39.0950521 1604.23991,40.4785156 1602.9541,42.1386719 C1601.66829,43.7988281 1600.77311,45.6217448 1600.26855,47.6074219 C1599.764,49.593099 1599.52799,51.5299479 1599.56055,53.4179688 C1599.56055,56.7057292 1600.08952,59.4970703 1601.14746,61.7919922 C1602.2054,64.0869141 1603.55632,65.9586589 1605.2002,67.4072266 C1606.84408,68.8557943 1608.69141,69.905599 1610.74219,70.5566406 Z M1631.05469,36.1816406 L1631.05469,71.484375 C1633.00781,71.484375 1635.00163,71.1507161 1637.03613,70.4833984 C1639.07064,69.8160807 1640.90983,68.758138 1642.55371,67.3095703 C1644.19759,65.8610026 1645.5485,63.9811198 1646.60645,61.6699219 C1647.66439,59.358724 1648.19336,56.5592448 1648.19336,53.2714844 C1648.19336,51.4160156 1647.94108,49.5035807 1647.43652,47.5341797 C1646.93197,45.5647786 1646.02865,43.758138 1644.72656,42.1142578 C1643.42448,40.4703776 1641.6748,39.0950521 1639.47754,37.9882812 C1637.28027,36.8815104 1634.47266,36.2792969 1631.05469,36.1816406 Z" id="Shape"></path>
            <path d="M1736.13281,78.1738281 C1738.18359,78.1738281 1739.79492,77.5716146 1740.9668,76.3671875 C1742.13867,75.1627604 1742.95247,73.6490885 1743.4082,71.8261719 L1717.96875,18.0175781 L1734.86328,18.0175781 L1751.17188,56.5917969 L1765.47852,18.0175781 L1781.5918,18.0175781 L1758.69141,70.9960938 C1755.69661,77.9947917 1752.52279,83.1787109 1749.16992,86.5478516 C1745.81706,89.9169922 1742.07357,91.6015625 1737.93945,91.6015625 C1736.63737,91.6015625 1735.50618,91.5364583 1734.5459,91.40625 C1733.58561,91.2760417 1732.75553,91.1132812 1732.05566,90.9179688 C1731.35579,90.7226562 1730.7373,90.5273438 1730.2002,90.3320312 C1729.66309,90.1367188 1729.15039,89.9576823 1728.66211,89.7949219 L1728.66211,76.171875 C1729.60612,76.7903646 1730.69661,77.2786458 1731.93359,77.6367188 C1733.17057,77.9947917 1734.57031,78.1738281 1736.13281,78.1738281 Z" id="Path"></path>
            <path d="M1881.83594,62.3046875 C1878.90625,63.4440104 1875.58594,64.0136719 1871.875,64.0136719 L1855.46875,64.0136719 L1855.46875,89.7949219 L1840.47852,89.7949219 L1840.47852,18.0175781 L1873.0957,18.0175781 C1876.9043,18.0175781 1880.21647,18.5384115 1883.03223,19.5800781 C1885.84798,20.6217448 1888.18359,22.1354167 1890.03906,24.1210938 C1891.89453,26.1067708 1893.27799,28.515625 1894.18945,31.3476562 C1895.10091,34.1796875 1895.55664,37.4023438 1895.55664,41.015625 C1895.55664,44.3684896 1895.01953,47.4527995 1893.94531,50.2685547 C1892.87109,53.0843099 1891.31673,55.5094401 1889.28223,57.5439453 C1887.24772,59.5784505 1884.76562,61.1653646 1881.83594,62.3046875 Z M1855.46875,51.6113281 L1869.67773,51.6113281 C1873.06315,51.6113281 1875.72428,50.78125 1877.66113,49.1210938 C1879.59798,47.4609375 1880.56641,44.7591146 1880.56641,41.015625 C1880.56641,39.1276042 1880.31413,37.516276 1879.80957,36.1816406 C1879.30501,34.8470052 1878.58887,33.7483724 1877.66113,32.8857422 C1876.7334,32.023112 1875.59408,31.3883464 1874.24316,30.9814453 C1872.89225,30.5745443 1871.37044,30.3710938 1869.67773,30.3710938 L1855.46875,30.3710938 L1855.46875,51.6113281 Z" id="Shape"></path>
        </g>
    </g>
</svg>