<?xml version="1.0" encoding="UTF-8"?>
<svg width="1768px" height="673px" viewBox="0 0 1768 673" version="1.1" xmlns="http://www.w3.org/2000/svg" xmlns:xlink="http://www.w3.org/1999/xlink">
    <title>Artboard Copy 21</title>
    <g id="Artboard-Copy-21" stroke="none" stroke-width="1" fill="none" fill-rule="evenodd">
        <g id="---------" transform="translate(126.500000, 94.000000)" fill="#070707" fill-rule="nonzero">
            <path d="M46.1518019,151.488613 C69.3442435,135.985878 81.6458552,127.546014 83.0566369,126.169021 C90.8482319,118.563637 80.7352689,111.563965 75.1426445,107.947485 C30.3737524,78.7820774 6.16031804,62.3815093 2.50234136,58.7457803 C4.5411228,57.3788063 6.05473598,56.3639501 7.0431809,55.7012118 C24.0611446,44.2909082 37.0022144,35.6141042 45.8663902,29.6707999 C55.7003207,23.0772888 70.661524,13.1870222 90.75,0 C93.2900097,2.54074203 202.708043,71.1601302 206.533749,74.2639008 C234.738528,97.1461664 235.411191,141.675843 210.686895,167.081171 C205.354409,172.559418 173.625444,196.365694 115.5,238.5 C174.213371,289.216929 206.635922,318.696807 212.767653,326.939634 C229.438821,349.348838 228.489979,384.224804 209.443044,405.034472 C205.153203,409.721145 167.588855,437.876321 96.75,489.5 L0,427.75 C3.88533614,424.724585 26.7551851,409.125767 68.609547,380.953547 C74.7576677,376.970921 81.991674,374.352451 80.6766855,365.708258 C80.2264208,362.749376 66.6142627,350.464228 39.8402112,328.852815 C16.3773414,309.917157 2.71286987,281.404946 2.64864349,251.254303 L2.61064911,233.168976 C2.54165911,200.371402 18.883946,169.713586 46.1518019,151.488613 Z" id="Path"></path>
        </g>
        <g id="ТЕМНОТЕ" transform="translate(443.540039, 244.040039)" fill="#000000" fill-rule="nonzero">
            <polygon id="Path" points="0 4.51660156 145.996094 4.51660156 145.996094 25.5126953 84.9609375 25.5126953 84.9609375 183.959961 60.9130859 183.959961 60.9130859 25.5126953 0 25.5126953"></polygon>
            <polygon id="Path" points="167.724609 4.51660156 298.706055 4.51660156 298.706055 25.5126953 191.650391 25.5126953 191.650391 80.9326172 290.405273 80.9326172 290.405273 101.928711 191.650391 101.928711 191.650391 162.963867 300.415039 162.963867 300.415039 183.959961 167.724609 183.959961"></polygon>
            <polygon id="Path" points="334.472656 4.51660156 368.896484 4.51660156 419.677734 155.517578 420.166016 155.517578 470.947266 4.51660156 505.371094 4.51660156 505.371094 183.959961 482.910156 183.959961 482.910156 32.9589844 482.421875 32.9589844 431.884766 183.959961 407.958984 183.959961 357.421875 32.9589844 356.933594 32.9589844 356.933594 183.959961 334.472656 183.959961"></polygon>
            <polygon id="Path" points="542.724609 4.51660156 566.650391 4.51660156 566.650391 78.4912109 662.109375 78.4912109 662.109375 4.51660156 686.157227 4.51660156 686.157227 183.959961 662.109375 183.959961 662.109375 99.4873047 566.650391 99.4873047 566.650391 183.959961 542.724609 183.959961"></polygon>
            <path d="M889.404297,94.2382812 C889.404297,101.969401 888.631185,109.680176 887.084961,117.370605 C885.538737,125.061035 883.178711,132.385254 880.004883,139.343262 C876.831055,146.30127 872.86377,152.770996 868.103027,158.752441 C863.342285,164.733887 857.706706,169.94222 851.196289,174.377441 C844.685872,178.812663 837.341309,182.271322 829.162598,184.753418 C820.983887,187.235514 811.930339,188.476562 802.001953,188.476562 C792.073568,188.476562 782.999674,187.235514 774.780273,184.753418 C766.560872,182.271322 759.216309,178.812663 752.746582,174.377441 C746.276855,169.94222 740.641276,164.733887 735.839844,158.752441 C731.038411,152.770996 727.050781,146.30127 723.876953,139.343262 C720.703125,132.385254 718.343099,125.061035 716.796875,117.370605 C715.250651,109.680176 714.477539,101.969401 714.477539,94.2382812 C714.477539,80.3222656 716.451009,67.586263 720.397949,56.0302734 C724.344889,44.4742839 730.061849,34.5458984 737.548828,26.2451172 C745.035807,17.9443359 754.191081,11.4949544 765.014648,6.89697266 C775.838216,2.29899089 788.167318,0 802.001953,0 C815.755208,0 828.063965,2.29899089 838.928223,6.89697266 C849.79248,11.4949544 858.947754,17.9443359 866.394043,26.2451172 C873.840332,34.5458984 879.536947,44.4742839 883.483887,56.0302734 C887.430827,67.586263 889.404297,80.3222656 889.404297,94.2382812 Z M865.478516,94.2382812 C865.478516,83.577474 864.054362,73.7508138 861.206055,64.7583008 C858.357747,55.7657878 854.227702,48.034668 848.815918,41.5649414 C843.404134,35.0952148 836.751302,30.0496419 828.857422,26.4282227 C820.963542,22.8068034 812.011719,20.9960938 802.001953,20.9960938 C791.910807,20.9960938 782.918294,22.8068034 775.024414,26.4282227 C767.130534,30.0496419 760.477702,35.0952148 755.065918,41.5649414 C749.654134,48.034668 745.524089,55.7657878 742.675781,64.7583008 C739.827474,73.7508138 738.40332,83.577474 738.40332,94.2382812 C738.40332,105.143229 739.705404,115.09196 742.30957,124.084473 C744.913737,133.076986 748.860677,140.78776 754.150391,147.216797 C759.440104,153.645833 766.052246,158.630371 773.986816,162.17041 C781.921387,165.710449 791.259766,167.480469 802.001953,167.480469 C812.66276,167.480469 821.980794,165.710449 829.956055,162.17041 C837.931315,158.630371 844.543457,153.645833 849.79248,147.216797 C855.041504,140.78776 858.968099,133.076986 861.572266,124.084473 C864.176432,115.09196 865.478516,105.143229 865.478516,94.2382812 Z" id="Shape"></path>
            <polygon id="Path" points="902.709961 4.51660156 1048.70605 4.51660156 1048.70605 25.5126953 987.670898 25.5126953 987.670898 183.959961 963.623047 183.959961 963.623047 25.5126953 902.709961 25.5126953"></polygon>
            <polygon id="Path" points="1070.43457 4.51660156 1201.41602 4.51660156 1201.41602 25.5126953 1094.36035 25.5126953 1094.36035 80.9326172 1193.11523 80.9326172 1193.11523 101.928711 1094.36035 101.928711 1094.36035 162.963867 1203.125 162.963867 1203.125 183.959961 1070.43457 183.959961"></polygon>
        </g>
        <path d="M330.542067,286.505496 C381.295722,248.662859 378.179269,427.41367 330.542067,388.680618 C282.904864,349.947565 279.788412,324.348134 330.542067,286.505496 Z" id="Path-2" stroke="#000000" stroke-width="5"></path>
        <path d="M360,367 C367.949647,367 369.833994,308 361.884347,308 C353.9347,308 339.093674,321.089645 339.093674,336.01676 C339.093674,350.943875 352.050353,367 360,367 Z" id="Oval" fill="#000000"></path>
    </g>
</svg>