<?xml version="1.0" encoding="UTF-8"?>
<svg width="3522px" height="3522px" viewBox="0 0 3522 3522" version="1.1" xmlns="http://www.w3.org/2000/svg" xmlns:xlink="http://www.w3.org/1999/xlink">
    <title>Artboard Copy 17</title>
    <defs>
        <radialGradient cx="50%" cy="34.8268666%" fx="50%" fy="34.8268666%" r="100%" gradientTransform="translate(0.500000,0.348269),scale(0.699652,1.000000),rotate(90.000000),translate(-0.500000,-0.348269)" id="radialGradient-1">
            <stop stop-color="#1F1F1F" offset="0%"></stop>
            <stop stop-color="#464545" offset="100%"></stop>
        </radialGradient>
    </defs>
    <g id="Artboard-Copy-17" stroke="none" stroke-width="1" fill="none" fill-rule="evenodd">
        <g id="DRIMS" transform="translate(628.876537, 2540.000000)" fill-rule="nonzero">
            <path d="M107.123463,183.4 L195.368143,116.453826 L195.368143,292.133333 L334.505259,292.133333 C361.274369,292.133333 381.506835,277.355556 395.202659,247.8 C404.229452,228.822222 408.742848,207.355556 408.742848,183.4 C408.742848,146.688889 399.560421,118.533333 381.195567,98.9333333 C368.433549,85.5555556 352.870113,78.8666667 334.505259,78.8666667 L0,78.8666667 L107.123463,0 L345.24403,0 C395.669562,0 435.667592,21.1555556 465.23812,63.4666667 C489.828348,98.9333333 502.123463,140.777778 502.123463,189 C502.123463,240.333333 488.427639,282.955556 461.035992,316.866667 C432.088002,352.644444 393.490681,370.688889 345.24403,371 L107.123463,371 L107.123463,183.4 Z" id="Path" fill="#2E2E2E"></path>
            <path d="M573.123463,175 L661.308427,114.609225 C661.308427,134.147986 661.308427,146.125816 661.308427,150.542716 C661.308427,155.977668 661.308427,164.130096 661.308427,175 C661.308427,175 714.03277,175 819.481458,175 C836.90071,175 849.031975,166.288889 855.875253,148.866667 C858.674775,141.711111 860.074537,134.244444 860.074537,126.466667 C860.074537,107.488889 853.697846,93.6444444 840.944465,84.9333333 C834.412245,80.8888889 827.25791,78.8666667 819.481458,78.8666667 L573.123463,78.8666667 L661.308427,0 L820.414632,0 C866.140169,0 901.60079,16.6444444 926.796494,49.9333333 C944.526804,73.5777778 953.391959,100.488889 953.391959,130.666667 C953.391959,166.755556 941.260694,196.466667 916.998164,219.8 C904.244783,231.933333 889.313996,240.8 872.205801,246.4 L964.123463,371 L860.074537,371 L779.354966,253.866667 L661.308427,253.866667 L661.308427,371 L573.123463,371 L573.123463,175 Z" id="Path" stroke="#313131" stroke-width="15"></path>
            <polygon id="Path" stroke="#302F2F" stroke-width="15" points="1030.12346 0 1118.12346 0 1118.12346 371 1030.12346 371"></polygon>
            <polygon id="Path" stroke="#313131" stroke-width="15" points="1590.83428 7.31109617e-13 1679.12346 45.8280481 1679.12346 371 1590.83428 371 1590.83428 157.733333 1477.78676 358.866667 1418.46017 358.866667 1305.41264 166.133333 1305.41264 371 1217.12346 371 1217.12346 45.8280481 1305.41264 0 1448.82417 252.933333"></polygon>
            <path d="M1895.98823,224.933333 C1846.26107,224.933333 1809.27649,209.066667 1785.03449,177.333333 C1770.42714,158.355556 1763.12346,136.888889 1763.12346,112.933333 C1763.12346,80.5777778 1775.32216,53.6666667 1799.71955,32.2 C1824.11694,10.7333333 1856.2065,0 1895.98823,0 L2147.732,0 L2089.20578,78.8666667 L1896.92062,78.8666667 C1877.96213,78.8666667 1865.37495,85.8666667 1859.15905,99.8666667 C1857.29428,104.222222 1856.3619,108.577778 1856.3619,112.933333 C1856.3619,126.311111 1862.88859,136.111111 1875.94197,142.333333 C1882.15786,145.133333 1889.15075,146.533333 1896.92062,146.533333 L2024.65727,146.533333 C2072.20887,146.533333 2108.26107,161.777778 2132.81385,192.266667 C2148.35359,211.866667 2156.12346,234.111111 2156.12346,259 C2156.12346,291.355556 2144.00247,318.111111 2119.76047,339.266667 C2095.51848,360.422222 2063.81741,371 2024.65727,371 L1763.12346,371 L1828.98857,292.133333 L2023.72489,292.133333 C2042.99416,292.133333 2055.58135,285.288889 2061.48645,271.6 C2063.35122,267.555556 2064.2836,263.355556 2064.2836,259 C2064.2836,245.622222 2058.06771,235.822222 2045.63592,229.6 C2039.10923,226.488889 2031.80555,224.933333 2023.72489,224.933333 L1895.98823,224.933333 Z" id="Path" stroke="#313131" stroke-width="15"></path>
        </g>
        <polygon id="Path" fill="url(#radialGradient-1)" points="1985.21216 1371.4912 1490.52448 1673.0596 1015.00961 1193.91531 1217.13242 986.820256 2290.03036 986.820256 2513.13321 1193.91531 2154.28414 1552.82373 1641.97364 2065.21897 1758.85 2191.65614 2298.2776 1645.64014 2744.55177 1193.91531 2367.23577 813.656141 1164.69925 813.656141 775 1193.91531 1490.52448 1905.17117 1985.21216 1395.33399"></polygon>
    </g>
</svg>