<?xml version="1.0" standalone="no"?>
<!DOCTYPE svg PUBLIC "-//W3C//DTD SVG 20010904//EN"
 "http://www.w3.org/TR/2001/REC-SVG-20010904/DTD/svg10.dtd">
<svg version="1.0" xmlns="http://www.w3.org/2000/svg"
 width="1024.000000pt" height="1024.000000pt" viewBox="0 0 1024.000000 1024.000000"
 preserveAspectRatio="xMidYMid meet">
<metadata>
Created by potrace 1.16, written by Peter Selinger 2001-2019
</metadata>
<defs>
    <linearGradient id="goldGradient" x1="0%" y1="0%" x2="100%" y2="100%">
        <stop offset="0%" stop-color="#fdf4d6"/>
        <stop offset="25%" stop-color="#e9c878"/>
        <stop offset="50%" stop-color="#b68936"/>
        <stop offset="75%" stop-color="#dfbb69"/>
        <stop offset="100%" stop-color="#9d7426"/>
    </linearGradient>
</defs>
<g transform="translate(0.000000,1024.000000) scale(0.100000,-0.100000)"
fill="#D4AF37" stroke="none">
<path d="M4725 8934 c-71 -8 -133 -18 -137 -22 -4 -4 -1 -59 8 -120 23 -166
23 -164 -61 -180 -82 -14 -89 -10 -100 66 -10 76 -13 80 -89 132 l-73 49 -59
-15 c-58 -15 -246 -74 -252 -80 -2 -1 22 -83 53 -181 31 -98 95 -299 142 -448
47 -148 89 -274 93 -278 4 -4 55 6 115 23 255 71 485 101 770 101 268 0 468
-26 715 -91 63 -17 121 -32 129 -33 15 -2 24 22 162 463 119 380 137 440 130
444 -17 10 -234 76 -269 82 -35 5 -47 1 -110 -40 l-70 -47 -13 -72 c-6 -40
-16 -76 -20 -81 -7 -8 -141 9 -160 20 -3 2 2 65 12 141 10 76 15 141 11 145
-4 3 -87 14 -185 24 -148 14 -180 15 -187 4 -4 -7 -11 -73 -15 -147 l-7 -134
-137 3 -136 3 -2 25 c-1 14 -5 78 -9 143 l-6 117 -56 -1 c-32 -1 -115 -8 -187
-15z m200 -46 c2 -7 7 -70 10 -140 l7 -128 178 0 177 0 6 83 c4 45 7 108 7
140 l0 57 58 0 c52 0 233 -19 240 -25 1 -1 -5 -64 -14 -139 -10 -75 -15 -138
-12 -141 3 -4 36 -11 73 -17 l67 -11 -6 -30 c-3 -16 -6 -35 -6 -41 -1 -36 -13
-37 -181 -14 -276 37 -703 29 -956 -18 -30 -6 -32 -4 -38 33 -4 21 -7 45 -8
53 -2 10 17 18 67 27 38 7 70 14 72 16 2 1 -3 48 -11 102 -7 55 -15 118 -17
140 l-3 40 85 11 c121 16 200 17 205 2z m-651 -190 c15 -57 32 -120 37 -141 8
-29 14 -37 27 -33 33 10 107 26 124 26 12 0 19 -14 26 -47 6 -26 9 -49 7 -51
-2 -2 -59 -16 -127 -32 -67 -16 -143 -36 -167 -44 -24 -9 -49 -16 -56 -16 -6
0 -24 39 -39 88 -60 189 -87 284 -83 288 6 6 190 62 208 63 12 1 23 -24 43
-101z m1847 72 c55 -17 99 -36 99 -43 0 -7 -9 -41 -21 -77 -11 -36 -36 -116
-55 -178 -33 -104 -38 -114 -57 -109 -55 12 -340 86 -342 89 -3 3 13 99 18
104 1 1 37 -5 79 -15 l77 -18 21 81 c49 185 53 196 68 196 8 0 59 -14 113 -30z
m-181 2 c0 -6 -31 -125 -46 -174 -5 -17 -43 -25 -56 -13 -3 3 2 39 10 80 13
65 19 77 46 95 33 21 46 25 46 12z m-1590 -19 c24 -13 30 -27 40 -80 14 -71 9
-93 -18 -93 -20 0 -40 55 -58 153 -7 42 -4 44 36 20z m1094 -302 l49 -1 -6
-56 c-3 -31 -8 -58 -10 -60 -2 -3 -79 1 -171 7 l-166 12 0 53 c0 29 4 54 10
56 5 2 63 0 127 -4 65 -3 140 -7 167 -7z m-344 -45 l0 -53 -142 -8 c-79 -4
-154 -8 -168 -8 -22 -2 -25 3 -33 47 -4 27 -5 51 -2 55 8 8 131 17 253 19 l92
2 0 -54z m-388 -17 c1 -28 1 -54 -2 -58 -4 -6 -277 -61 -319 -65 -18 -1 -45
95 -30 105 5 3 76 18 157 33 81 15 152 29 157 31 28 9 33 2 37 -46z m1028 15
c74 -14 138 -29 143 -33 8 -8 -12 -111 -22 -111 -3 1 -80 15 -171 33 -137 28
-165 36 -164 50 0 9 1 35 2 57 l2 41 38 -6 c20 -4 98 -18 172 -31z m-1415
-102 l13 -51 -68 -20 c-38 -12 -73 -21 -78 -21 -6 0 -15 15 -21 33 -21 69 -22
68 59 92 41 12 76 21 78 20 2 -2 9 -26 17 -53z m1693 33 c35 -10 65 -22 68
-27 3 -4 -2 -31 -11 -59 -19 -55 -9 -53 -110 -19 -47 16 -50 20 -48 49 2 52
13 83 26 78 7 -3 41 -13 75 -22z m-799 -31 l61 -7 0 -53 0 -54 -160 0 -160 0
0 54 0 55 48 4 c89 7 149 7 211 1z m-309 -18 c0 -7 3 -34 6 -60 l7 -46 -44 0
c-24 0 -91 -7 -149 -15 -58 -8 -110 -15 -117 -15 -11 0 -38 98 -29 107 3 4
266 39 309 42 9 1 17 -5 17 -13z m570 -1 c196 -24 183 -18 175 -78 -4 -29 -9
-54 -10 -57 -2 -3 -57 2 -122 12 -65 9 -137 17 -160 17 -38 1 -43 4 -43 24 0
46 13 97 24 97 6 0 68 -7 136 -15z m390 -72 c134 -32 170 -47 169 -70 -1 -35
-27 -88 -40 -84 -224 57 -312 80 -313 83 -1 2 2 27 7 56 10 61 -9 60 177 15z
m-1324 -18 c3 -25 3 -49 0 -52 -4 -4 -64 -22 -134 -40 -198 -51 -180 -49 -192
-19 -24 65 -24 75 6 87 50 19 247 68 281 68 30 1 32 -1 39 -44z m883 -64 c22
-1 23 -4 19 -56 -3 -30 -7 -57 -9 -59 -2 -2 -71 1 -152 7 l-148 11 3 50 c3 50
4 51 38 56 19 3 78 2 130 -1 52 -4 106 -7 119 -8z m-331 -43 l-3 -53 -145 -11
c-80 -6 -146 -10 -146 -10 -1 1 -5 27 -8 58 l-7 57 48 4 c26 2 97 4 156 5
l108 2 -3 -52z m-354 20 c12 -38 13 -100 3 -103 -7 -1 -61 -11 -122 -20 -60
-10 -122 -20 -137 -23 -29 -4 -36 5 -51 69 -8 33 -7 34 143 64 135 27 159 29
164 13z m927 -13 c68 -14 127 -29 132 -34 9 -9 -7 -89 -20 -102 -5 -5 -24 -4
-44 1 -19 6 -84 18 -145 28 l-109 18 4 50 c1 27 5 52 8 57 7 12 44 8 174 -18z
m-1272 -101 c7 -26 10 -48 7 -51 -11 -11 -119 -33 -126 -26 -15 16 -32 85 -24
93 11 10 116 39 125 34 4 -2 12 -25 18 -50z m1532 40 c30 -9 57 -18 61 -20 8
-5 -26 -110 -36 -107 -3 1 -31 7 -62 14 -30 7 -57 16 -60 21 -9 15 17 108 30
108 7 0 37 -7 67 -16z"/>
<path d="M3785 8076 c-16 -7 -43 -25 -58 -40 -107 -100 -51 -276 88 -276 80 0
141 69 113 127 -18 37 -41 43 -32 9 11 -44 -4 -76 -40 -91 -102 -43 -188 80
-123 175 44 65 127 87 204 55 74 -31 113 -92 113 -177 -1 -151 -119 -237 -310
-225 -186 12 -320 90 -320 187 0 51 24 80 65 80 46 0 74 -38 56 -77 -10 -21
-16 -24 -41 -19 -30 5 -30 5 -14 -19 21 -32 98 -83 146 -95 57 -16 162 -14
194 3 26 14 24 14 -43 10 -55 -4 -87 -1 -141 16 -82 24 -103 43 -79 69 48 54
4 152 -69 152 -103 0 -146 -98 -88 -198 21 -35 23 -44 10 -39 -42 17 -156 29
-222 25 -146 -10 -261 -105 -306 -252 -19 -62 -20 -81 -13 -195 15 -226 4
-286 -53 -279 -23 2 -27 8 -27 33 0 24 5 31 23 33 19 3 21 6 11 18 -28 34 -79
0 -79 -54 0 -59 75 -90 139 -57 92 47 116 141 85 333 l-7 43 31 -29 c52 -49
97 -65 168 -60 88 5 126 37 180 147 45 93 72 121 115 121 37 0 50 -27 24 -46
-25 -19 -4 -45 22 -28 47 29 42 84 -9 105 -53 22 -105 16 -139 -17 l-30 -28
-22 27 c-22 27 -82 57 -113 57 -55 0 -114 -59 -114 -115 0 -31 41 -75 69 -75
32 0 34 18 4 32 -40 19 -44 68 -7 97 94 74 208 -84 128 -179 -54 -64 -128 -77
-205 -37 -108 56 -119 226 -20 310 76 64 208 71 386 22 219 -61 256 -67 355
-63 116 5 182 31 238 92 74 80 87 183 36 282 -39 78 -100 117 -188 121 -37 2
-73 -2 -91 -11z m-850 -742 c25 -141 23 -214 -9 -269 -15 -25 -28 -45 -30 -45
-1 0 3 27 10 60 8 42 10 89 4 157 -8 86 -4 200 6 190 2 -2 11 -44 19 -93z"/>
<path d="M6300 8077 c-49 -16 -123 -93 -138 -143 -71 -240 153 -397 463 -325
44 10 134 33 200 51 212 56 344 33 406 -70 67 -110 32 -234 -76 -275 -119 -46
-245 48 -214 158 14 51 53 82 103 82 54 0 76 -18 76 -61 0 -27 -6 -38 -30 -53
-16 -10 -27 -21 -23 -24 12 -13 40 -7 67 14 38 30 37 87 -3 127 -53 52 -116
51 -180 -4 l-40 -34 -25 25 c-14 14 -34 26 -46 26 -11 1 -26 2 -32 2 -85 6
-142 -79 -76 -114 27 -15 52 7 26 22 -48 27 2 68 55 45 29 -12 42 -29 81 -110
41 -83 53 -99 92 -122 87 -51 180 -40 257 30 42 38 42 39 22 -71 -25 -144 10
-244 99 -278 53 -21 90 -12 120 28 16 22 18 31 8 52 -14 31 -58 53 -73 38 -8
-8 -5 -13 9 -18 46 -14 34 -75 -14 -75 -45 0 -60 41 -55 155 9 220 6 297 -18
357 -28 73 -98 150 -164 183 -84 41 -186 43 -352 8 l-29 -6 27 32 c50 60 49
137 -3 184 -86 77 -212 -35 -140 -126 l20 -25 -23 -14 c-52 -34 -94 -43 -189
-43 -81 0 -93 -2 -75 -12 32 -18 146 -16 205 3 53 18 115 62 133 96 10 18 9
20 -5 15 -28 -11 -46 3 -46 37 0 39 15 56 52 56 65 0 90 -84 45 -151 -46 -68
-186 -119 -329 -119 -88 0 -129 11 -189 49 -82 51 -113 172 -70 266 22 48 44
69 94 90 109 45 227 -22 227 -129 0 -50 -21 -83 -66 -102 -70 -29 -132 12
-121 81 6 38 -6 47 -23 16 -29 -56 8 -124 74 -137 78 -14 136 15 162 81 57
149 -92 284 -256 232z m1034 -837 c-4 -83 -2 -149 4 -173 13 -46 -1 -40 -28
13 -24 47 -26 133 -5 265 8 50 15 92 16 95 0 3 5 -11 10 -30 5 -19 6 -96 3
-170z"/>
<path d="M4875 7844 c-580 -58 -1083 -258 -1531 -607 -134 -105 -381 -355
-485 -492 -238 -312 -416 -686 -509 -1068 -88 -359 -102 -779 -39 -1147 99
-573 388 -1128 802 -1542 288 -288 628 -510 1012 -661 97 -39 372 -120 445
-132 54 -9 87 -24 53 -25 -44 0 -211 -64 -344 -131 -175 -87 -240 -109 -326
-109 -112 1 -178 43 -204 130 -17 57 -4 108 41 152 35 35 42 38 93 38 45 0 61
-5 86 -26 68 -57 46 -164 -34 -164 -41 0 -65 22 -65 61 0 36 -17 38 -30 4 -17
-45 21 -100 76 -111 60 -11 134 44 134 101 0 20 1 19 56 -10 87 -46 174 -23
174 47 0 29 -31 61 -56 56 -25 -5 -28 -25 -4 -31 26 -7 26 -43 -1 -57 -37 -20
-79 -1 -148 67 -91 90 -114 103 -184 103 -66 0 -103 -16 -141 -61 -15 -17 -28
-30 -29 -28 -2 2 -8 31 -15 64 -25 126 -85 207 -261 355 -128 108 -188 140
-275 147 -55 5 -147 -5 -212 -23 -17 -5 -25 4 -47 53 -40 90 -43 111 -18 134
29 28 35 62 17 98 -37 71 -136 38 -136 -46 0 -8 16 -31 35 -50 22 -22 35 -45
35 -62 0 -14 11 -50 25 -80 14 -30 24 -56 22 -58 -5 -4 -142 113 -181 156
l-30 31 21 28 c41 55 55 95 56 155 0 56 -5 71 -74 205 -73 143 -116 197 -175
224 -22 10 -24 17 -24 82 0 39 -6 94 -14 121 -21 80 -77 206 -90 202 -33 -11
-93 -168 -103 -270 l-6 -67 -47 0 c-45 0 -49 2 -59 31 -17 50 -14 66 38 178
62 134 81 207 81 313 0 122 -63 345 -94 335 -21 -7 -95 -162 -121 -255 -24
-82 -27 -106 -24 -211 2 -66 1 -114 -3 -108 -5 7 -22 48 -39 92 -49 126 -38
260 24 300 39 25 45 57 18 84 -27 27 -37 26 -67 -5 -18 -18 -24 -32 -20 -47 6
-24 -14 -127 -25 -127 -13 0 -40 133 -33 162 3 17 37 64 78 108 138 150 186
264 194 453 2 74 0 123 -6 129 -28 28 -191 -152 -257 -285 -25 -49 -45 -94
-45 -101 0 -6 -5 -29 -12 -51 l-11 -40 -8 35 c-13 55 7 148 48 230 34 68 41
75 72 80 22 3 41 15 54 32 20 27 20 29 4 63 -20 42 -56 54 -93 31 -31 -21 -43
-52 -34 -86 5 -17 0 -35 -15 -60 -12 -19 -28 -52 -36 -72 -7 -21 -17 -38 -21
-38 -4 0 -8 41 -8 90 0 121 15 149 127 240 136 108 204 203 248 342 27 87 47
218 35 232 -13 13 -185 -110 -241 -173 -57 -62 -135 -189 -144 -232 -13 -56
-26 -30 -19 39 12 132 48 215 133 311 42 47 50 52 69 42 40 -21 92 15 92 64 0
39 -26 65 -67 65 -37 0 -64 -28 -68 -70 -1 -23 -17 -47 -55 -86 -30 -29 -56
-52 -58 -49 -6 6 27 153 44 195 17 43 32 53 141 91 107 38 150 65 235 147 66
64 140 172 154 226 6 27 6 27 -32 21 -126 -21 -235 -67 -330 -138 -32 -25 -61
-41 -62 -36 -2 5 7 31 20 57 30 62 139 138 169 119 15 -10 25 -9 47 3 33 19
40 55 16 81 -24 27 -55 20 -79 -17 -19 -30 -93 -79 -103 -69 -9 9 43 97 66
112 12 9 63 24 112 33 184 37 303 117 409 273 18 27 31 50 29 53 -10 10 -195
-17 -255 -37 -36 -12 -94 -41 -130 -65 -52 -36 -62 -40 -52 -22 27 52 68 92
139 141 106 72 178 149 227 243 43 82 87 221 73 229 -5 3 -49 -16 -100 -41
-160 -80 -265 -209 -306 -377 -16 -66 -63 -177 -75 -177 -4 0 -2 19 3 43 23
97 -13 395 -45 384 -19 -6 -107 -171 -130 -242 -29 -95 -29 -220 1 -332 12
-45 22 -92 22 -103 0 -12 -17 -60 -38 -108 l-37 -86 -7 97 c-4 54 -14 125 -23
160 -18 70 -74 197 -86 197 -12 0 -52 -81 -79 -160 -12 -36 -27 -104 -33 -151
-14 -109 3 -202 62 -349 23 -56 41 -112 41 -124 0 -23 -46 -196 -54 -204 -3
-3 -9 4 -12 14 -4 10 -16 41 -26 68 -15 40 -17 53 -7 81 35 96 -71 171 -135
94 -33 -39 -33 -69 0 -108 18 -22 35 -31 55 -31 26 0 33 -6 50 -45 35 -79 52
-181 44 -273 -3 -46 -10 -93 -14 -105 -8 -19 -10 -17 -21 23 -18 68 -77 178
-132 247 -55 70 -123 128 -138 118 -13 -8 -13 -204 1 -281 23 -134 78 -241
185 -361 78 -87 94 -122 94 -209 l0 -67 -40 57 c-28 39 -40 67 -40 91 0 65
-70 93 -112 43 -40 -46 -7 -108 57 -108 29 0 38 -6 63 -42 42 -61 82 -144 82
-169 0 -16 -11 -7 -44 37 -58 78 -125 141 -211 198 -94 62 -99 61 -92 -14 15
-143 100 -315 202 -409 25 -23 75 -61 112 -85 38 -24 76 -52 85 -62 16 -19 68
-163 68 -190 0 -8 -25 4 -61 31 -34 25 -65 45 -70 45 -5 0 -9 16 -9 35 0 72
-77 109 -133 65 -51 -40 -39 -114 23 -140 27 -11 37 -11 65 3 32 15 35 15 72
-9 95 -64 158 -145 188 -244 7 -21 2 -19 -40 18 -93 82 -203 131 -350 158 -44
8 -83 14 -87 14 -33 0 59 -147 146 -235 86 -87 147 -122 300 -175 135 -47 154
-57 180 -101 l19 -32 -123 8 c-188 11 -262 35 -353 115 -26 23 -50 40 -52 38
-9 -8 22 -97 51 -145 34 -59 105 -136 151 -164 26 -16 31 -24 23 -34 -18 -22
-108 -38 -176 -32 -35 4 -64 2 -64 -2 0 -15 59 -59 108 -82 26 -11 83 -28 127
-36 80 -15 123 -15 416 3 l96 6 47 -67 c26 -37 45 -69 43 -72 -3 -2 -33 1 -67
7 -34 6 -75 8 -90 5 -21 -5 -37 0 -58 15 -70 52 -156 -45 -97 -110 35 -39 125
-14 125 35 0 9 10 15 23 16 50 2 112 -3 119 -10 5 -4 -15 -24 -42 -44 -68 -51
-102 -105 -108 -172 -4 -48 1 -65 46 -162 27 -59 59 -140 70 -179 37 -123 94
-182 202 -210 117 -30 225 -9 452 85 54 22 119 47 146 54 l47 14 78 -42 c44
-24 75 -45 70 -48 -4 -2 -28 -7 -53 -11 -49 -7 -144 -48 -173 -74 -11 -10 -38
-17 -64 -18 -60 -2 -93 -33 -93 -86 0 -60 54 -99 115 -84 47 12 76 94 45 131
-9 11 -2 19 32 39 44 26 128 59 134 53 2 -2 -5 -21 -16 -42 -51 -101 4 -222
109 -240 80 -13 149 31 157 102 9 73 -51 129 -115 107 -31 -11 -51 -58 -33
-76 10 -10 14 -8 19 10 6 26 47 39 68 22 9 -7 15 -29 15 -51 0 -47 -27 -69
-85 -69 -95 0 -146 101 -92 181 43 64 101 75 184 34 64 -32 106 -83 178 -216
68 -126 121 -181 195 -203 30 -9 68 -16 85 -16 71 0 196 44 375 130 200 97
277 121 379 123 176 2 301 -110 289 -258 -9 -108 -95 -173 -203 -154 -90 16
-129 127 -66 190 36 35 81 39 112 8 18 -18 20 -29 15 -65 -7 -52 6 -58 29 -13
38 73 -32 151 -121 135 -77 -15 -126 -96 -104 -175 38 -143 210 -176 321 -61
99 101 86 248 -31 354 -22 20 -45 36 -50 36 -6 0 -10 5 -10 11 0 7 16 8 48 3
62 -8 114 -58 143 -134 72 -191 -77 -431 -253 -407 -41 6 -47 -3 -27 -45 25
-56 108 -84 187 -65 30 8 32 7 32 -16 0 -31 63 -157 91 -183 21 -19 21 -19 45
11 34 42 84 144 84 172 0 27 -2 26 56 12 37 -10 52 -9 89 6 50 18 85 56 85 90
0 21 -4 22 -45 17 -57 -6 -141 33 -185 86 -56 68 -74 118 -74 212 -1 76 2 91
29 139 16 29 43 64 60 76 29 21 97 39 109 28 3 -3 -16 -22 -42 -42 -94 -75
-129 -196 -87 -299 37 -91 150 -148 243 -123 124 34 172 173 88 257 -61 61
-160 52 -194 -19 -21 -43 6 -107 44 -107 3 0 0 9 -6 19 -44 84 53 149 121 82
24 -24 29 -38 29 -76 0 -40 -5 -52 -34 -81 -31 -31 -39 -34 -94 -34 -95 0
-161 57 -169 147 -11 105 36 182 143 234 57 28 76 33 142 32 104 0 166 -20
372 -117 224 -107 293 -130 390 -130 127 -1 187 45 265 199 99 197 233 293
335 240 76 -39 82 -166 10 -208 -31 -19 -91 -22 -120 -7 -27 14 -41 62 -26 91
15 32 61 38 76 10 15 -28 30 -26 30 3 0 28 -33 56 -66 56 -32 0 -80 -45 -88
-80 -8 -44 24 -103 66 -121 43 -18 110 -15 147 7 66 39 93 153 51 222 l-20 32
24 0 c37 0 152 -62 147 -80 -12 -45 -12 -74 -1 -95 27 -50 114 -57 145 -12 42
59 2 137 -69 137 -26 0 -56 11 -96 36 -61 38 -136 64 -182 64 -15 0 -28 3 -28
8 0 4 35 25 78 48 74 39 78 40 122 29 25 -7 97 -32 160 -58 193 -76 254 -92
355 -92 162 0 238 58 287 220 11 39 43 117 69 174 55 117 61 168 30 236 -17
38 -65 89 -120 127 -14 10 -23 20 -20 23 3 2 38 8 77 11 69 7 72 6 72 -14 0
-28 37 -62 68 -62 35 0 58 16 72 50 11 28 11 34 -7 58 -24 32 -85 42 -111 19
-11 -10 -50 -16 -114 -19 -54 -3 -98 -3 -98 -1 0 3 21 34 48 70 l47 65 110 -6
c61 -4 155 -9 211 -13 171 -10 318 27 402 101 12 11 22 22 22 25 0 3 -42 6
-92 6 -72 0 -101 4 -128 19 l-35 19 25 16 c55 35 139 125 168 179 30 57 55
132 47 140 -3 3 -25 -14 -51 -37 -85 -79 -218 -120 -392 -121 l-83 0 16 30
c21 41 42 53 180 100 156 54 215 88 300 174 69 70 140 171 147 211 3 18 -2 20
-42 17 -126 -8 -292 -79 -384 -163 -31 -28 -56 -46 -56 -40 0 6 12 40 26 76
20 50 40 78 90 125 88 82 113 94 152 74 61 -30 132 27 116 92 -8 31 -49 64
-80 64 -35 0 -76 -40 -79 -78 -2 -26 -11 -39 -41 -59 -21 -14 -54 -39 -71 -56
-18 -17 -35 -29 -37 -26 -7 8 44 174 62 199 10 14 47 44 83 68 160 108 248
217 294 366 31 100 44 196 25 196 -24 0 -147 -90 -213 -155 -36 -35 -80 -87
-98 -115 -18 -27 -34 -48 -36 -46 -12 12 26 108 68 172 45 69 51 74 83 74 23
0 42 7 56 22 40 44 14 108 -45 108 -41 0 -67 -31 -63 -78 1 -20 -5 -40 -18
-54 -12 -13 -31 -40 -43 -60 -13 -21 -23 -38 -24 -38 -8 0 13 181 23 200 7 14
38 52 68 85 105 113 170 238 192 368 13 71 10 270 -3 284 -12 12 -156 -142
-195 -209 -18 -31 -42 -84 -54 -119 -11 -35 -23 -71 -26 -79 -3 -8 -12 25 -20
75 -18 105 -8 207 30 302 20 51 27 58 58 64 40 8 80 50 80 82 0 22 -24 65 -44
79 -20 14 -73 8 -89 -10 -30 -33 -39 -72 -23 -104 14 -27 13 -34 -9 -91 -13
-34 -27 -71 -31 -82 -5 -14 -16 15 -37 98 l-30 118 47 125 c72 193 80 296 35
462 -22 82 -75 196 -88 188 -16 -10 -61 -117 -82 -193 -14 -49 -21 -108 -22
-168 0 -52 -4 -92 -8 -90 -12 8 -79 173 -79 194 0 12 10 59 22 104 29 112 29
238 0 332 -22 73 -111 238 -127 237 -18 0 -46 -116 -52 -212 -3 -65 0 -117 10
-165 8 -38 14 -71 13 -72 -1 -1 -18 26 -38 60 -19 34 -42 95 -51 135 -39 171
-142 301 -307 385 -52 27 -96 44 -98 38 -7 -20 29 -137 63 -208 45 -91 115
-168 233 -255 60 -44 104 -86 122 -115 17 -26 28 -48 26 -50 -2 -3 -26 12 -53
33 -61 47 -116 71 -201 89 -68 15 -182 20 -182 9 0 -4 20 -34 44 -68 98 -137
206 -204 396 -245 51 -12 102 -29 113 -38 19 -18 71 -112 65 -118 -8 -8 -108
58 -108 71 0 7 -11 21 -25 30 -23 15 -27 15 -50 0 -32 -21 -32 -49 1 -75 18
-14 31 -18 47 -12 44 17 156 -63 188 -134 30 -65 24 -77 -17 -39 -79 75 -237
148 -346 161 -58 7 -58 3 -19 -75 71 -141 194 -248 352 -307 133 -49 140 -56
165 -156 12 -46 25 -104 29 -129 7 -45 7 -45 -11 -20 -9 14 -38 48 -64 75 -32
34 -47 59 -48 80 -3 59 -70 85 -110 42 -27 -28 -28 -57 -4 -88 15 -18 28 -22
65 -21 43 2 48 -1 92 -50 78 -89 125 -215 125 -335 0 -46 -12 -41 -34 15 -36
87 -89 167 -155 232 -65 65 -184 150 -208 150 -18 0 -16 -39 7 -150 36 -179
116 -298 304 -454 88 -74 112 -147 87 -271 l-8 -40 -13 34 c-7 18 -24 54 -37
79 -17 31 -23 55 -19 74 8 38 -11 74 -45 89 -57 23 -109 -44 -78 -100 11 -20
24 -27 52 -29 37 -3 40 -6 77 -83 42 -88 56 -162 45 -236 -9 -55 -10 -52 -44
72 -14 49 -40 109 -69 155 -45 73 -188 230 -210 230 -16 0 -25 -100 -17 -178
16 -155 81 -288 201 -413 34 -36 66 -78 70 -93 10 -42 -16 -186 -34 -186 -12
0 -34 109 -27 131 4 12 0 30 -9 44 -22 33 -60 33 -82 0 -15 -23 -15 -27 0 -50
9 -14 23 -25 32 -25 20 0 42 -55 50 -123 7 -61 -8 -125 -54 -228 l-29 -64 5
121 c3 92 1 140 -12 197 -16 70 -84 226 -119 272 -15 19 -17 18 -41 -35 -42
-91 -60 -176 -60 -285 -1 -115 13 -171 80 -316 44 -97 52 -137 35 -182 -8 -21
-18 -26 -57 -29 -26 -2 -48 1 -49 7 -1 5 -8 48 -14 94 -7 60 -22 108 -47 163
-21 43 -41 78 -45 78 -12 0 -54 -85 -78 -158 -12 -34 -24 -101 -28 -150 l-6
-87 -56 -41 c-50 -36 -63 -54 -130 -179 -66 -123 -74 -146 -79 -205 -5 -68 2
-90 54 -177 l19 -32 -60 -54 c-113 -102 -136 -120 -142 -113 -3 3 1 23 10 43
9 21 22 59 28 86 6 26 15 47 20 47 20 0 49 42 49 70 0 37 -39 80 -73 80 -57 0
-91 -95 -47 -135 11 -10 20 -26 20 -36 0 -22 -49 -147 -60 -154 -4 -2 -41 3
-81 11 -169 36 -264 4 -445 -150 -162 -138 -229 -237 -249 -367 l-7 -45 -41
42 c-53 52 -101 67 -170 52 -44 -9 -63 -22 -132 -88 -84 -81 -126 -101 -164
-80 -27 14 -27 50 -1 57 26 7 21 27 -7 31 -23 3 -53 -31 -53 -61 0 -31 45 -67
85 -67 39 0 100 22 126 46 15 14 17 12 23 -20 8 -40 51 -81 95 -91 67 -15 134
46 114 104 -12 36 -33 38 -33 4 0 -46 -20 -65 -64 -61 -80 6 -99 99 -33 160
24 23 38 28 79 28 96 0 155 -65 146 -161 -10 -97 -89 -158 -204 -159 -85 0
-169 28 -358 121 -88 43 -199 89 -246 103 -92 26 -92 27 25 51 279 59 624 200
882 361 535 334 933 807 1168 1389 224 555 264 1173 114 1769 -92 365 -299
775 -546 1081 -111 137 -344 362 -486 468 -395 296 -779 458 -1296 548 -91 16
-172 21 -376 24 -143 2 -278 1 -300 -1z m598 -55 c86 -10 210 -31 275 -45 181
-41 448 -136 619 -220 157 -78 435 -255 533 -339 146 -126 223 -200 326 -318
370 -420 609 -944 679 -1487 72 -560 -21 -1107 -277 -1621 -193 -390 -443
-697 -798 -980 -189 -151 -546 -346 -795 -435 -330 -117 -618 -161 -993 -151
-435 11 -809 108 -1192 309 -565 295 -1010 761 -1275 1335 -129 280 -202 543
-245 880 -16 125 -13 480 5 628 81 652 365 1224 835 1681 477 464 1124 745
1805 783 166 10 300 4 498 -20z m-2848 -680 c-26 -74 -77 -157 -130 -216 -51
-57 -115 -103 -115 -85 0 5 29 51 65 101 36 51 65 95 65 99 0 11 -80 -71 -123
-127 -23 -29 -43 -48 -45 -42 -9 26 59 144 115 200 57 57 159 124 174 115 5
-2 1 -23 -6 -45z m5069 6 c102 -65 191 -183 211 -280 l6 -30 -23 30 c-54 69
-140 165 -149 165 -5 0 15 -33 44 -72 70 -96 90 -129 83 -135 -14 -14 -144
113 -191 187 -23 36 -75 159 -75 176 0 10 44 -9 94 -41z m434 -217 c43 -84 66
-194 58 -280 -11 -123 -21 -119 -39 18 -9 70 -21 132 -28 138 -8 8 -10 6 -6
-9 3 -11 8 -74 11 -140 l6 -120 -20 40 c-36 74 -53 179 -47 289 5 101 13 140
26 131 4 -2 22 -32 39 -67z m-5953 -93 c0 -88 -5 -138 -19 -188 -31 -109 -40
-95 -33 48 3 72 2 124 -3 119 -4 -5 -16 -58 -24 -118 -9 -61 -19 -112 -21
-114 -12 -12 -17 38 -13 131 4 103 29 186 74 255 16 24 17 24 28 6 6 -11 11
-68 11 -139z m5568 -126 c97 -25 217 -96 266 -158 l30 -37 -118 59 c-140 71
-181 73 -54 2 103 -57 165 -96 160 -101 -8 -9 -128 29 -194 61 -69 34 -178
128 -204 176 -9 18 -7 19 33 13 24 -3 60 -10 81 -15z m-5133 2 c0 -20 -127
-134 -184 -166 -62 -34 -167 -70 -188 -63 -9 3 193 129 227 142 6 2 7 6 3 10
-3 4 -55 -16 -115 -45 -59 -29 -117 -57 -128 -61 -44 -19 82 93 139 123 95 51
246 88 246 60z m5801 -208 c48 -134 46 -300 -5 -434 l-23 -61 5 135 c5 148 -6
276 -19 222 -3 -16 -8 -84 -9 -150 -1 -66 -5 -131 -9 -145 -6 -23 -8 -21 -18
20 -44 177 -38 325 19 460 22 52 26 49 59 -47z m-6508 0 c36 -109 42 -198 23
-308 -28 -157 -32 -162 -39 -50 -4 55 -7 127 -8 160 0 33 -4 69 -8 80 -14 33
-23 -74 -19 -222 2 -73 0 -129 -3 -125 -14 15 -39 111 -48 177 -10 86 -6 146
20 249 21 84 34 116 48 116 5 0 20 -35 34 -77z m6127 -163 c0 -5 -4 -10 -10
-10 -5 0 -10 5 -10 10 0 6 5 10 10 10 6 0 10 -4 10 -10z m-64 -116 c44 -14 99
-37 124 -51 56 -33 148 -126 178 -181 l23 -42 -78 58 c-89 67 -183 125 -190
119 -2 -3 42 -41 99 -85 57 -44 111 -89 122 -100 l18 -21 -52 20 c-129 49
-208 109 -280 211 -43 61 -60 98 -46 98 2 0 39 -12 82 -26z m-5633 -36 c-44
-84 -138 -170 -238 -218 -47 -23 -90 -40 -96 -38 -6 2 18 26 53 53 99 77 169
137 164 142 -5 6 -201 -121 -210 -136 -4 -6 -17 -16 -28 -22 -21 -11 -21 -10
3 30 36 61 127 150 184 179 64 32 143 60 173 61 l23 1 -28 -52z m-622 -268
c37 -20 15 -87 -27 -78 -9 2 -23 13 -31 25 -13 19 -12 24 6 42 24 24 26 24 52
11z m6873 -6 c19 -18 20 -28 6 -55 -20 -37 -80 -18 -80 26 0 42 44 59 74 29z
m-6524 -158 c0 -29 -28 -42 -48 -22 -13 12 -13 18 -2 30 20 25 50 20 50 -8z
m6177 8 c9 -23 -25 -48 -44 -33 -7 6 -13 20 -13 30 0 24 48 26 57 3z m-6627
-191 c26 -40 58 -97 69 -128 24 -64 44 -179 39 -227 -3 -29 -9 -18 -52 87 -58
141 -86 199 -92 192 -4 -4 79 -261 100 -309 17 -39 -13 -15 -53 42 -82 116
-121 245 -121 396 l0 78 31 -30 c17 -16 52 -61 79 -101z m7133 22 c-9 -149
-70 -312 -150 -400 -21 -24 -33 -32 -29 -20 45 124 106 318 102 322 -3 3 -11
-10 -19 -28 -8 -19 -35 -83 -61 -144 -26 -60 -51 -119 -56 -130 -15 -33 -12
81 5 158 23 110 84 224 169 315 31 33 31 33 37 10 3 -13 4 -50 2 -83z m-6588
-40 c-27 -121 -95 -246 -178 -328 -39 -37 -79 -73 -90 -79 -23 -12 -25 -16 53
102 93 141 123 191 118 196 -6 5 -154 -182 -197 -250 -37 -59 -38 -52 -10 40
33 109 87 202 159 275 66 67 149 133 158 125 2 -3 -3 -39 -13 -81z m5966 57
c148 -112 229 -226 279 -390 24 -79 22 -100 -6 -55 -40 66 -175 248 -202 273
-18 17 18 -46 76 -133 37 -56 79 -120 92 -142 l24 -40 -29 22 c-140 99 -220
218 -265 392 -30 114 -28 118 31 73z m-6153 -615 c3 -23 0 -27 -22 -27 -28 0
-37 17 -24 43 14 27 42 17 46 -16z m6346 27 c21 -8 21 -50 0 -58 -20 -8 -44
10 -44 34 0 28 14 36 44 24z m330 0 c21 -8 21 -43 0 -51 -8 -3 -23 1 -31 10
-13 13 -14 19 -3 31 14 18 13 18 34 10z m-7014 -29 c0 -18 -5 -25 -19 -25 -11
0 -21 6 -24 13 -7 20 4 37 24 37 14 0 19 -7 19 -25z m500 -47 c0 -119 -43
-253 -113 -351 -41 -57 -87 -107 -87 -95 0 3 29 72 65 153 36 82 65 150 65
152 0 1 -4 3 -10 3 -5 0 -44 -69 -86 -152 l-77 -153 6 77 c8 91 32 156 93 252
45 69 120 156 136 156 4 0 8 -19 8 -42z m6131 -117 c58 -87 88 -176 94 -281 3
-41 3 -70 0 -65 -3 6 -18 39 -33 75 -40 96 -125 255 -130 242 -2 -6 23 -71 56
-144 80 -179 80 -181 17 -115 -84 88 -134 207 -151 354 -10 97 -2 105 53 52
25 -24 67 -77 94 -118z m-6663 -6 c42 -40 91 -97 109 -127 30 -50 77 -158 69
-158 -2 0 -50 52 -106 115 -57 64 -105 114 -107 111 -3 -3 17 -34 44 -71 115
-158 143 -198 139 -203 -8 -8 -91 55 -138 106 -67 71 -148 243 -148 314 0 17
2 18 31 3 17 -9 65 -49 107 -90z m7157 -21 c-55 -146 -139 -253 -247 -314 -48
-27 -46 -23 37 85 100 131 137 185 128 185 -5 0 -54 -52 -107 -115 -54 -63
-100 -115 -102 -115 -9 0 49 138 73 175 39 59 141 164 193 197 l45 29 3 -29
c2 -16 -9 -60 -23 -98z m-645 -496 c44 -115 53 -168 48 -292 -5 -108 -20 -179
-31 -146 -3 8 -16 84 -28 168 -13 83 -27 152 -32 152 -4 0 -5 -21 -2 -47 13
-119 25 -245 25 -270 0 -26 -1 -27 -14 -8 -7 11 -25 53 -40 94 -46 128 -46
256 2 409 14 48 18 52 29 36 7 -10 27 -53 43 -96z m-5890 -4 c33 -128 25 -241
-27 -371 -27 -68 -44 -82 -37 -30 24 182 30 304 15 277 -10 -18 -51 -243 -51
-283 0 -47 -18 -29 -31 31 -14 71 -6 226 16 301 9 30 30 84 47 120 35 76 38
74 68 -45z m6030 46 c0 -19 -11 -26 -23 -14 -8 8 3 34 14 34 5 0 9 -9 9 -20z
m-6230 1 c0 -17 -18 -21 -24 -6 -3 9 0 15 9 15 8 0 15 -4 15 -9z m-336 -17
c31 -30 13 -67 -30 -62 -21 2 -30 9 -32 26 -7 44 32 67 62 36z m6922 8 c21
-14 23 -41 5 -64 -16 -20 -22 -21 -45 -10 -18 8 -26 19 -26 36 0 34 39 57 66
38z m94 -233 c0 -19 -64 -103 -120 -157 -30 -30 -82 -69 -116 -88 -61 -34
-224 -98 -231 -90 -2 2 34 30 82 62 188 129 226 156 221 162 -7 6 -148 -75
-233 -134 -35 -24 -63 -39 -63 -35 0 18 82 112 132 151 77 61 134 92 217 117
86 25 111 28 111 12z m-7055 -13 c84 -22 158 -63 236 -130 66 -56 137 -144 98
-121 -8 5 -48 30 -90 56 -91 57 -179 102 -186 96 -4 -5 33 -32 225 -160 39
-27 72 -51 72 -54 0 -17 -166 48 -240 95 -85 53 -210 184 -210 221 0 15 34 14
95 -3z m765 -286 c12 -36 25 -100 27 -143 l6 -77 -24 8 c-21 8 -25 17 -29 70
-7 81 -16 86 -24 12 -6 -55 -9 -60 -31 -60 -22 0 -25 5 -25 34 0 79 52 248 71
229 4 -4 17 -37 29 -73z m5500 -18 c11 -35 20 -88 20 -117 0 -46 -3 -53 -22
-58 -12 -4 -24 -5 -26 -3 -2 2 -6 29 -9 61 -7 68 -23 54 -23 -21 0 -44 -3 -53
-21 -57 -13 -4 -22 0 -26 10 -10 26 14 175 38 232 21 49 24 52 36 35 8 -10 23
-47 33 -82z m641 -151 c-22 -40 -99 -107 -158 -139 -35 -18 -63 -37 -63 -42 0
-13 68 -52 133 -75 l60 -22 -67 -18 c-59 -16 -86 -17 -249 -9 -360 18 -482 9
-581 -41 -46 -23 -48 -24 -30 -3 22 24 129 78 159 79 11 0 29 5 40 10 24 11
-89 5 -119 -7 -14 -5 -17 -4 -11 5 10 18 105 61 133 61 12 0 22 5 22 10 0 13
-16 13 -80 -4 -30 -8 -57 -13 -59 -10 -7 7 124 64 162 70 20 4 37 10 37 15 0
14 -43 10 -104 -10 -81 -27 -53 0 34 33 88 32 198 46 375 46 144 0 271 21 333
55 36 19 45 19 33 -4z m-6774 -17 c71 -25 98 -28 311 -35 211 -8 240 -11 310
-35 42 -14 82 -30 87 -36 7 -8 4 -9 -10 -4 -39 15 -129 20 -121 8 4 -7 16 -12
26 -12 30 0 127 -39 142 -57 11 -15 11 -16 -5 -10 -37 14 -97 20 -97 10 0 -6
16 -13 36 -16 34 -6 130 -55 122 -63 -2 -2 -21 1 -41 7 -21 6 -54 9 -75 7 -41
-4 -32 -9 43 -27 46 -11 141 -58 133 -66 -2 -2 -37 8 -78 23 -68 23 -89 26
-230 26 -85 0 -221 -3 -301 -8 -107 -7 -163 -6 -212 4 -75 14 -92 26 -50 36
41 10 115 49 135 71 16 18 15 20 -38 47 -58 31 -147 105 -165 137 -12 24 -14
24 78 -7z m681 -330 c24 -7 30 -45 12 -74 -8 -12 -11 -12 -27 2 -10 9 -26 30
-36 47 -18 31 -18 31 5 31 13 0 33 -3 46 -6z m5390 -12 c-44 -60 -63 -82 -69
-82 -4 0 -10 19 -14 41 -8 49 1 59 58 59 35 0 37 -2 25 -18z m-119 -63 c17
-73 14 -81 -70 -173 l-63 -69 -22 27 c-23 26 -44 84 -44 121 0 11 11 -2 24
-31 28 -61 55 -85 32 -29 -20 46 -20 112 -1 145 14 25 14 25 15 -16 0 -22 6
-48 13 -58 11 -15 12 -12 9 23 -5 48 4 91 18 91 6 0 10 -10 10 -22 0 -13 5
-30 10 -38 7 -11 10 -7 10 18 0 39 15 72 33 72 8 0 19 -26 26 -61z m-5165 -3
c0 -42 1 -46 13 -30 7 10 13 26 13 35 0 10 4 21 10 24 14 8 23 -39 17 -86 -3
-21 -2 -39 3 -39 10 0 20 36 20 75 1 29 1 29 15 11 18 -23 19 -76 4 -129 -15
-54 -2 -60 18 -9 20 52 35 55 21 5 -12 -45 -36 -83 -52 -83 -11 0 -86 80 -135
143 -13 16 -10 43 15 125 2 8 12 12 21 10 14 -3 18 -14 17 -52z m-376 -82 c3
-23 -18 -37 -43 -28 -16 6 -20 35 -8 48 14 14 48 1 51 -20z m5925 7 c6 -23
-10 -41 -35 -41 -21 0 -33 22 -24 45 8 22 53 19 59 -4z m-5582 -108 c38 -36
69 -72 69 -79 0 -8 -22 -25 -48 -38 -61 -31 -118 -93 -132 -145 -13 -50 -30
-53 -30 -7 0 44 15 85 42 113 34 36 14 37 -21 1 -17 -18 -37 -50 -43 -71 -11
-36 -13 -37 -20 -17 -10 28 4 80 32 120 12 16 17 30 11 30 -18 0 -62 -67 -68
-104 -8 -52 -23 -44 -23 13 0 39 7 59 34 100 19 28 31 51 26 51 -14 0 -80 -82
-80 -99 0 -13 -2 -14 -9 -2 -29 46 105 198 177 201 8 0 45 -30 83 -67z m5344
29 c50 -35 94 -97 102 -145 7 -46 -9 -49 -25 -4 -12 33 -72 100 -72 80 0 -6 7
-17 17 -24 25 -21 43 -73 43 -123 0 -57 -16 -68 -23 -15 -5 35 -53 117 -63
107 -2 -2 8 -26 21 -53 25 -49 32 -99 16 -123 -6 -9 -10 -1 -14 25 -7 39 -50
113 -67 113 -5 0 2 -16 15 -36 23 -33 28 -51 28 -99 0 -51 -18 -47 -32 8 -12
49 -83 124 -145 154 -20 9 -36 22 -36 29 0 6 32 42 71 79 80 75 91 77 164 27z
m-445 -35 c0 -22 -17 -39 -36 -35 -22 4 -32 47 -13 59 16 9 49 -7 49 -24z
m-4562 -4 c-3 -31 -34 -44 -44 -19 -9 24 3 46 26 46 17 0 21 -5 18 -27z m-125
-201 c48 -41 87 -78 87 -82 0 -25 -258 -60 -334 -46 -31 6 -36 11 -36 36 0 40
13 71 45 102 34 34 124 80 139 71 6 -4 50 -40 99 -81z m4954 43 c52 -35 74
-64 87 -118 12 -48 -5 -57 -109 -57 -86 0 -238 28 -256 48 -4 4 34 44 85 89
104 94 107 94 193 38z m-4468 -125 c7 -4 -19 -10 -58 -13 -118 -10 -122 -26
-6 -27 125 -2 166 -14 78 -24 -89 -10 -89 -26 -1 -27 40 0 82 -4 93 -8 22 -9
16 -10 -77 -26 -65 -10 -49 -20 35 -20 47 0 91 -6 102 -13 17 -10 14 -11 -20
-6 -66 9 -230 -30 -382 -90 -232 -91 -261 -98 -366 -94 -63 2 -104 9 -129 22
-37 18 -55 45 -20 31 42 -18 115 -26 155 -17 l42 10 -35 1 c-89 3 -208 51
-231 92 -10 20 -10 20 28 0 45 -22 126 -37 144 -25 8 5 -14 14 -59 25 -69 17
-121 44 -122 63 0 4 10 5 23 1 44 -14 108 -22 113 -14 2 4 -11 11 -29 14 -41
8 -137 61 -137 76 0 7 7 8 18 4 9 -5 46 -14 82 -22 93 -21 189 -11 365 38 83
23 177 48 210 54 58 12 156 10 184 -5z m4132 -34 c84 -25 183 -50 219 -56 78
-14 185 -6 252 20 55 21 61 13 19 -22 -29 -25 -57 -38 -121 -56 l-35 -10 38
-1 c21 -1 54 6 74 14 47 20 56 10 18 -21 -31 -26 -112 -54 -152 -54 -14 0 -22
-4 -18 -10 9 -15 89 -3 144 21 58 25 60 24 27 -10 -40 -42 -117 -72 -187 -74
-33 -1 -59 -5 -59 -9 0 -14 140 -8 177 7 50 21 53 12 5 -20 -91 -60 -216 -51
-432 32 -245 94 -389 130 -461 117 -28 -6 -32 -4 -21 7 8 9 38 14 92 14 95 0
91 15 -7 25 -67 6 -68 7 -38 20 17 7 63 13 102 14 53 0 68 3 55 10 -9 6 -43
10 -74 11 -31 0 -53 4 -49 8 14 14 134 28 190 22 44 -5 52 -4 38 5 -10 7 -52
14 -93 17 -41 3 -73 8 -71 10 12 11 100 21 153 17 33 -2 130 -24 215 -48z
m-3860 -208 c31 -14 66 -36 79 -49 31 -33 77 -134 85 -189 l7 -45 -41 56 c-45
63 -94 98 -255 184 -124 66 -125 78 -6 72 54 -2 92 -11 131 -29z m3473 23 c3
-5 -53 -39 -125 -77 -137 -72 -202 -121 -251 -188 -32 -45 -32 -45 -17 26 28
131 100 210 216 237 50 12 170 13 177 2z m-3904 -270 c15 -30 12 -49 -10 -61
-43 -23 -83 17 -60 60 14 26 56 26 70 1z m4168 7 c19 -19 14 -56 -9 -68 -16
-9 -26 -8 -45 5 -28 18 -31 37 -8 59 18 19 45 21 62 4z m-2073 -134 c-19 -25
-35 -50 -35 -55 0 -17 -19 -9 -25 12 -4 11 -20 36 -37 55 l-30 34 81 0 81 0
-35 -46z m56 -451 c45 -43 118 -82 154 -83 20 -1 20 -1 1 -15 -41 -31 -116
-13 -165 39 -33 35 -55 35 -47 -1 20 -80 18 -137 -6 -182 -13 -25 -29 -46 -35
-48 -7 -3 -24 19 -39 48 -27 53 -29 98 -8 182 9 39 -10 35 -62 -13 -38 -35
-49 -40 -93 -40 -31 0 -53 5 -61 15 -10 12 -9 15 6 15 36 0 122 48 163 90 22
23 52 66 67 96 l26 54 28 -57 c15 -32 47 -77 71 -100z"/>
<path d="M5103 7723 c-41 -8 -27 -33 17 -33 28 0 40 4 40 14 0 11 -26 30 -33
25 -1 -1 -12 -4 -24 -6z"/>
<path d="M4832 7709 c-25 -10 -25 -32 0 -37 8 -2 28 2 44 8 28 11 28 12 10 26
-23 16 -23 16 -54 3z"/>
<path d="M4952 7703 c3 -14 12 -17 38 -15 40 4 44 7 35 21 -3 6 -22 11 -41 11
-28 0 -35 -3 -32 -17z"/>
<path d="M5215 7710 c-7 -12 43 -33 62 -26 7 3 13 12 13 21 0 17 -65 22 -75 5z"/>
<path d="M5351 7707 c-14 -17 -8 -22 36 -31 19 -5 34 -3 38 4 16 26 -53 51
-74 27z"/>
<path d="M4698 7693 c-10 -2 -18 -11 -18 -19 0 -11 10 -14 38 -12 25 2 37 8
37 18 0 15 -27 22 -57 13z"/>
<path d="M5485 7690 c-11 -18 5 -30 41 -30 38 0 45 14 15 30 -25 13 -48 13
-56 0z"/>
<path d="M4573 7670 c-27 -11 -30 -28 -7 -37 21 -8 67 14 61 30 -5 16 -26 18
-54 7z"/>
<path d="M5615 7670 c-9 -15 3 -26 37 -34 28 -6 47 9 32 24 -16 16 -62 22 -69
10z"/>
<path d="M4434 7636 c-27 -21 -7 -38 31 -28 38 10 47 42 13 42 -13 0 -33 -6
-44 -14z"/>
<path d="M5744 7639 c-8 -14 4 -25 38 -33 27 -6 48 9 32 24 -16 14 -63 20 -70
9z"/>
<path d="M4950 7610 c-302 -20 -584 -87 -865 -208 -428 -184 -787 -467 -1060
-837 -356 -480 -531 -1033 -512 -1615 7 -215 26 -363 71 -545 122 -494 358
-909 717 -1260 258 -252 507 -420 822 -554 336 -142 642 -205 997 -205 482 1
903 119 1321 370 444 267 781 629 1009 1085 375 748 373 1612 -6 2356 -246
484 -659 895 -1140 1136 -321 161 -666 254 -1025 276 -90 6 -175 10 -189 9
-14 0 -77 -4 -140 -8z m570 -64 c799 -138 1446 -588 1844 -1284 279 -489 384
-1088 290 -1662 -55 -339 -179 -665 -362 -954 -270 -426 -619 -738 -1077 -962
-381 -186 -733 -262 -1155 -251 -291 8 -494 45 -768 138 -487 167 -996 556
-1279 979 -253 379 -387 740 -444 1195 -16 128 -13 447 6 590 66 506 266 956
591 1335 405 472 926 766 1540 869 172 29 175 29 459 26 183 -2 288 -8 355
-19z"/>
<path d="M4765 7389 c-44 -10 -92 -18 -107 -18 -28 -1 -41 -21 -14 -21 18 0
22 -12 41 -137 18 -125 19 -180 3 -186 -7 -2 -10 -8 -6 -12 3 -3 56 1 117 10
l110 17 7 45 c7 51 -1 68 -15 30 -13 -33 -45 -53 -97 -62 -40 -6 -41 -5 -48
26 -3 17 -6 49 -6 69 0 37 1 38 41 45 30 5 44 3 50 -6 14 -23 22 -2 14 38 -6
34 -8 36 -20 20 -12 -16 -95 -38 -95 -25 0 2 -5 31 -11 63 -13 69 -7 75 63 75
34 0 50 -5 57 -17 8 -15 10 -11 11 19 0 20 -3 38 -7 40 -5 2 -44 -4 -88 -13z"/>
<path d="M5267 7396 c-74 -28 -117 -90 -117 -170 0 -61 19 -104 63 -143 65
-57 149 -65 227 -22 118 66 119 252 2 317 -52 29 -125 37 -175 18z m133 -34
c61 -30 85 -112 60 -204 -12 -42 -56 -83 -99 -93 -46 -10 -114 24 -134 68 -21
43 -22 126 -3 172 17 40 68 75 111 75 17 0 46 -8 65 -18z"/>
<path d="M5660 7351 c0 -4 4 -11 10 -17 10 -10 -11 -114 -51 -246 -17 -57 -23
-68 -41 -68 -34 0 -9 -16 44 -29 62 -15 78 -14 55 3 -17 13 -17 20 -7 74 16
82 18 83 68 70 31 -8 42 -15 42 -29 0 -26 17 -24 23 4 3 12 9 33 13 47 7 22 6
24 -9 11 -12 -9 -30 -11 -62 -7 -25 4 -45 9 -45 12 0 3 7 33 16 68 l16 64 48
-13 c60 -16 70 -22 70 -43 0 -23 17 -3 25 31 6 23 4 27 -13 27 -11 0 -61 11
-111 24 -50 13 -91 20 -91 17z"/>
<path d="M4404 7311 c-63 -29 -80 -94 -37 -143 8 -9 45 -29 81 -44 84 -35 102
-50 102 -85 0 -33 -32 -59 -71 -59 -26 0 -59 27 -59 48 0 7 -4 12 -10 12 -13
0 -13 -46 0 -71 8 -14 21 -19 51 -19 88 0 147 50 136 116 -8 49 -29 70 -94 94
-114 42 -139 69 -104 111 21 26 79 29 93 5 15 -27 28 -8 16 24 -12 36 -42 39
-104 11z"/>
<path d="M4155 7218 c-38 -20 -39 -22 -16 -28 19 -4 34 -28 72 -110 27 -58 49
-117 49 -132 0 -17 -12 -41 -29 -60 -24 -27 -36 -33 -70 -32 -22 1 -48 7 -57
15 -9 7 -40 62 -70 122 -44 87 -53 112 -43 123 20 24 6 23 -48 -3 -51 -25 -73
-51 -33 -38 16 5 26 -9 69 -98 74 -154 124 -188 220 -146 105 45 116 116 42
271 -44 93 -47 108 -29 126 20 20 -12 14 -57 -10z"/>
<path d="M6122 7182 c8 -20 7 -77 -4 -202 -8 -96 -13 -178 -11 -183 3 -4 41
21 86 56 194 150 220 168 239 164 38 -10 25 11 -22 36 -49 27 -50 27 -47 5 1
-16 -21 -40 -96 -101 -53 -44 -100 -78 -103 -75 -3 3 2 59 10 124 9 65 16 122
16 126 0 4 7 8 15 8 27 0 16 15 -34 43 -27 15 -51 27 -54 27 -3 0 -1 -13 5
-28z"/>
<path d="M3680 6944 c-78 -34 -120 -96 -120 -177 0 -188 249 -258 352 -98 26
41 29 53 26 107 -8 140 -134 222 -258 168z m108 -38 c65 -34 102 -96 102 -173
0 -38 -5 -50 -34 -79 -28 -28 -42 -34 -75 -34 -152 0 -237 217 -112 285 34 18
85 19 119 1z"/>
<path d="M4925 6913 c-125 -15 -291 -51 -405 -89 -594 -198 -1052 -655 -1240
-1239 -98 -307 -116 -653 -50 -974 81 -386 318 -787 622 -1051 274 -238 576
-384 938 -453 154 -29 503 -31 650 -3 467 87 847 306 1155 667 392 458 544
1087 405 1666 -85 354 -260 665 -515 918 -373 370 -869 571 -1385 563 -80 -1
-158 -3 -175 -5z m560 -62 c622 -127 1132 -538 1381 -1112 181 -416 200 -882
54 -1321 -121 -364 -357 -690 -669 -922 -237 -176 -469 -281 -756 -342 -98
-21 -158 -27 -325 -31 -181 -5 -220 -3 -335 17 -543 92 -991 379 -1291 827
-153 228 -259 504 -300 787 -22 152 -15 435 15 596 34 183 115 406 199 555
293 513 771 852 1347 955 160 28 521 23 680 -9z"/>
<path d="M4950 6823 c-258 -21 -599 -139 -835 -290 -375 -241 -659 -632 -775
-1067 -199 -747 110 -1547 768 -1987 293 -196 601 -294 962 -306 241 -8 460
28 690 114 442 165 818 510 1021 938 119 252 178 508 179 775 0 153 -14 267
-55 435 -162 665 -676 1173 -1360 1344 -167 42 -403 59 -595 44z m378 -43
c122 -13 319 -61 437 -106 354 -137 651 -374 861 -689 209 -315 306 -664 291
-1053 -17 -453 -203 -870 -533 -1195 -360 -356 -841 -546 -1329 -524 -474 22
-902 216 -1231 559 -264 275 -416 581 -485 978 -17 96 -17 410 -1 515 51 315
186 619 382 860 69 84 222 233 305 296 249 190 576 323 881 358 102 12 312 12
422 1z"/>
<path d="M4817 6318 c-51 -38 -107 -153 -107 -219 l0 -28 35 15 c19 7 55 14
80 14 l45 0 -7 43 c-5 23 -8 77 -7 120 0 42 -2 77 -5 77 -3 0 -19 -10 -34 -22z
m-8 -155 c1 -7 -8 -13 -19 -13 -23 0 -23 0 -9 37 10 26 12 27 19 8 5 -11 9
-26 9 -32z"/>
<path d="M5385 6253 c0 -49 -3 -103 -7 -120 l-7 -33 50 0 c27 0 63 -7 78 -15
16 -8 31 -12 34 -9 10 10 -24 129 -48 170 -23 39 -78 94 -93 94 -4 0 -7 -39
-7 -87z m80 -85 c6 -22 4 -28 -9 -28 -12 0 -16 10 -16 37 0 41 14 36 25 -9z"/>
<path d="M4751 6045 c-125 -40 -210 -218 -198 -415 16 -260 196 -423 361 -326
53 31 85 71 120 147 130 283 -53 668 -283 594z m117 -59 c46 -24 90 -79 119
-146 25 -59 28 -76 27 -180 0 -139 -22 -205 -88 -274 -68 -70 -145 -74 -215
-11 -100 91 -134 299 -76 467 18 50 85 135 119 148 33 13 84 11 114 -4z"/>
<path d="M5335 6027 c-78 -44 -146 -166 -165 -294 -10 -77 2 -192 30 -266 26
-69 106 -161 156 -177 217 -72 388 202 318 510 -16 71 -67 167 -106 201 -63
53 -164 65 -233 26z m172 -46 c38 -24 85 -90 109 -156 13 -37 18 -78 18 -160
-1 -130 -21 -196 -84 -268 -47 -53 -87 -71 -140 -64 -148 20 -233 266 -164
476 52 159 163 231 261 172z"/>
<path d="M4098 5804 c-12 -11 4 -34 24 -34 26 0 79 -28 101 -54 19 -22 211
-406 389 -781 58 -121 158 -331 223 -467 71 -149 123 -248 132 -248 8 0 88
150 200 378 102 207 187 380 190 384 2 4 -10 22 -26 40 -24 27 -32 31 -43 20
-7 -7 -74 -140 -148 -294 -75 -155 -140 -283 -146 -285 -5 -2 -28 36 -51 84
-22 49 -114 241 -203 428 -248 522 -322 686 -323 722 -1 36 24 70 57 75 11 2
21 10 21 18 0 13 -30 15 -196 18 -107 1 -198 0 -201 -4z"/>
<path d="M5745 5800 c-9 -15 3 -30 24 -30 32 0 54 -35 48 -77 -3 -21 -74 -175
-158 -343 l-152 -305 34 -62 c18 -35 37 -63 41 -63 4 0 95 175 202 389 209
416 227 444 303 456 56 10 65 14 61 28 -6 16 -393 23 -403 7z"/>
<path d="M4132 5617 c-33 -35 -64 -114 -69 -178 -3 -33 -3 -59 0 -59 3 0 29
11 59 25 29 14 61 25 70 25 16 0 16 3 2 43 -8 23 -18 70 -21 105 -3 34 -9 62
-13 62 -3 0 -16 -10 -28 -23z m8 -142 c0 -8 -4 -15 -10 -15 -5 0 -10 7 -10 15
0 8 5 15 10 15 6 0 10 -7 10 -15z"/>
<path d="M6066 5569 c-3 -39 -13 -83 -21 -99 -20 -38 -19 -40 8 -40 13 0 46
-11 73 -25 27 -14 50 -25 52 -25 8 0 -1 83 -14 131 -15 52 -64 129 -83 129 -5
0 -11 -32 -15 -71z m54 -68 c0 -5 3 -16 6 -25 4 -11 1 -16 -10 -16 -10 0 -16
9 -16 25 0 14 5 25 10 25 6 0 10 -4 10 -9z"/>
<path d="M4124 5361 c-76 -46 -124 -144 -124 -253 0 -211 128 -403 283 -424
132 -18 234 81 244 234 4 61 1 72 -27 120 -17 28 -34 52 -39 52 -5 0 -2 -21 6
-47 9 -31 13 -68 9 -105 -22 -231 -217 -277 -348 -83 -72 108 -95 283 -49 377
55 115 165 128 270 33 46 -42 57 -42 41 1 -15 39 -58 83 -97 100 -47 20 -132
18 -169 -5z"/>
<path d="M5929 5355 c-90 -47 -170 -161 -204 -291 -67 -258 110 -459 312 -355
146 74 242 333 188 504 -20 65 -75 134 -122 153 -50 21 -121 17 -174 -11z
m180 -52 c74 -56 101 -193 62 -324 -94 -315 -405 -329 -404 -19 0 146 87 302
198 356 39 19 109 12 144 -13z"/>
<path d="M5027 5209 c-81 -19 -161 -71 -218 -142 -33 -43 -37 -51 -27 -73 6
-13 15 -24 19 -24 4 0 23 22 42 49 71 98 161 145 280 144 146 -1 248 -75 343
-251 82 -152 112 -189 221 -279 126 -104 177 -166 199 -241 49 -166 -40 -327
-201 -363 -77 -17 -156 -1 -300 62 -93 40 -119 48 -131 39 -8 -7 -14 -18 -14
-24 0 -13 186 -98 267 -122 68 -21 172 -18 237 7 125 46 207 166 209 303 2
138 -60 246 -206 360 -111 86 -163 146 -209 237 -93 184 -178 272 -297 309
-66 21 -149 24 -214 9z"/>
<path d="M5235 4517 l-180 -361 -50 -11 c-27 -6 -98 -32 -156 -58 -130 -57
-187 -70 -259 -62 -75 9 -132 38 -180 92 -78 89 -89 209 -30 330 31 63 45 77
200 205 65 54 79 79 60 108 -8 12 -19 6 -62 -36 -29 -27 -75 -68 -102 -89
-175 -139 -234 -311 -162 -471 92 -201 314 -250 566 -124 63 31 129 54 136 47
6 -6 -54 -129 -102 -209 -28 -46 -45 -62 -89 -84 -112 -54 -113 -54 564 -54
l619 0 20 58 c12 31 39 107 61 168 22 62 37 115 34 118 -17 17 -35 1 -63 -54
-42 -82 -90 -133 -158 -165 -49 -24 -74 -29 -182 -34 -136 -8 -661 -4 -669 5
-3 3 95 205 217 450 122 244 222 451 222 460 0 17 -62 134 -70 133 -3 0 -86
-163 -185 -362z"/>
<path d="M6445 6820 c-82 -49 -161 -89 -175 -90 -25 -1 -24 -1 10 -30 39 -32
55 -38 46 -15 -7 18 77 70 96 59 7 -4 30 -21 51 -38 28 -22 36 -35 31 -50 -15
-54 -27 -75 -47 -78 -18 -2 -13 -9 31 -40 29 -21 54 -38 57 -38 2 0 0 11 -6
24 -8 18 -6 40 10 97 22 79 71 274 71 284 0 14 -37 -4 -175 -85z m95 -41 c-10
-34 -20 -63 -22 -65 -6 -5 -78 45 -78 54 0 8 100 72 112 72 3 0 -2 -27 -12
-61z"/>
<path d="M3363 6660 c-39 -46 -40 -52 -10 -45 16 3 35 -7 71 -38 l48 -43 -57
-62 c-31 -34 -61 -62 -67 -62 -5 0 -29 17 -54 37 -36 30 -44 43 -39 60 9 35
-9 27 -50 -23 -35 -42 -42 -71 -12 -46 11 9 38 -9 131 -90 104 -91 117 -105
111 -128 -5 -22 -1 -20 39 20 49 49 57 65 26 57 -20 -5 -120 65 -120 85 0 12
100 128 110 128 17 0 101 -84 98 -99 -5 -32 11 -25 53 23 l43 48 -30 -6 c-26
-6 -40 3 -137 90 -82 73 -108 101 -104 115 8 31 -16 21 -50 -21z"/>
<path d="M6797 6642 c-127 -118 -189 -164 -213 -158 -31 8 -30 2 9 -44 35 -43
52 -51 44 -21 -4 19 21 47 137 151 l38 35 -6 -45 c-16 -118 -36 -343 -31 -348
3 -4 16 5 28 19 12 14 56 55 97 90 41 35 77 66 80 69 3 3 19 16 36 28 23 16
34 18 42 10 7 -7 14 -9 17 -6 6 6 -56 87 -68 87 -5 1 -6 -7 -2 -18 4 -14 -15
-37 -79 -95 -47 -43 -87 -72 -91 -66 -3 5 -4 13 -2 18 3 4 10 68 16 142 6 74
13 150 16 168 2 17 -1 32 -6 32 -6 0 -34 -22 -62 -48z"/>
<path d="M7220 6167 c0 -19 -21 -33 -132 -88 -106 -53 -136 -64 -150 -56 -9 6
-19 9 -22 7 -8 -9 84 -191 99 -197 8 -3 32 -2 53 2 l37 8 -31 7 c-17 4 -36 10
-44 15 -12 8 -55 94 -48 100 1 1 58 30 125 64 124 61 158 71 166 49 2 -7 7
-10 11 -7 8 8 -44 119 -56 119 -4 0 -8 -10 -8 -23z"/>
<path d="M2938 6055 c-43 -97 -48 -121 -21 -94 7 7 51 -10 151 -60 122 -61
140 -73 135 -91 -13 -50 17 -11 64 84 l52 103 -35 34 c-37 36 -56 33 -30 -5 9
-14 16 -32 16 -41 0 -17 -37 -95 -45 -95 -13 0 -115 55 -115 63 0 23 33 67 50
67 32 0 23 18 -20 40 -47 24 -50 24 -50 5 0 -8 5 -15 10 -15 6 0 10 -7 10 -15
0 -22 -22 -65 -34 -65 -22 0 -116 44 -116 54 0 6 11 29 23 51 16 29 31 41 52
45 l30 6 -32 17 c-18 9 -36 17 -40 17 -4 -1 -29 -48 -55 -105z"/>
<path d="M2837 5810 c-30 -74 -30 -109 1 -78 15 15 145 -19 138 -36 -3 -6 -15
-42 -27 -81 -12 -38 -23 -71 -23 -72 -1 -1 -32 7 -69 18 -43 13 -67 25 -67 34
0 33 -16 12 -31 -40 -13 -43 -14 -55 -4 -55 8 0 15 5 17 12 3 8 44 1 139 -26
147 -42 170 -51 166 -68 -1 -6 3 -12 10 -15 7 -2 16 17 24 52 12 54 6 83 -11
55 -7 -11 -17 -12 -62 -2 -85 20 -85 18 -59 109 l23 80 61 -17 c45 -12 65 -23
74 -41 9 -17 13 -20 17 -9 39 105 41 125 11 100 -17 -14 -49 -8 -202 41 -72
23 -96 36 -103 52 -8 21 -9 20 -23 -13z"/>
<path d="M7040 5777 c0 -2 7 -24 16 -50 15 -45 34 -63 34 -32 0 10 10 15 28
15 55 0 70 -10 86 -58 22 -62 21 -65 -21 -95 -28 -20 -40 -24 -50 -15 -22 18
-23 6 -6 -52 17 -60 33 -86 33 -54 0 23 34 56 182 179 59 49 105 92 103 95 -2
4 -39 10 -82 13 -179 15 -285 31 -298 43 -13 13 -25 18 -25 11z m293 -85 c14
-6 9 -14 -34 -46 -28 -20 -52 -36 -53 -34 -5 6 -26 71 -26 79 0 11 87 11 113
1z"/>
<path d="M7490 5421 c0 -19 -130 -131 -151 -131 -23 0 -162 85 -167 102 -2 10
-9 18 -14 18 -7 0 -8 -19 -4 -52 8 -55 16 -72 23 -50 7 19 23 15 78 -20 l50
-31 -50 -43 c-32 -29 -53 -40 -59 -34 -18 18 -21 10 -18 -47 4 -64 16 -88 25
-51 5 20 96 102 144 131 17 10 131 -49 165 -85 l28 -30 0 45 c0 63 -7 79 -29
65 -13 -8 -29 -4 -70 16 -59 30 -58 34 9 81 35 24 42 26 57 14 15 -13 16 -11
10 26 -4 22 -7 52 -7 68 0 15 -4 27 -10 27 -5 0 -10 -9 -10 -19z"/>
<path d="M2720 5351 c0 -47 -15 -180 -25 -227 -4 -18 1 -22 32 -27 46 -8 52
-2 25 23 -17 16 -20 27 -15 57 3 21 7 40 9 42 2 2 65 -4 141 -14 118 -14 140
-20 155 -38 20 -26 24 -18 31 56 4 46 -4 60 -20 34 -7 -12 -25 -12 -113 -1
-198 25 -190 23 -190 47 0 40 12 65 31 70 34 9 20 27 -21 27 l-40 0 0 -49z"/>
<path d="M2799 4776 c-55 -32 -73 -90 -44 -146 19 -36 43 -50 88 -50 51 0 79
38 61 84 -7 19 -38 22 -31 4 16 -45 -51 -65 -79 -23 -34 52 21 114 90 101 89
-17 107 -115 45 -246 l-36 -75 -20 47 c-22 48 -46 68 -82 68 -29 0 -26 -12 9
-38 43 -32 56 -85 42 -171 -18 -104 -15 -193 7 -251 28 -73 82 -134 146 -165
148 -73 314 19 315 173 0 99 -39 150 -147 189 -106 38 -143 88 -117 158 9 24
51 37 75 25 25 -14 24 -49 -2 -58 -18 -7 -19 -10 -6 -21 12 -9 21 -10 36 -1
69 36 30 130 -54 130 -32 0 -81 -44 -95 -84 -8 -26 -7 -43 4 -77 20 -57 21
-56 -15 -63 -17 -3 -49 -24 -72 -46 -22 -22 -42 -38 -45 -35 -13 13 24 132 74
234 83 169 85 250 10 320 -32 30 -117 39 -157 17z m234 -548 c-30 -34 -43 -63
-43 -98 0 -94 106 -155 165 -95 34 33 32 78 -4 87 -10 2 -15 -6 -15 -26 -1
-40 -28 -55 -63 -36 -53 30 -56 100 -6 146 20 18 37 24 74 24 110 0 163 -122
99 -228 -56 -92 -241 -80 -307 19 -33 50 -41 124 -20 166 18 34 68 62 111 63
l29 0 -20 -22z"/>
<path d="M7312 4773 c-67 -33 -93 -98 -74 -184 6 -26 37 -103 69 -171 48 -103
58 -134 60 -188 4 -62 3 -64 -10 -35 -18 39 -66 80 -112 95 -34 11 -34 12 -18
36 35 54 10 151 -47 174 -63 26 -132 -22 -116 -83 7 -30 37 -50 60 -41 22 8
20 21 -4 27 -22 6 -27 36 -8 55 20 20 55 13 77 -14 41 -53 16 -113 -62 -150
-29 -13 -59 -24 -68 -24 -8 0 -34 -16 -56 -35 -109 -93 -90 -250 39 -320 44
-24 58 -27 115 -22 77 6 141 41 190 105 59 78 75 173 52 325 -14 92 -1 145 42
182 35 29 34 39 -4 30 -36 -9 -65 -44 -74 -89 l-8 -39 -39 83 c-31 66 -39 95
-40 142 -1 55 2 62 32 89 23 20 43 29 68 29 66 0 109 -74 66 -113 -32 -29 -88
-15 -76 18 9 23 -15 26 -26 5 -23 -44 36 -91 95 -76 31 8 65 60 65 101 0 82
-102 130 -188 88z m-21 -546 c75 -51 73 -155 -5 -233 -74 -74 -194 -82 -264
-16 -108 101 -23 286 115 250 66 -17 97 -108 53 -156 -37 -39 -99 -19 -87 28
6 25 -7 34 -23 15 -18 -22 -8 -66 22 -88 24 -18 32 -19 68 -8 56 17 83 59 77
124 -3 31 -12 56 -26 70 -11 13 -21 26 -21 30 0 16 59 5 91 -16z"/>
<path d="M2910 3944 c0 -15 43 -75 66 -93 l25 -20 -27 -46 c-32 -56 -25 -68
41 -71 34 -1 50 -8 65 -25 l19 -24 1 32 c0 38 15 76 47 119 13 17 23 34 23 37
0 4 -26 7 -58 7 -65 0 -154 37 -173 71 -9 18 -29 26 -29 13z m180 -139 c0 -2
-5 -16 -12 -30 -8 -18 -19 -25 -40 -25 -32 0 -36 15 -11 42 14 16 63 26 63 13z"/>
<path d="M7299 3924 c-36 -40 -104 -67 -166 -66 -58 0 -72 -8 -46 -29 19 -17
63 -107 63 -131 0 -10 5 -18 10 -18 6 0 10 8 10 18 0 14 10 17 51 19 71 2 77
12 44 69 l-28 47 26 19 c27 20 73 86 65 93 -3 3 -15 -7 -29 -21z m-79 -134
c28 -28 25 -40 -10 -40 -23 0 -33 7 -45 30 -15 30 -15 30 10 30 14 0 34 -9 45
-20z"/>
<path d="M3288 3880 c-64 -19 -117 -69 -154 -145 -29 -61 -31 -124 -5 -181 19
-42 52 -76 37 -38 -18 44 -18 131 -2 182 41 124 179 187 280 129 61 -35 81
-68 81 -138 0 -52 -3 -62 -31 -90 -59 -58 -151 -44 -168 27 -14 56 44 95 86
58 16 -15 18 -15 24 -1 11 29 -23 75 -65 88 -71 21 -141 -22 -179 -111 -19
-45 -11 -133 16 -186 45 -88 165 -176 313 -228 60 -22 134 -69 154 -99 8 -13
19 -44 24 -68 l8 -44 13 27 c16 34 7 85 -25 128 -14 18 -23 35 -22 36 10 10
183 -18 209 -33 73 -43 94 -127 43 -170 -14 -13 -34 -23 -44 -23 -26 0 -71 38
-71 60 0 29 29 52 56 46 26 -7 31 3 12 22 -21 21 -65 14 -87 -14 -72 -91 51
-198 150 -131 48 32 67 90 50 148 -27 91 -90 120 -306 143 -150 16 -217 33
-279 68 -46 26 -45 38 2 55 19 6 45 22 59 35 25 23 26 23 37 3 61 -106 193
-134 260 -54 54 63 16 169 -59 169 -38 0 -80 -42 -72 -72 7 -23 -4 -23 -36 2
-33 26 -42 74 -30 153 19 112 -21 196 -112 238 -42 19 -119 24 -167 9z m27
-163 c-31 -26 -42 -89 -23 -127 7 -13 29 -35 48 -48 30 -20 43 -23 92 -19 l58
5 -15 -28 c-18 -35 -69 -78 -102 -86 -79 -20 -164 99 -147 206 7 45 44 96 78
110 35 15 38 11 11 -13z m275 -262 c16 -8 43 -15 60 -15 26 0 29 3 21 18 -12
23 4 52 29 52 49 0 61 -84 17 -115 -28 -20 -107 -19 -135 1 -29 20 -52 66 -52
101 l1 28 15 -27 c8 -15 28 -35 44 -43z"/>
<path d="M6805 3879 c-43 -12 -99 -62 -120 -105 -14 -30 -16 -53 -10 -147 7
-111 7 -112 -19 -139 -30 -33 -46 -36 -46 -8 0 28 -44 70 -73 70 -34 0 -74
-35 -82 -70 -20 -89 74 -165 171 -139 43 12 102 63 110 96 l7 24 26 -24 c36
-34 64 -47 103 -47 l33 0 -25 -20 c-75 -59 -150 -81 -345 -100 -147 -14 -202
-31 -244 -74 -42 -44 -54 -120 -27 -171 55 -101 206 -76 206 34 0 61 -71 106
-108 69 -20 -20 -14 -31 14 -24 33 9 54 -9 54 -45 0 -56 -72 -78 -115 -34 -38
38 -35 97 8 140 37 37 78 51 186 61 l74 7 -32 -40 c-38 -48 -49 -99 -27 -128
15 -19 15 -19 16 8 0 68 58 122 185 172 186 73 290 157 320 257 28 95 14 172
-43 231 -58 61 -158 56 -189 -9 -20 -40 -12 -52 21 -35 32 18 58 11 75 -20 29
-52 -18 -109 -91 -109 -62 0 -121 96 -103 167 24 95 142 150 239 109 98 -41
143 -126 133 -254 -5 -62 -3 -73 7 -61 20 21 36 77 36 123 0 56 -49 157 -91
189 -66 49 -161 68 -234 46z m145 -154 c63 -33 88 -140 51 -220 -37 -82 -109
-115 -170 -79 -27 16 -71 72 -71 90 0 5 29 9 64 9 58 0 68 3 95 29 54 52 53
133 -2 167 -39 23 -11 27 33 4z m-240 -250 c-15 -67 -48 -94 -116 -95 -68 0
-98 23 -98 74 0 40 15 56 50 56 25 0 37 -23 29 -51 -5 -16 -1 -19 22 -19 36 0
89 32 98 59 11 35 24 14 15 -24z"/>
<path d="M4265 3061 c3 -11 -11 -63 -34 -122 -31 -84 -43 -105 -62 -110 -21
-6 -18 -9 31 -31 30 -14 72 -31 92 -38 35 -13 38 -12 57 11 25 30 27 43 4 34
-37 -15 -60 -16 -91 -3 l-31 13 20 47 c20 45 22 46 50 36 16 -5 29 -16 29 -24
0 -23 20 -16 30 12 14 36 13 49 -4 35 -9 -8 -21 -8 -45 0 -34 12 -35 22 -4 82
16 32 13 31 56 11 26 -12 33 -21 30 -35 -9 -32 14 -21 26 13 6 17 10 32 9 33
-8 5 -154 55 -161 55 -5 0 -6 -9 -2 -19z"/>
<path d="M5892 3058 c-46 -12 -70 -63 -51 -104 8 -16 24 -33 35 -39 19 -10 20
-13 8 -30 -36 -49 3 -115 68 -115 101 0 148 112 63 153 -32 15 -34 19 -24 44
23 60 -31 109 -99 91z m42 -34 c16 -15 22 -65 10 -77 -3 -3 -19 -1 -35 5 -22
8 -29 16 -29 37 0 26 16 51 31 51 4 0 15 -7 23 -16z m51 -136 c52 -23 40 -88
-16 -88 -36 0 -64 38 -55 75 7 28 30 32 71 13z"/>
<path d="M4502 2957 c-32 -33 -27 -64 18 -131 22 -32 40 -63 40 -67 0 -19 -40
-48 -57 -42 -33 11 -43 25 -43 56 0 28 -2 30 -15 17 -43 -44 -2 -102 75 -104
33 0 46 4 61 23 30 37 24 76 -22 141 -42 61 -46 95 -11 102 28 7 62 -13 62
-36 0 -24 15 -11 24 20 5 18 1 24 -25 33 -49 17 -83 13 -107 -12z"/>
<path d="M5628 2963 c-38 -24 -50 -64 -35 -111 17 -51 53 -68 102 -48 21 9 35
22 35 32 0 14 -3 15 -12 6 -33 -33 -88 2 -88 55 0 63 63 72 92 13 21 -40 24
-139 7 -173 -6 -12 -21 -32 -32 -44 -15 -17 -17 -23 -6 -23 26 0 61 32 80 74
61 134 -37 284 -143 219z"/>
<path d="M4686 2924 c-7 -27 3 -50 11 -26 5 14 51 16 71 3 11 -6 9 -29 -6
-120 -11 -66 -25 -117 -33 -122 -18 -11 -11 -15 39 -23 41 -6 52 0 32 20 -6 6
-3 49 10 124 11 63 20 115 20 116 0 0 14 -1 30 -4 17 -2 35 -13 41 -23 14 -27
29 -14 29 23 0 21 -4 29 -13 25 -12 -5 -172 17 -208 29 -12 3 -19 -3 -23 -22z"/>
<path d="M5384 2920 c-55 -22 -71 -99 -31 -146 28 -33 76 -37 107 -9 20 18 20
18 20 -9 0 -36 -22 -87 -49 -110 -30 -27 -26 -39 8 -21 49 25 82 77 88 138 12
120 -54 193 -143 157z m85 -67 c18 -50 5 -73 -40 -73 -32 0 -49 23 -49 67 0
37 18 55 50 51 19 -2 28 -12 39 -45z"/>
<path d="M5203 2891 c-34 -17 -43 -31 -19 -31 20 0 30 -210 10 -226 -24 -19
-16 -24 36 -24 46 0 67 13 38 22 -9 3 -16 48 -23 140 l-10 135 -32 -16z"/>
<path d="M4933 2663 c-16 -6 -17 -39 -2 -49 6 -3 18 1 27 10 14 14 14 18 2 30
-8 7 -21 12 -27 9z"/>
<path d="M4300 7595 c-9 -10 -10 -19 -3 -26 13 -13 73 9 73 27 0 19 -54 18
-70 -1z"/>
<path d="M5870 7596 c0 -16 21 -26 56 -26 26 0 30 10 12 28 -17 17 -68 15 -68
-2z"/>
<path d="M4188 7559 c-15 -8 -26 -39 -14 -39 20 0 66 25 66 36 0 16 -27 18
-52 3z"/>
<path d="M6000 7556 c0 -11 46 -36 66 -36 13 0 1 31 -15 40 -28 14 -51 13 -51
-4z"/>
<path d="M4068 7514 c-48 -25 -31 -51 21 -33 20 7 31 17 29 27 -4 22 -19 24
-50 6z"/>
<path d="M6130 7515 c-9 -11 -7 -16 9 -24 25 -14 61 -14 61 -1 0 5 -13 16 -29
24 -25 13 -31 13 -41 1z"/>
<path d="M3948 7464 c-29 -15 -35 -28 -17 -39 17 -11 70 16 67 33 -4 22 -19
23 -50 6z"/>
<path d="M6245 7460 c-3 -5 8 -16 24 -25 38 -19 41 -19 41 4 0 27 -51 44 -65
21z"/>
<path d="M3832 7403 c-16 -13 -19 -22 -12 -33 8 -13 13 -12 36 5 14 11 26 25
26 30 -1 18 -28 16 -50 -2z"/>
<path d="M6360 7405 c0 -19 37 -38 58 -30 15 5 13 9 -8 25 -30 23 -50 25 -50
5z"/>
<path d="M3726 7345 c-11 -8 -16 -21 -12 -30 5 -14 8 -14 36 0 31 16 36 38 9
42 -8 2 -22 -4 -33 -12z"/>
<path d="M6470 7345 c0 -8 12 -22 26 -31 22 -15 27 -15 35 -3 6 10 3 19 -12
32 -26 21 -49 22 -49 2z"/>
<path d="M3622 7284 c-26 -18 -29 -44 -4 -44 26 1 55 27 49 45 -8 19 -17 19
-45 -1z"/>
<path d="M6574 7288 c-8 -13 30 -48 52 -48 25 0 15 29 -15 45 -22 11 -32 12
-37 3z"/>
<path d="M3523 7213 c-26 -17 -31 -43 -9 -43 22 0 60 35 52 48 -9 15 -16 14
-43 -5z"/>
<path d="M6680 7207 c0 -19 40 -41 53 -28 7 7 6 15 -3 26 -15 18 -50 20 -50 2z"/>
<path d="M3415 7130 c-14 -15 -16 -23 -7 -32 14 -14 62 15 62 37 0 22 -34 18
-55 -5z"/>
<path d="M6775 7141 c-8 -15 46 -54 58 -42 7 7 4 17 -8 31 -19 21 -40 26 -50
11z"/>
<path d="M3326 7055 c-11 -8 -16 -21 -13 -30 9 -21 23 -19 46 7 32 34 6 53
-33 23z"/>
<path d="M6870 7057 c0 -8 9 -22 20 -32 16 -14 23 -16 32 -7 9 9 7 16 -7 32
-21 23 -45 26 -45 7z"/>
<path d="M3235 6970 c-14 -16 -16 -23 -7 -32 9 -9 18 -6 37 12 24 23 25 40 1
40 -7 0 -21 -9 -31 -20z"/>
<path d="M6960 6977 c0 -8 9 -22 20 -32 16 -14 23 -16 32 -7 9 9 7 16 -7 32
-21 23 -45 26 -45 7z"/>
<path d="M3152 6887 c-20 -21 -21 -26 -8 -36 12 -10 19 -8 36 9 21 21 23 41 4
47 -6 2 -20 -7 -32 -20z"/>
<path d="M7046 6901 c-11 -16 29 -55 49 -47 17 6 16 8 -5 31 -25 27 -35 30
-44 16z"/>
<path d="M3072 6808 c-19 -19 -15 -48 8 -48 18 0 40 26 40 49 0 15 -33 14 -48
-1z"/>
<path d="M7125 6809 c-8 -12 23 -49 42 -49 18 0 17 25 -3 44 -18 19 -30 20
-39 5z"/>
<path d="M2997 6712 c-21 -23 -22 -38 -3 -45 17 -7 46 23 46 46 0 22 -23 22
-43 -1z"/>
<path d="M7205 6720 c-9 -14 18 -50 37 -50 22 0 23 9 2 38 -16 24 -29 28 -39
12z"/>
<path d="M2925 6620 c-17 -19 -15 -50 3 -50 17 0 44 39 39 55 -8 20 -20 19
-42 -5z"/>
<path d="M7275 6630 c-6 -11 23 -60 36 -60 17 0 20 22 5 45 -17 26 -31 31 -41
15z"/>
<path d="M2856 6518 c-20 -28 -20 -48 -2 -48 18 0 58 49 50 61 -9 16 -32 10
-48 -13z"/>
<path d="M7345 6530 c-3 -5 4 -24 16 -41 16 -22 24 -28 33 -19 8 8 7 18 -4 37
-17 30 -35 39 -45 23z"/>
<path d="M2810 6435 c-10 -12 -10 -19 -1 -28 9 -9 14 -9 21 3 22 34 4 54 -20
25z"/>
<path d="M7406 6425 c4 -8 10 -15 15 -15 5 0 9 7 9 15 0 8 -7 15 -15 15 -9 0
-12 -6 -9 -15z"/>
<path d="M2754 6355 c-16 -24 -12 -45 8 -45 15 0 37 31 38 53 0 25 -27 21 -46
-8z"/>
<path d="M7440 6366 c0 -8 9 -24 19 -37 17 -21 20 -22 26 -7 4 9 2 26 -5 37
-12 24 -40 28 -40 7z"/>
<path d="M2702 6255 c-16 -34 -15 -45 3 -45 18 0 49 45 40 60 -11 18 -31 11
-43 -15z"/>
<path d="M7505 6268 c-8 -20 12 -61 28 -55 19 6 18 23 -2 48 -17 21 -20 22
-26 7z"/>
<path d="M2656 6158 c-21 -30 -20 -48 2 -48 26 0 46 44 27 60 -10 8 -17 6 -29
-12z"/>
<path d="M7550 6159 c0 -20 21 -49 35 -49 18 0 19 14 5 41 -11 20 -40 26 -40
8z"/>
<path d="M2612 6058 c-17 -17 -15 -58 3 -58 18 0 38 37 31 56 -7 17 -18 18
-34 2z"/>
<path d="M7600 6051 c0 -30 11 -51 26 -51 17 0 18 24 4 51 -14 24 -30 25 -30
0z"/>
<path d="M2565 5948 c-11 -33 -9 -53 6 -56 17 -3 43 43 34 59 -9 13 -35 11
-40 -3z"/>
<path d="M7640 5938 c0 -24 16 -48 33 -48 4 0 7 15 5 32 -4 40 -38 54 -38 16z"/>
<path d="M2536 5844 c-20 -19 -18 -59 3 -59 18 0 37 53 23 67 -6 6 -15 3 -26
-8z"/>
<path d="M7684 5847 c-8 -22 12 -71 26 -62 14 9 12 38 -4 61 -14 18 -15 18
-22 1z"/>
<path d="M7714 5736 c-4 -9 -2 -27 4 -39 6 -12 12 -31 14 -41 2 -11 9 -21 17
-24 11 -4 12 5 7 44 -9 57 -31 89 -42 60z"/>
<path d="M2491 5703 c-16 -56 -14 -75 6 -71 10 2 21 17 25 38 14 58 14 64 -4
68 -12 2 -20 -7 -27 -35z"/>
<path d="M2456 5565 c-8 -30 -1 -45 19 -45 16 0 31 43 20 59 -11 20 -33 11
-39 -14z"/>
<path d="M7746 5581 c-8 -13 11 -61 24 -61 17 0 23 27 10 49 -11 22 -25 27
-34 12z"/>
<path d="M2440 5454 c-11 -29 -6 -44 15 -44 16 0 31 43 20 59 -11 18 -25 12
-35 -15z"/>
<path d="M7766 5464 c-7 -17 10 -54 24 -54 16 0 20 18 10 44 -11 29 -25 34
-34 10z"/>
<path d="M2427 5364 c-4 -4 -7 -20 -7 -36 0 -23 4 -29 18 -26 11 2 17 13 17
32 0 29 -14 43 -28 30z"/>
<path d="M7780 5346 c0 -25 12 -46 26 -46 9 0 14 11 14 30 0 23 -4 30 -20 30
-11 0 -20 -6 -20 -14z"/>
<path d="M2417 5254 c-4 -4 -7 -20 -7 -36 0 -23 4 -29 18 -26 11 2 17 13 17
32 0 29 -14 43 -28 30z"/>
<path d="M7796 5251 c-11 -16 5 -61 21 -61 10 0 13 9 11 32 -3 32 -21 48 -32
29z"/>
<path d="M2407 5143 c-13 -13 -7 -61 8 -67 18 -7 35 28 27 56 -4 18 -23 24
-35 11z"/>
<path d="M7804 5136 c-9 -24 0 -51 19 -54 15 -3 18 2 15 29 -3 35 -24 51 -34
25z"/>
<path d="M2402 4998 c2 -21 8 -33 18 -33 10 0 16 12 18 33 3 27 0 32 -18 32
-18 0 -21 -5 -18 -32z"/>
<path d="M7804 5016 c-9 -23 0 -51 16 -51 10 0 16 12 18 33 2 24 -1 32 -13 32
-8 0 -18 -6 -21 -14z"/>
<path d="M2407 4913 c-11 -11 -8 -38 7 -58 13 -18 14 -18 24 2 19 35 -6 81
-31 56z"/>
<path d="M7807 4914 c-4 -4 -7 -20 -7 -36 0 -23 4 -29 18 -26 11 2 17 13 17
32 0 29 -14 43 -28 30z"/>
<path d="M2410 4776 c0 -25 22 -51 33 -39 4 3 7 19 7 35 0 21 -5 28 -20 28
-14 0 -20 -7 -20 -24z"/>
<path d="M7797 4793 c-4 -3 -7 -17 -7 -30 0 -16 6 -23 20 -23 16 0 20 7 20 30
0 28 -17 40 -33 23z"/>
<path d="M2425 4679 c-11 -16 4 -59 20 -59 20 0 28 17 21 46 -7 25 -30 32 -41
13z"/>
<path d="M7781 4668 c-9 -25 -4 -48 10 -48 13 0 31 40 25 56 -8 21 -26 17 -35
-8z"/>
<path d="M2447 4574 c-12 -13 -7 -51 8 -64 24 -20 40 1 28 36 -10 29 -24 40
-36 28z"/>
<path d="M7772 4568 c-7 -7 -12 -23 -12 -36 0 -32 34 -26 38 7 5 29 -10 45
-26 29z"/>
<path d="M2463 4454 c-7 -18 12 -64 27 -64 17 0 23 30 12 56 -13 27 -30 31
-39 8z"/>
<path d="M7737 4438 c-7 -25 -1 -38 18 -38 13 0 25 21 25 46 0 23 -37 16 -43
-8z"/>
<path d="M2497 4354 c-12 -12 -8 -51 8 -64 16 -13 35 -6 35 14 0 19 -34 59
-43 50z"/>
<path d="M7717 4343 c-10 -9 -9 -63 1 -63 15 0 32 24 32 47 0 22 -19 31 -33
16z"/>
<path d="M2526 4242 c-8 -13 4 -71 16 -78 19 -12 29 13 21 46 -9 34 -26 49
-37 32z"/>
<path d="M7679 4213 c-10 -28 -6 -53 10 -53 13 0 17 8 26 48 5 26 3 32 -9 32
-9 0 -21 -12 -27 -27z"/>
<path d="M2560 4140 c0 -5 5 -10 10 -10 6 0 10 5 10 10 0 6 -4 10 -10 10 -5 0
-10 -4 -10 -10z"/>
<path d="M7643 4095 c-27 -52 -29 -75 -8 -75 17 0 30 28 39 83 8 49 -4 46 -31
-8z"/>
<path d="M2574 4093 c5 -39 24 -83 35 -83 19 0 19 29 -1 69 -23 47 -39 54 -34
14z"/>
<path d="M2620 3956 c0 -30 26 -54 42 -38 9 9 9 18 0 37 -15 32 -42 33 -42 1z"/>
<path d="M7581 3954 c-12 -28 -7 -44 14 -44 14 0 25 21 25 51 0 28 -25 23 -39
-7z"/>
<path d="M2664 3865 c-7 -17 21 -65 37 -65 18 0 21 30 5 55 -19 28 -34 32 -42
10z"/>
<path d="M7535 3850 c-14 -28 -14 -31 1 -37 19 -7 46 23 42 46 -5 27 -27 22
-43 -9z"/>
<path d="M2723 3769 c-15 -15 11 -73 30 -66 19 6 19 32 0 56 -14 17 -21 19
-30 10z"/>
<path d="M7493 3758 c-21 -27 -22 -36 -9 -48 12 -9 18 -6 30 18 19 37 2 60
-21 30z"/>
<path d="M2770 3654 c0 -24 19 -54 35 -54 23 0 28 19 11 45 -18 28 -46 33 -46
9z"/>
<path d="M7432 3658 c-14 -14 -16 -44 -3 -53 13 -8 41 23 41 46 0 21 -20 25
-38 7z"/>
<path d="M2833 3555 c-5 -16 22 -55 39 -55 18 0 20 31 3 50 -22 24 -34 25 -42
5z"/>
<path d="M7372 3558 c-14 -14 -16 -58 -4 -58 17 0 44 39 39 55 -8 18 -19 19
-35 3z"/>
<path d="M2896 3462 c-10 -17 29 -56 49 -49 16 7 16 9 2 30 -16 24 -42 34 -51
19z"/>
<path d="M7300 3451 c-14 -27 -13 -41 4 -41 17 0 48 39 40 52 -9 15 -33 9 -44
-11z"/>
<path d="M2965 3370 c-9 -14 26 -61 43 -58 24 5 25 25 3 47 -23 23 -37 26 -46
11z"/>
<path d="M7235 3360 c-10 -11 -15 -26 -11 -36 6 -16 10 -15 33 8 14 14 22 31
19 37 -10 16 -20 14 -41 -9z"/>
<path d="M3043 3275 c-6 -18 23 -55 44 -55 19 0 16 34 -5 53 -23 21 -31 21
-39 2z"/>
<path d="M7157 3272 c-20 -21 -22 -38 -6 -47 14 -9 49 24 49 47 0 23 -22 23
-43 0z"/>
<path d="M3123 3185 c-6 -18 23 -55 43 -55 23 0 24 17 3 44 -23 30 -37 33 -46
11z"/>
<path d="M7082 3184 c-24 -16 -29 -39 -11 -49 12 -8 49 23 49 41 0 21 -15 24
-38 8z"/>
<path d="M3213 3095 c-8 -23 32 -64 48 -48 15 15 6 39 -21 53 -16 9 -22 8 -27
-5z"/>
<path d="M6990 3090 c-23 -23 -25 -36 -9 -46 14 -9 64 41 55 55 -10 16 -23 14
-46 -9z"/>
<path d="M3295 3010 c-7 -12 30 -50 50 -50 22 0 18 37 -4 50 -24 13 -38 13
-46 0z"/>
<path d="M6895 3000 c-14 -15 -16 -23 -7 -32 14 -14 65 17 59 35 -6 20 -32 19
-52 -3z"/>
<path d="M3390 2927 c0 -16 32 -47 48 -47 21 0 23 19 2 40 -23 23 -50 27 -50
7z"/>
<path d="M6802 2928 c-16 -16 -15 -48 1 -48 17 0 59 44 50 53 -10 11 -38 8
-51 -5z"/>
<path d="M3484 2858 c-7 -11 38 -58 57 -58 18 0 9 39 -13 54 -27 19 -35 20
-44 4z"/>
<path d="M6711 2851 c-23 -17 -25 -51 -3 -51 16 0 54 48 47 59 -9 15 -16 14
-44 -8z"/>
<path d="M3587 2793 c-14 -13 -6 -31 19 -48 23 -15 28 -15 41 -2 13 13 11 17
-13 36 -28 22 -37 25 -47 14z"/>
<path d="M6617 2784 c-29 -16 -37 -44 -11 -44 24 0 54 19 54 35 0 22 -13 24
-43 9z"/>
<path d="M3686 2715 c-7 -18 37 -50 59 -41 23 9 18 24 -15 41 -36 19 -37 19
-44 0z"/>
<path d="M6501 2709 c-17 -16 -20 -24 -11 -33 14 -14 65 13 65 34 0 23 -28 23
-54 -1z"/>
<path d="M3790 2647 c0 -13 96 -67 118 -67 28 0 8 29 -37 53 -53 29 -81 34
-81 14z"/>
<path d="M6383 2642 c-18 -9 -33 -22 -33 -29 0 -7 -5 -12 -11 -10 -6 1 -14 -4
-16 -12 -4 -10 1 -11 18 -6 53 15 109 46 109 60 0 18 -25 17 -67 -3z"/>
<path d="M6247 2573 c-29 -15 -32 -36 -5 -41 8 -2 25 5 37 16 19 15 21 20 10
29 -11 8 -21 8 -42 -4z"/>
<path d="M3945 2571 c-7 -12 34 -41 57 -41 10 0 18 7 18 15 0 26 -61 47 -75
26z"/>
<path d="M4055 2521 c-6 -11 32 -41 52 -41 22 0 26 23 8 37 -22 15 -51 17 -60
4z"/>
<path d="M6129 2511 c-22 -18 -23 -20 -6 -27 23 -8 70 12 64 29 -6 20 -32 19
-58 -2z"/>
<path d="M4177 2483 c-15 -14 -5 -32 23 -42 25 -8 32 -7 37 5 3 8 2 19 -3 24
-14 12 -50 21 -57 13z"/>
<path d="M6019 2471 c-22 -18 -23 -20 -6 -27 23 -8 70 12 64 29 -6 20 -32 19
-58 -2z"/>
<path d="M4275 2440 c-11 -18 15 -40 46 -40 19 0 29 5 29 15 0 27 -61 47 -75
25z"/>
<path d="M5909 2431 c-22 -18 -23 -20 -6 -27 23 -8 70 12 64 29 -6 20 -32 19
-58 -2z"/>
<path d="M4390 2395 c0 -19 49 -40 63 -26 5 5 7 17 4 25 -8 21 -67 22 -67 1z"/>
<path d="M5790 2395 c-9 -11 -10 -19 -2 -27 14 -14 67 4 67 23 0 20 -49 23
-65 4z"/>
<path d="M4505 2370 c-9 -15 2 -27 29 -32 36 -7 53 6 37 26 -15 18 -56 21 -66
6z"/>
<path d="M5674 2365 c-10 -26 9 -37 40 -25 34 12 29 34 -7 38 -18 2 -29 -2
-33 -13z"/>
<path d="M4624 2345 c-4 -10 -1 -21 7 -26 22 -14 49 -11 56 6 7 19 5 22 -29
30 -21 5 -29 3 -34 -10z"/>
<path d="M5565 2346 c-15 -11 -17 -17 -8 -26 15 -16 68 1 68 21 0 20 -36 23
-60 5z"/>
<path d="M4734 2329 c-8 -14 5 -26 38 -34 21 -5 29 -3 34 10 4 10 1 21 -7 26
-19 12 -56 11 -65 -2z"/>
<path d="M5451 2331 c-23 -15 -5 -44 21 -36 31 10 42 21 34 34 -9 13 -36 14
-55 2z"/>
<path d="M4863 2323 c-18 -7 -16 -30 3 -37 44 -17 82 6 49 31 -19 13 -31 15
-52 6z"/>
<path d="M5342 2322 c-32 -5 -25 -36 9 -40 34 -4 58 23 32 35 -10 5 -28 7 -41
5z"/>
<path d="M4973 2305 c-6 -18 -5 -20 22 -29 26 -7 50 8 42 28 -8 20 -56 21 -64
1z"/>
<path d="M5097 2309 c-24 -14 -5 -39 30 -39 20 0 43 24 32 34 -13 11 -47 14
-62 5z"/>
<path d="M5213 2313 c-20 -7 -15 -31 7 -38 20 -6 60 10 60 24 0 17 -40 25 -67
14z"/>
<path d="M4545 2041 c-100 -47 -146 -121 -125 -200 14 -52 30 -53 23 -3 -7 55
26 115 85 153 60 38 101 49 187 49 64 1 68 2 51 15 -13 10 -44 15 -90 15 -57
0 -83 -6 -131 -29z"/>
<path d="M5488 2063 c-42 -11 -12 -23 55 -23 58 0 83 -5 132 -29 91 -43 121
-84 127 -176 l3 -40 13 38 c29 80 -18 159 -122 208 -49 23 -74 29 -126 28 -36
-1 -73 -3 -82 -6z"/>
<path d="M4279 1930 c-136 -69 -210 -95 -296 -105 -35 -4 -60 -11 -57 -16 10
-16 140 -10 205 11 35 10 68 18 73 17 5 -1 8 -23 7 -49 -3 -52 12 -88 35 -88
12 0 14 5 9 18 -24 57 -12 112 35 157 l30 29 0 -46 c0 -86 43 -150 111 -168
89 -24 168 57 129 131 -16 28 -43 25 -34 -3 18 -54 -5 -91 -56 -91 -97 0 -142
112 -85 212 14 23 25 45 25 47 0 9 -21 0 -131 -56z"/>
<path d="M5830 1986 c0 -3 11 -22 25 -42 48 -71 27 -182 -40 -210 -66 -27
-118 14 -101 81 8 29 -4 32 -27 7 -26 -29 -21 -70 12 -103 24 -24 38 -29 76
-29 27 0 60 8 76 17 39 23 69 87 69 146 0 45 1 47 20 35 44 -28 73 -125 50
-169 -9 -16 -7 -19 9 -19 28 0 45 57 32 106 -11 41 -18 40 94 10 62 -17 156
-20 190 -7 14 6 0 10 -50 15 -93 10 -169 37 -290 100 -99 53 -145 72 -145 62z"/>
</g>
</svg>
